<?xml version="1.0" encoding="iso-8859-1"?>
<!-- Generator: Adobe Illustrator 19.2.1, SVG Export Plug-In . SVG Version: 6.00 Build 0)  -->
<!DOCTYPE svg PUBLIC "-//W3C//DTD SVG 1.1//EN" "http://www.w3.org/Graphics/SVG/1.1/DTD/svg11.dtd">
<svg version="1.1" xmlns="http://www.w3.org/2000/svg" xmlns:xlink="http://www.w3.org/1999/xlink" x="0px" y="0px"
	 viewBox="0 0 965.96 965.954" style="enable-background:new 0 0 965.96 965.954;" xml:space="preserve">
<g id="April">
	<path style="fill:#EFC94C;" d="M965.96,482.98c0,262.376-220.279,484.03-482.98,482.97C219.622,964.888,0,747.089,0,482.98
		C0,216.24,216.24,0,482.98,0S965.96,216.24,965.96,482.98z"/>
	<g>
		<path style="fill:#F18A04;" d="M335.515,278.624c-2.201-3.3-4.006-6.856-5.505-10.528c-7.021-17.204-7.065-37.14-0.122-54.375
			c6.943-17.235,20.795-31.573,37.78-39.107c7.858-3.485,16.298-5.548,24.822-6.661c5.673-0.741,11.498-1.062,17.069,0.245
			c6.599,1.547,12.489,5.289,19,7.171c2.955,0.854,6.103,1.355,8.653,3.076c2.535,1.711,4.176,4.428,5.737,7.058
			c3.822,6.438,7.695,13.002,9.425,20.286c1.421,5.982,1.335,12.204,1.237,18.352c-0.29,18.217-0.615,36.433-0.94,54.649
			c-0.096,5.364-0.213,10.845-2.064,15.88c-4.999,13.594-20.472,19.652-34.243,24.141c-9.684,3.156-21.629,5.856-28.975-1.199
			c-5.125-4.922-6.012-13.077-11.079-18.058c-2.191-2.154-5.002-3.543-7.761-4.896c-11.575-5.676-23.15-11.352-34.725-17.028"/>
		<path style="fill:none;stroke:#1D1D1B;stroke-width:8.7929;stroke-miterlimit:10;" d="M47.965,853.813
			c-16.393-12.113-26.546-31.557-29.659-51.701c-1.106-7.159-1.381-14.538,0.23-21.601c3.828-16.777,19.16-30.263,36.288-31.918
			c17.128-1.655,34.759,8.645,41.729,24.378c1.879,4.241,3.043,8.972,2.177,13.529c-0.865,4.558-4.103,8.856-8.605,9.974
			c-3.123,0.776-6.477-0.029-9.298-1.58c-11.806-6.49-13.116-22.635-12.958-36.106c0.105-8.971,0.211-17.942,0.316-26.912
			c0.068-5.796,0.165-11.744,2.301-17.132c4.465-11.267,16.913-17.494,28.928-19.076c9.725-1.281,20.063-0.062,28.387,5.126
			s14.218,14.785,13.376,24.558c-0.141,1.63-0.51,3.347-1.656,4.516c-2.888,2.943-7.865,0.391-10.774-2.531
			c-9.764-9.809-15.368-23.632-15.193-37.471c0.175-13.839,6.129-27.516,16.138-37.074c9.851-9.407,24.763-14.711,37.442-9.733
			c12.679,4.978,19.899,22.445,11.692,33.316c-4.63,3.148-10.584-1.567-13.664-6.242c-19.466-29.549-12.105-71.426,10.877-98.332
			c5.977-6.998,14.201-13.661,23.325-12.464c11.685,1.533,17.692,14.508,21.317,25.722c0.716,2.215,1.431,4.52,1.147,6.831
			c-0.522,4.25-4.489,7.506-8.708,8.236c-4.219,0.73-8.552-0.631-12.321-2.661c-19.429-10.464-24.946-36.334-21.7-58.162
			c2.317-15.58,7.995-30.651,16.535-43.887c-0.906,1.222-1.813,2.443-2.719,3.665"/>
		<path style="fill:#E56D6D;" d="M261.587,540.838c1.72-0.478,67.09-16.629,67.09-16.629s67.09-101.496,67.09-111.531
			l-86.013,21.503L261.587,540.838z"/>
		<path style="fill:#A73737;" d="M169.839,356.196c0,0,89.454-35.376,87.734-33.171c-1.72,2.206,108.377,57.254,135.328,89.653
			l-83.146,21.503L169.839,356.196z"/>
		<path style="fill:#F18A04;" d="M253.559,403.938c0,0,0.687-1.328,1.978-3.717c9.514-17.611,51.807-92.888,93.21-119.144
			l21.79,8.679c0,0-42.055,27.569-98.055,128.369c-2.867,5.161-2.867,5.161-2.867,5.161l-16.767-16.056"/>
		<path style="fill:#FFB69D;" d="M367.765,259.948c0.994,4.901,4.705,8.82,8.777,11.722c10.086,7.188,23.418,9.617,35.391,6.448
			c5.119-1.355,9.978-3.668,15.189-4.605c2.923-0.525,5.906-0.608,8.876-0.655c2.406-0.038,4.937-0.024,7.038,1.15
			c2.834,1.584,4.249,5.085,3.951,8.318c-0.298,3.233-2.066,6.183-4.309,8.531c-7.847,8.212-20.375,9.369-31.731,9.625
			c-9.848,0.222-20.632-0.175-28.084-6.617c-5.313-4.592-7.95-11.47-10.39-18.055c-1.703-4.596-3.406-9.193-5.109-13.789"/>
		<path style="fill:#FE86A4;" d="M404.769,292.96c5.822-6.88,16.963-7.072,24.762-2.555s12.85,12.567,16.792,20.672
			c7.717,15.867,12.398,33.205,13.714,50.8c0.11,1.473,0.183,3.026-0.469,4.352c-0.943,1.918-3.117,2.844-5.134,3.548
			c-2.712,0.948-5.519,1.789-8.392,1.758c-7.308-0.079-13.508-5.856-16.661-12.448c-3.154-6.593-3.974-14.011-5.439-21.171
			c-3.18-15.544-9.616-30.415-18.77-43.374c-0.257-0.364-0.644-0.772-1.068-0.635c-0.423,0.138-0.026,0.993,0.23,0.628"/>
		<path style="fill:none;stroke:#1D1D1B;stroke-width:0.3823;stroke-miterlimit:10;" d="M432.844,325.193
			c-0.642-3.774-2.459-7.231-4.251-10.614c-3.96-7.478-7.92-14.955-11.88-22.433"/>
		<polygon style="fill:#DF4949;" points="130.846,476.615 169.839,356.196 309.754,434.181 261.587,540.838 		"/>
		<path style="fill:#8B4930;" d="M400.541,261.536c-0.062-5.14,2.628-10.099,6.575-13.394s9.031-5.03,14.146-5.549
			c3.119-0.317,6.631-0.061,8.809,2.194c1.85,1.914,2.258,4.909,1.532,7.47c-0.726,2.561-2.431,4.739-4.35,6.584
			c-5.502,5.289-13.28,8.324-20.866,7.497c-1.066-0.116-2.164-0.321-3.038-0.943c-2.122-1.509-2.032-4.632-1.722-7.217"/>
		<path style="fill:#FFFFFF;" d="M421.7,228.116c0.953-2.877,2.59-5.525,4.736-7.665c3.11-3.1,7.187-5.064,11.363-6.42
			c6.229-2.023,12.858-2.809,19.388-2.3c0.651,0.051,1.317,0.119,1.906,0.402c1.267,0.609,1.89,2.069,2.127,3.455
			c0.744,4.362-1.276,8.697-3.542,12.497c-4.111,6.894-10.056,13.671-18.02,14.671c-7.139,0.897-14.59-3.761-16.911-10.572
			c-0.414-1.215-0.68-2.515-0.469-3.781c0.456-2.727,2.926-4.587,5.203-6.156"/>
		<path style="fill:#FFFFFF;" d="M357.436,242.169c-1.198-6.888,2.615-13.931,8.116-18.246s12.439-6.341,19.295-7.713
			c4.9-0.98,10.564-1.487,14.342,1.783c2.632,2.278,3.682,5.913,3.903,9.387c0.498,7.819-2.777,15.843-8.76,20.902
			s-14.565,6.947-22.054,4.643c-7.489-2.304-13.585-8.811-15.174-16.483"/>
		<path style="fill:none;stroke:#1D1D1B;stroke-width:0.3823;stroke-miterlimit:10;" d="M348.881,247.084
			c-3.892-3.236-5.343-9.092-3.411-13.77"/>
		<path style="fill:#DF4949;" d="M289.111,190.476v-10.895c0,0,50.233,6.308,55.508,0c5.275-6.308,2.131,0,2.131,0l-28.355-79.706
			c0,0,119.232,2.294,159.372,10.895l-49.209,64.598l49.209-1.521l-2.294,13.762L289.111,190.476z"/>
		<polygon style="fill:#B73D3D;" points="389.185,179.581 357.104,99.876 438.775,103.316 403.142,177.288 		"/>
		<g>
			<path style="fill:#FFDDCE;" d="M879.958,498.758c10.617,0.596,17.654-14.05,28.236-13c-1.376,6.086-5.856,11.383-11.628,13.752
				c11.001,4.305,22.001,8.609,33.002,12.914c2.778,1.087,6.164,3.629,4.763,6.264c-9.92,1.502-20.266,0.073-29.408-4.062
				c7.547,2.092,14.71,5.565,21.027,10.195c2.904,2.129,5.925,5.368,4.943,8.833c-9.031-2.091-17.536-6.417-24.545-12.484
				c6.495,4.015,12.212,9.285,16.741,15.434c1.617,2.195,2.853,5.782,0.535,7.216c-0.93,0.575-2.113,0.505-3.191,0.319
				c-9.24-1.6-15.668-9.791-21.173-17.383c4.006,8.524,6.034,17.971,5.877,27.388c-8.408-3.685-10.316-14.453-14.874-22.421
				c-3.223-5.635-8.22-10.238-14.1-12.988c-4.963-2.321-10.467-3.332-15.387-5.742c-0.984-0.482-2.011-1.093-2.424-2.109
				c-0.402-0.99-0.121-2.11,0.164-3.14c1.028-3.708,2.055-7.417,3.083-11.125c6.896,1.828,14.159,2.26,21.223,1.26"/>
			<path style="fill:#1A2530;" d="M615.599,618.857c0,0,1.41-0.392,3.906-1.071c19.08-5.189,101.631-27.115,103.233-18.495
				c1.811,9.748,32.776,185.216,32.776,185.216l-35.552,6.881c0,0-22.937-143.356-40.713-139.342
				c-17.776,4.014-103.082,3.172-105.601,2.688c-19.88-3.823,38.612,70.536,23.703,91.752
				c-14.909,21.217-74.646,141.237-74.646,141.237l-31.538-21.79c0,0,70.531-113.803,63.077-123.419
				c-7.454-9.616-79.419-96.776-73.111-113.979s24.588-38.18,24.588-38.18"/>
			<path style="fill:#34495E;" d="M684.41,379.096c0,0,28.504-0.573,36.042,8.028c7.538,8.601,31.622,63.077,57.999,80.853
				c26.377,17.776-9.447,0.576-9.447,0.576l102.915,26.375l-8.601,25.804c0,0-83.146-12.615-98.629-28.671
				s-68.237-58.489-68.237-58.489l-57.328,179.03l-48.654,15.37l-89.419-26.961c0,0,68.101-154.824,69.248-167.439
				c1.147-12.615,10.084-75.692,10.084-75.692L684.41,379.096z"/>
			<path style="fill:#1A2530;stroke:#34495E;stroke-width:0.3823;stroke-miterlimit:10;" d="M648.285,366.481l30.965,10.322
				l-13.084,16.819l-51.569-11.258c-4.257-0.929-5.898-6.128-2.946-9.333l10.26-11.137L648.285,366.481z"/>
			<path style="fill:#FFDDCE;" d="M688.332,315.643c-4.29,0.815-30.202,53.705-32.831,66.32l-27.566-4.206l55.328-65.178
				L688.332,315.643z"/>
			<path style="fill:#8B4930;stroke:#1D1D1B;stroke-width:0.3823;stroke-miterlimit:10;" d="M720.452,305.31
				c0,0,36.209-21.975,33.342-79.318s-7.455-84.293-7.455-84.293l-18.989,26.951l-14.27-38.419l-22.937,34.979l-25.804-28.418
				l-6.308,16.376c0,0-32.112-36.699-33.258-34.405c-1.147,2.294-14.336,45.3-14.336,45.3l-30.056-18.35l38.083,77.412l98.629,9.748
				l-18.349,68.237L720.452,305.31z"/>
			<path style="fill:#E5C8BD;" d="M627.935,371.83c0,0,3.632,3.441,9.749,1.338s27.91-27.334,27.91-27.334l14.856-19.958
				c0,0-29.679,19.002-35.748,27.222C638.633,361.317,627.935,371.83,627.935,371.83z"/>
			<path style="fill:#FFDDCE;" d="M616.466,213.558c0,0-7.646,37.465-23.703,59.639s-15.292,25.232-4.588,51.993
				c0,0,0,22.173-1.529,30.584c-1.529,8.411,40.524,19.115,45.876,17.586c5.352-1.529,16.821-12.998,18.35-17.586
				c1.529-4.588,29.82-35.936,41.289-34.407c11.469,1.529,25.996-0.765,22.173-9.94s-6.117-12.998-10.704-11.469
				c0,0,24.467-49.699,23.703-71.108l-9.94-20.644l-8.411,7.646l-15.292-14.527c0,0-13.763,10.704-13.763,8.411
				s-18.35-14.527-18.35-14.527l-13.763,13.763l-12.234-9.94L616.466,213.558z"/>
			<path style="fill:none;stroke:#1D1D1B;stroke-width:0.3823;stroke-miterlimit:10;" d="M720.452,305.31"/>
			<g>
				<path style="fill:#D39484;" d="M633.949,263.265c0,0,0.09,0.191,0.105,0.623c0.005,0.412-0.031,1.021-0.168,1.773
					c-0.258,1.509-0.807,3.618-1.676,6.064c-0.43,1.225-0.921,2.544-1.517,3.908c-0.587,1.368-1.223,2.808-1.981,4.26
					c-0.769,1.458-1.563,2.933-2.709,4.434c-0.294,0.377-0.611,0.759-1.102,1.183l-0.211,0.164l-0.107,0.08l-0.027,0.02
					l-0.145,0.086l-0.035,0.019l-0.28,0.15l-0.282,0.148l-0.387,0.16c-0.258,0.101-0.55,0.216-0.786,0.292l-0.66,0.2
					c-0.445,0.139-0.854,0.236-1.283,0.355c-1.677,0.418-3.271,0.807-4.736,1.314c-1.451,0.513-2.765,1.157-3.599,2.018
					c-0.417,0.428-0.724,0.896-0.915,1.423c-0.063,0.275-0.231,0.518-0.217,0.827c-0.028,0.27-0.055,0.536-0.082,0.799
					c0.036,0.366,0.072,0.727,0.107,1.082c0.055,0.305,0.149,0.489,0.191,0.752c0.157,0.49,0.412,0.976,0.74,1.361
					c0.664,0.778,1.626,1.269,2.545,1.557c0.926,0.273,1.807,0.424,2.539,0.471c1.469,0.111,2.341,0.031,2.341,0.031
					s-0.197,0.091-0.585,0.217c-0.387,0.126-0.962,0.306-1.722,0.436c-0.758,0.14-1.706,0.243-2.824,0.138
					c-1.101-0.103-2.462-0.413-3.66-1.421c-0.598-0.504-1.101-1.136-1.501-1.906c-0.172-0.392-0.363-0.856-0.473-1.242
					c-0.077-0.349-0.154-0.703-0.233-1.062l-0.015-0.067l-0.007-0.034l-0.016-0.126l-0.001-0.021l-0.007-0.166l-0.012-0.334
					l-0.017-0.68c-0.048-0.454,0.112-0.932,0.189-1.411c0.204-0.957,0.723-1.878,1.354-2.651c1.304-1.549,3.036-2.455,4.711-3.117
					c1.687-0.67,3.418-1.091,5.047-1.519c0.394-0.105,0.818-0.202,1.188-0.313l0.565-0.164l0.415-0.141
					c0.07-0.024,0.127-0.034,0.208-0.067l0.284-0.144l0.285-0.141l0.036-0.018c0.117-0.067-0.138,0.082-0.111,0.065l0.005-0.004
					l0.019-0.016l0.042-0.029c0.154-0.122,0.406-0.37,0.633-0.651c0.94-1.139,1.827-2.527,2.654-3.84
					c1.662-2.658,3.107-5.25,4.347-7.467c1.216-2.231,2.211-4.109,2.821-5.46c0.297-0.677,0.523-1.215,0.624-1.598
					C633.962,263.497,633.949,263.265,633.949,263.265z"/>
			</g>
			<path style="fill:#D39484;" d="M641.347,329.705c-0.382,0.233-0.749,0.451-1.09,0.65c-6.881,4.014-32.274,16.198-34.981,0
				c-0.126-0.753-0.222-1.476-0.291-2.16c-1.158-11.347,4.859-13.897,4.859-13.897s29.265-18.549,41.308-8.988
				C662.599,314.397,648.664,325.205,641.347,329.705z"/>
			<g>
				<path style="fill:#D39484;" d="M661.353,255.398c0.255-0.057,0.511-0.093,0.782-0.099c0.266,0.002,0.533,0.027,0.799,0.081
					c0.529,0.111,1.039,0.33,1.503,0.624c0.46,0.299,0.876,0.67,1.238,1.091c0.18,0.212,0.346,0.436,0.5,0.671
					c0.152,0.242,0.282,0.474,0.411,0.755c0.104,0.229,0.21,0.485,0.302,0.767c0.084,0.266,0.157,0.534,0.218,0.805
					c0.121,0.542,0.195,1.089,0.239,1.633c0.085,1.089,0.061,2.164,0.023,3.206l-0.021,0.568l-0.618,0.198
					c-1.664,0.535-3.401,1.01-5.307,1.062c-0.95,0.024-1.959-0.087-2.946-0.468c-0.981-0.358-1.928-1.07-2.57-1.875
					c-0.712-0.921-1.071-1.86-1.345-2.78c-0.265-0.923-0.437-1.767-0.595-2.63c-0.312-1.75-0.546-3.57-0.395-5.501
					c0.079-0.962,0.263-1.95,0.614-2.916c0.178-0.481,0.389-0.958,0.651-1.41l0.206-0.334l0.104-0.167l0.026-0.042l0.013-0.021
					l0.065-0.089l0.049-0.063l0.389-0.509c1.461-1.729,3.255-2.676,5.098-3.268c1.836-0.588,3.673-0.829,5.464-0.917
					c0.904-0.043,1.765-0.057,2.677-0.046c0.469,0.008,0.979,0.032,1.526,0.123c0.273,0.045,0.555,0.108,0.84,0.195
					c0.158,0.049,0.25,0.078,0.465,0.164c0.114,0.051,0.159,0.062,0.343,0.153c1.167,0.571,1.923,1.364,2.55,2.188
					c0.308,0.412,0.575,0.833,0.812,1.253c0.068,0.127,0.096,0.163,0.196,0.365l0.141,0.288l0.278,0.578
					c0.814,1.817,1.234,3.597,1.432,5.469c0.177,1.853,0.108,3.728-0.282,5.538c-0.377,1.811-1.03,3.562-1.951,5.161
					c-0.465,0.797-0.964,1.571-1.573,2.272l-0.416,0.49l-0.494,0.51c-0.325,0.352-0.669,0.647-1.011,0.947
					c-1.379,1.183-2.92,2.161-4.58,2.828c-3.292,1.371-6.983,1.709-10.312,0.829c3.431,0.241,6.795-0.588,9.657-2.181
					c1.427-0.805,2.729-1.801,3.84-2.958c0.276-0.292,0.555-0.582,0.782-0.884l0.362-0.444l0.367-0.526
					c0.449-0.642,0.846-1.333,1.191-2.039c0.692-1.417,1.146-2.947,1.358-4.503c0.208-1.555,0.241-3.134,0.016-4.675
					c-0.211-1.519-0.678-3.087-1.319-4.368l-0.295-0.569l-0.145-0.286c0.008,0.009-0.078-0.137-0.112-0.198
					c-0.186-0.322-0.385-0.62-0.592-0.89c-0.399-0.536-0.909-0.963-1.29-1.138c-0.495-0.242-1.028-0.292-1.824-0.299
					c-0.798,0.002-1.647,0.026-2.45,0.076c-1.616,0.105-3.207,0.272-4.634,0.722c-0.71,0.223-1.395,0.488-1.986,0.852
					c-0.597,0.354-1.13,0.806-1.512,1.22l-0.396,0.504l-0.049,0.063c0.02-0.027-0.062,0.083,0.041-0.057l-0.008,0.013l-0.016,0.026
					l-0.066,0.105l-0.134,0.209c-0.167,0.287-0.325,0.583-0.455,0.9c-0.261,0.632-0.429,1.332-0.52,2.07
					c-0.183,1.479-0.063,3.092,0.162,4.711c0.237,1.662,0.447,3.318,1.106,4.285c0.72,1.088,1.959,1.594,3.499,1.712
					c1.522,0.109,3.167-0.153,4.793-0.517l-0.639,0.766c0.146-1.027,0.298-2.028,0.336-3.018c0.019-0.495,0.012-0.986-0.036-1.47
					c-0.025-0.242-0.06-0.481-0.105-0.72c-0.043-0.22-0.095-0.458-0.172-0.717c-0.061-0.203-0.149-0.443-0.245-0.658
					c-0.102-0.218-0.216-0.431-0.345-0.638c-0.26-0.411-0.578-0.791-0.948-1.117c-0.366-0.331-0.786-0.61-1.254-0.797
					c-0.234-0.092-0.479-0.16-0.731-0.207C661.876,255.396,661.614,255.385,661.353,255.398z"/>
			</g>
			<g>
				<path style="fill:#D39484;" d="M620.261,254.17c0.015,0.032,0.11-0.415,0.805-0.687c0.338-0.128,0.807-0.173,1.333-0.028
					c0.263,0.078,0.534,0.2,0.794,0.427c0.216,0.181,0.461,0.48,0.626,0.78c0.672,1.259,0.766,3.052,0.077,4.881
					c-0.341,0.912-0.901,1.834-1.759,2.622c-0.857,0.771-2.124,1.363-3.539,1.255c-0.145-0.013-0.255-0.007-0.43-0.036l-0.564-0.119
					c-0.355-0.107-0.686-0.213-0.998-0.386c-0.643-0.313-1.195-0.768-1.675-1.266c-0.969-1.006-1.608-2.225-2.126-3.479
					c-0.521-1.275-0.852-2.587-1.146-3.928c-0.291-1.357-0.467-2.88-0.255-4.462c0.435-3.214,2.367-6.209,5.289-7.934
					c0.723-0.44,1.518-0.777,2.345-1.027c0.232-0.061,0.362-0.115,0.68-0.18l0.533-0.104c0.4-0.057,0.942-0.135,1.344-0.132
					c1.726-0.064,3.447,0.29,5.005,0.996c1.556,0.709,2.957,1.785,4.034,3.146c1.121,1.402,1.744,2.94,2.157,4.505
					c0.198,0.802,0.341,1.496,0.429,2.373c0.047,0.716,0.129,1.377,0.098,2.217c0.019,1.612-0.229,3.047-0.525,4.503
					c-0.674,2.869-1.938,5.447-3.478,7.612c-1.537,2.175-3.422,3.892-5.34,5.159c-1.929,1.273-3.87,2.092-5.694,2.52
					c-1.822,0.454-3.548,0.334-4.81-0.107c-1.276-0.416-2.111-1.064-2.634-1.51c-0.517-0.465-0.743-0.753-0.743-0.753
					s0.276,0.246,0.853,0.603c0.577,0.349,1.486,0.781,2.691,0.997c1.203,0.226,2.687,0.094,4.27-0.493
					c0.794-0.276,1.609-0.7,2.438-1.169c0.822-0.478,1.661-1.022,2.463-1.683c1.607-1.311,3.129-2.992,4.371-4.992
					c1.228-2.009,2.145-4.338,2.649-6.812c0.197-1.227,0.359-2.56,0.287-3.764c0.016-0.569-0.096-1.315-0.174-2.015
					c-0.059-0.537-0.204-1.249-0.364-1.835c-0.168-0.61-0.377-1.198-0.64-1.744l-0.204-0.401c-0.06-0.107-0.13-0.233-0.235-0.401
					c-0.154-0.213-0.311-0.48-0.505-0.693c-0.734-0.907-1.723-1.647-2.822-2.133c-2.2-1.035-4.786-1.014-6.809,0.187
					c-2.041,1.167-3.602,3.288-3.968,5.491c-0.214,1.127-0.116,2.321,0.044,3.547c0.185,1.245,0.407,2.458,0.766,3.532
					c0.711,2.169,1.922,4.004,3.609,4.216c0.781,0.149,1.604-0.119,2.285-0.587c0.68-0.484,1.233-1.155,1.6-1.868
					c0.74-1.416,0.896-2.989,0.504-4.055c-0.396-1.128-1.454-1.416-2.09-1.292C620.458,253.785,620.267,254.199,620.261,254.17z"/>
			</g>
			<path style="fill:#FFDDCE;" d="M739.631,455.632c12.738-2.582,25.093-7.044,36.541-13.198c4.022-2.162,8.368-4.616,12.867-3.836
				c1.905,2.599-0.924,5.986-3.489,7.937c-4.855,3.692-9.711,7.384-14.566,11.076c12.19,0.895,24.264,3.349,35.836,7.283
				c1.783,0.606,3.873,1.658,3.933,3.541c0.076,2.366-2.971,3.348-5.331,3.551c-7.355,0.631-14.748,0.817-22.125,0.556
				c9.062,2.705,16.892,9.297,21.102,17.765c-7.334,0.455-14.805-2.783-19.486-8.448c6.745,4.617,11.806,11.641,14.051,19.501
				c-3.135,1.752-7.232,0.741-10.048-1.487c-2.817-2.229-4.636-5.451-6.385-8.588c-1.146,3.023,0.048,6.372,0.159,9.603
				c0.111,3.231-1.979,7.211-5.172,6.701c-3.828-0.612-3.729-6.017-4.714-9.767c-1.857-7.076-9.989-10.147-17.025-12.151
				c-6.004-1.71-12.009-3.419-18.014-5.126c-3.652-1.038-7.416-2.133-10.358-4.533c-7.017-5.722-5.93-18.547,1.95-23.007
				c3.682,0.089,7.332,1.25,10.39,3.303c0.336,0.81,0.673,1.62,1.009,2.429"/>
			<path style="fill:#343434;" d="M533.027,858.478c0,0,56.195,40.647,44.154,44.694c-12.042,4.047-63.65-12.009-66.517-15.449
				C507.796,884.282,533.027,858.478,533.027,858.478z"/>
			<polygon style="fill:#8B4930;" points="676.118,223.125 683.837,211.985 703.333,242.045 698.746,245.418 			"/>
			<polygon style="fill:#8B4930;" points="643.124,221.978 640.257,211.985 609.844,232.3 610.095,236.715 			"/>
			<path style="fill:#34495E;" d="M580.383,357.88l6.574,31.313l-1.075,56.04l154.15,4.395l-15.482,25.804l-156.253-2.389
				l-13.763-12.518c-14.696-13.318-1.961-62.172,7.868-79.397C570.523,366.896,578.944,353.802,580.383,357.88z"/>
			<path style="fill:none;stroke:#1D1D1B;stroke-width:0.3823;stroke-miterlimit:10;" d="M617.918,618.735
				c0.587,0.286,1.375,0.047,1.705-0.516"/>
			<path style="fill:#343434;" d="M745.193,773.038c0,0,66.902-20.643,65.563-10.322c-1.339,10.322-60.402,36.126-70.723,34.979
				C729.711,796.548,745.193,773.038,745.193,773.038z"/>
			<path style="fill:#FF8E6C;" d="M641.347,329.705c-0.382,0.233-0.749,0.451-1.09,0.65c-6.881,4.014-32.274,16.198-34.981,0
				c-0.126-0.753-0.222-1.476-0.291-2.16C612.674,324.876,627.469,320.755,641.347,329.705z"/>
			<path style="fill:#34495E;" d="M597.351,411.207"/>
			<polygon style="fill:#1A2530;stroke:#34495E;stroke-width:0.3823;stroke-miterlimit:10;" points="578.819,411.017 
				595.261,438.86 702.088,450.728 592.166,442.268 576.159,411.302 			"/>
			<g>
				<path style="fill:#D39484;" d="M700.538,309.615c0,0-0.064-0.066-0.183-0.19c-0.099-0.143-0.262-0.38-0.286-0.736
					c-0.068-0.713,0.376-1.708,1.289-2.483c0.479-0.39,1.017-0.712,1.707-0.927c0.658-0.214,1.616-0.285,2.404,0.261
					c0.757,0.514,1.209,1.35,1.376,2.136c0.2,0.884,0.12,1.735-0.147,2.557c-0.283,0.809-0.793,1.54-1.46,2.082
					c-0.091,0.069-0.155,0.126-0.27,0.203l-0.229,0.148c-0.198,0.115-0.386,0.207-0.565,0.285c-0.367,0.157-0.733,0.27-1.088,0.359
					c-1.424,0.34-2.662,0.347-3.626,0.653c-0.98,0.289-1.707,0.772-2.086,1.244c-0.194,0.233-0.31,0.451-0.38,0.605
					c-0.061,0.16-0.093,0.245-0.093,0.245c0.023,0.008-0.064-0.383,0.213-1.008c0.263-0.623,0.966-1.393,2.017-1.9
					c1.055-0.55,2.389-0.735,3.581-1.133c0.299-0.099,0.587-0.214,0.855-0.354c0.137-0.073,0.259-0.147,0.364-0.217l0.214-0.146
					l0.153-0.124c0.431-0.369,0.773-0.878,0.956-1.444c0.202-0.547,0.261-1.194,0.156-1.708c-0.116-0.603-0.359-1.102-0.717-1.386
					c-0.336-0.273-0.826-0.349-1.356-0.254c-0.517,0.097-1.057,0.3-1.468,0.532c-0.846,0.505-1.399,1.215-1.498,1.785
					C700.269,309.282,700.56,309.619,700.538,309.615z"/>
			</g>
			<polygon style="fill:#E5C8BD;" points="616.138,215.07 639.123,201.908 633.978,198.266 			"/>
			<polygon style="fill:#E5C8BD;" points="647.815,208.97 666.051,198.266 661.578,195.207 			"/>
			<polygon style="fill:#E5C8BD;" points="679.928,209.735 698.139,205.549 693.691,201.324 			"/>
			<polygon style="fill:#E5C8BD;" points="708.983,215.852 720.452,214.558 717.394,208.206 			"/>
		</g>
		<circle style="fill:#1D1D1B;" cx="392.169" cy="235.954" r="8.73"/>
		<circle style="fill:#1D1D1B;" cx="448.221" cy="229.271" r="6.683"/>
	</g>
	<polygon style="fill:#DF4949;" points="178.226,209.6 165.482,237.614 186.191,248.942 197.483,228.716 	"/>
	<polygon style="fill:#8B4930;stroke:#1D1D1B;stroke-width:0.1119;stroke-miterlimit:10;" points="98.994,369.105 77.915,415.444 
		112.169,434.181 130.846,400.725 	"/>
	<polygon style="fill:#0367A6;" points="847.729,309.314 826.649,355.652 860.904,374.39 879.581,340.933 	"/>
	<polygon style="fill:#95B31C;stroke:#1D1D1B;stroke-width:0.1119;stroke-miterlimit:10;" points="343.495,694.75 322.415,741.089 
		356.67,759.826 375.347,726.37 	"/>
	<polygon style="fill:#E27A3F;stroke:#1D1D1B;stroke-width:0.0797;stroke-miterlimit:10;" points="536.38,53.555 521.369,86.554 
		545.763,99.897 559.063,76.072 	"/>
	<polygon style="fill:#8B4930;stroke:#1D1D1B;stroke-width:0.0717;stroke-miterlimit:10;" points="813.67,586.284 800.157,615.988 
		822.115,627.999 834.088,606.553 	"/>
</g>
<g id="Livello_1">
</g>
</svg>
