<?xml version="1.0" encoding="utf-8"?>
<!-- Generator: Adobe Illustrator 21.1.0, SVG Export Plug-In . SVG Version: 6.00 Build 0)  -->
<svg version="1.1" id="Слой_1" xmlns="http://www.w3.org/2000/svg" xmlns:xlink="http://www.w3.org/1999/xlink" x="0px" y="0px"
	 viewBox="0 0 49.2 41" style="enable-background:new 0 0 49.2 41;" xml:space="preserve">
<style type="text/css">
	.st0{filter:url(#Adobe_OpacityMaskFilter);}
	.st1{fill:#FFFFFF;}
	.st2{mask:url(#b);fill:#B3DCFF;}
	.st3{fill:#5ECC62;}
	.st4{fill:#00AD45;}
</style>
<g>
	<g>
		<defs>
			<filter id="Adobe_OpacityMaskFilter" filterUnits="userSpaceOnUse" x="0" y="0" width="49.2" height="40.6">
				<feColorMatrix  type="matrix" values="1 0 0 0 0  0 1 0 0 0  0 0 1 0 0  0 0 0 1 0"/>
			</filter>
		</defs>
		<mask maskUnits="userSpaceOnUse" x="0" y="0" width="49.2" height="40.6" id="b">
			<g class="st0">
				<path id="a" class="st1" d="M24.6,40.6H0V0h49.2v40.6H24.6z"/>
			</g>
		</mask>
		<path class="st2" d="M24.6,0C11.4,0,1,16.7,0,30.8c4.2,7.1,14.2,9.8,24.6,9.8c10.4,0,20.4-2.7,24.6-9.8C48.2,16.7,37.8,0,24.6,0"
			/>
	</g>
	<path class="st3" d="M39.9,17.5c-2.9-3.7-6.6-7.6-8.8-7.6S23,20.4,20.3,20.4s-4.2-4.8-7.6-4.8c-4.6,0-9.1,13.5-9.1,13.5
		s1.9,8.2,21.4,8.2c19.6,0,21.1-8.1,21.1-8.1S44.1,22.8,39.9,17.5"/>
	<path class="st4" d="M20.6,24.9c-3,0-4.6-3-5.4-4.8c-0.8-1.6-0.9-4.3-3-4.3c0.2-0.1,0.4-0.1,0.6-0.1c3.4,0,4.8,4.8,7.6,4.8
		C23,20.4,29,9.9,31.2,9.9c0.4,0,0.9,0.1,1.4,0.4c-0.4,0-0.8,0-1.2,0.3C30.6,11.3,24.3,24.9,20.6,24.9"/>
</g>
</svg>
