<?xml version="1.0" encoding="iso-8859-1"?>
<!-- Generator: Adobe Illustrator 19.2.1, SVG Export Plug-In . SVG Version: 6.00 Build 0)  -->
<!DOCTYPE svg PUBLIC "-//W3C//DTD SVG 1.1//EN" "http://www.w3.org/Graphics/SVG/1.1/DTD/svg11.dtd">
<svg version="1.1" xmlns="http://www.w3.org/2000/svg" xmlns:xlink="http://www.w3.org/1999/xlink" x="0px" y="0px"
	 viewBox="0 0 965.704 953.427" style="enable-background:new 0 0 965.704 953.427;" xml:space="preserve">
<g id="December">
	<path style="fill:#34495E;" d="M965.704,471.149c0,292.371-268.01,520.528-555.746,476.917
		C135.252,906.429-51.125,631.482,12.5,360.407C139.751-181.75,965.704-85.763,965.704,471.149z"/>
	<g>
		<path style="fill:#929E1B;" d="M270.591,709.844c0,0,152.992-346.89,218.989-424.617c0,0,200.99,349.49,241.488,424.617
			C731.068,709.844,566.076,769.71,270.591,709.844z"/>
		<path style="fill:#91A51B;" d="M297.075,593.566c0,0,135.394-306.988,193.799-375.775c0,0,177.871,309.289,213.71,375.775
			C704.585,593.566,558.571,646.546,297.075,593.566z"/>
		<path style="fill:#95B31C;" d="M303.509,457.269c0,0,126.62-287.094,181.24-351.423c0,0,166.344,289.246,199.861,351.423
			C684.61,457.269,548.059,506.815,303.509,457.269z"/>
		<circle style="fill:#DF4949;" cx="522.558" cy="645.612" r="28.499"/>
		<circle style="fill:#DF4949;" cx="584.849" cy="541.8" r="10.243"/>
		<circle style="fill:#DF4949;" cx="409.743" cy="573.17" r="21.127"/>
		<circle style="fill:#DF4949;" cx="659.607" cy="696.053" r="25.003"/>
		<circle style="fill:#DF4949;" cx="380.279" cy="683.712" r="29.161"/>
		<circle style="fill:#DF4949;" cx="469.245" cy="331.887" r="10.866"/>
		<circle style="fill:#DF4949;" cx="492.762" cy="230.442" r="12.651"/>
		<circle style="fill:#DF4949;" cx="558.808" cy="337.495" r="27.469"/>
		<circle style="fill:#DF4949;" cx="551.056" cy="431.714" r="22.846"/>
		<circle style="fill:#DF4949;" cx="490.47" cy="508.918" r="10.359"/>
		<circle style="fill:#DF4949;" cx="420.609" cy="392.656" r="21.782"/>
	</g>
	<path style="fill:#FFE2C5;" d="M478.496,520.945c-2.369,0.327-4.738,0.654-7.108,0.981c-1.166,0.161-2.394,0.315-3.485-0.124
		c-1.513-0.608-2.371-2.178-3.108-3.633c-2.426-4.791-4.852-9.582-7.277-14.373c-0.99-1.954-2.404-4.188-4.594-4.207
		c-0.152,5.834,1.16,11.701,3.78,16.916c-8.328-5.549-18.967-5.85-28.974-5.966c-0.814-0.009-1.71,0.011-2.317,0.552
		c-0.87,0.776-0.65,2.28,0.144,3.134c0.794,0.854,1.966,1.223,3.082,1.558c4.831,1.45,9.662,2.9,14.492,4.35
		c-5.852-0.17-11.705-0.34-17.557-0.51c-1.572-0.046-3.604,0.242-3.951,1.775c-0.41,1.81,1.958,2.861,3.787,3.172
		c4.826,0.821,9.651,1.642,14.477,2.463c-3.225-0.197-6.469-0.083-9.672,0.341c-1.125,0.149-2.311,0.366-3.161,1.119
		c-0.85,0.753-1.162,2.22-0.349,3.012c4.33,1.142,8.813,1.704,13.291,1.668c-3.377,1.941-7.096,3.284-10.935,3.946
		c-0.001,0.811-0.002,1.623-0.003,2.434c4.673,1.937,9.988,0.76,14.898-0.453c5.734-1.417,11.465-2.85,17.195-4.284
		c6.419-1.606,12.838-3.212,19.257-4.818c-0.076-2.831-0.735-5.645-1.923-8.215"/>
	<path style="fill:#DF4949;" d="M742.914,463.566c0,0-39.055,1.699-46.215,8.668c-7.159,6.969-90.092,64.553-90.092,64.553
		s-144.26-7.634-144.26-5.778s0,19.976,0,19.976s141.473,15.332,145.654,14.635s70.533-40.101,70.112-39.564
		c-0.421,0.537,10.032-9.597,13.517,0c3.485,9.597,5.069,62.562,5.069,62.562l-8.494,68.297l-33.89,96.375
		c0,0,92.86,41.495,143.255,7.543c1.734-1.168,48.714-229.955,48.714-248.964c0-19.748-3.712-34.189-13.023-41.869
		C819.516,458.663,742.914,463.566,742.914,463.566z"/>
	<g>
		<path style="fill:#FFE2C5;" d="M799.807,404.641c-0.496,1.123-1.31,6.299-2.237,13.31c-1.058,7.965-2.265,18.28-3.313,27.677
			c-1.507,13.45-2.696,25.01-2.696,25.01l-28.997,31.178l-6.851,7.366l-3.341-31.318v-7.226l2.415-7.217l7.385-22.09
			L799.807,404.641z"/>
		<g>
			<g style="opacity:0.8;">
				<path style="fill:#3C3C3B;" d="M762.731,463.05c-0.364-0.098-0.729-0.162-1.094-0.226c0.656-0.346,1.339-0.705,2.044-1.077
					L762.731,463.05z M762.171,441.332l-7.385,22.09l-2.415,7.217v7.226l3.341,31.318l6.851-7.366
					c-2.115-8.826-3.192-17.887-3.22-26.957c-0.019-12.758,7.6-14.836,17.597-20.105c5.775-3.042,11.541-6.084,17.316-9.126
					l3.313-27.677L762.171,441.332z"/>
			</g>
		</g>
		<g>
			<path style="fill:#FFE2C5;" d="M831.474,365.421c-1.152,4.827-2.796,9.866-6.593,13.057c-3.771,3.171-10.268,3.525-13.159-0.43
				c-0.027-0.027-0.048-0.061-0.068-0.089c-0.259,22.569-9.089,44.919-24.232,61.638c-0.914,1.016-1.855,2.011-2.823,2.986
				c-5.952,6-12.907,11.277-20.987,13.753c-6.607,2.018-13.65,2.073-20.557,1.868c-9.771-0.3-19.521-1.084-29.21-2.359
				c-9.825-1.296-20.23-3.409-27.28-10.378c-10.903-10.78-9.634-28.446-7.309-43.603c0.6-3.934,1.227-7.923,0.736-11.871
				c-0.395-3.191-1.507-6.246-2.489-9.314c-7.105-22.085-7.937-46.153-2.386-68.674c-0.348,0.852-0.675,1.711-0.975,2.571
				l1.48-4.548c-0.17,0.655-0.341,1.309-0.505,1.964c7.8-19.439,24.355-35.292,44.265-41.926c21.989-7.33,47.449-3.218,66.015,10.65
				c15.478,11.571,26.176,30.567,24.478,49.815c7.793-3.532,17.387,1.957,20.987,9.716
				C834.454,348.014,833.458,357.103,831.474,365.421z"/>
		</g>
		<g>
			<path style="opacity:0.8;fill:#3C3C3B;" d="M773.131,281.569c0,0-13.104,16.611-48.307,27.261
				c-33.143,10.027-51.465,11.544-51.465,11.544l3.411-14.941L773.131,281.569z"/>
		</g>
		<g>
			<path style="opacity:0.8;fill:#3C3C3B;" d="M781.087,302.158l-5.028,11.232c0,0,19.067-13.104,31.001-7.488
				c0,0-1.656-9.788-7.263-10.276C794.191,295.138,781.087,302.158,781.087,302.158z"/>
		</g>
		<g>
			<g>
				<path style="fill:#BF7330;" d="M818.971,331.166c-0.03-0.001-0.06-0.003-0.09-0.004c-0.098,0.057-0.188,0.117-0.287,0.174
					L818.971,331.166z"/>
			</g>
			<g>
				<path style="fill:#BF7330;" d="M838.302,280.46c-0.61-14.431-13.879-19.844-14.457-22.346
					c-1.223-5.295-2.448-10.747-6.987-16.051c-8.324-9.727-21.92-14.033-34.476-16.536c-21.952-4.376-44.145-3.686-65.045,4.325
					c-9.36,3.588-17.837,10.508-25.617,15.643c-8.767,5.785-22.587,14.021-31.16,20.089c-12.244,8.666-26.451,14.54-41.239,17.052
					c9.945,7.081,22.542,10.339,34.673,8.969c-6.811,9.442-18.618,15.048-30.24,14.358c24.287,13.768,54.535,8.961,81.638,2.264
					c11.451-2.83,22.837-5.926,34.144-9.286c9.817-2.917,19.889-6.206,27.562-12.989c-3.588,6.792-8.93,12.647-15.365,16.84
					c4.589,2.358,10.277,1.62,14.904-0.663c4.627-2.283,8.414-5.93,12.12-9.519c-0.325,6.293-2.529,12.477-6.259,17.555
					c7.135-2.417,14.269-4.833,21.404-7.249c1.606-0.544,3.328-1.094,4.967-0.659c3.24,0.858,4.318,4.83,4.835,8.141
					c0.875,5.611,1.75,11.221,2.626,16.832c0.031,0.197,0.065,0.396,0.103,0.596c-1.419,4.423-3.003,8.815-4.379,13.238
					c-2.704,8.691-4.628,17.625-5.742,26.658c3.346-1.425,6.692-2.85,10.038-4.275c0.765-0.326,1.556-0.67,2.111-1.288
					c0.62-0.691,0.865-1.631,1.093-2.532c2.451-9.65,5.441-19.161,8.93-28.486c0.133,0.007,0.266,0.013,0.399,0.02
					C836.808,320.665,839.264,303.229,838.302,280.46z"/>
			</g>
		</g>
		<g>
			<g>
				<path style="fill:#F0B895;" d="M723.855,367.887c-0.029-0.179-0.059-0.359-0.088-0.538c-0.09-0.549-0.665-1.071-1.191-1.191
					c-3.803-0.867-4.003,4.436-4.667,6.984c-1.924,7.384-3.848,14.767-5.772,22.151c-0.908,3.486-4.41,10.434-2.127,13.954
					c2.48,3.823,11.014,3.397,14.814,3.308c2.19-0.051,2.198-3.46,0-3.409c-3.824,0.089-11.673,0.764-11.659-4.279
					c0.011-3.805,2.289-8.784,3.263-12.52c1.004-3.852,2.008-7.705,3.012-11.557c0.502-1.926,1.004-3.852,1.506-5.779
					c0.335-1.284,0.669-2.568,1.004-3.852c1.143-1.757,0.683-2.546-1.382-2.366C720.922,370.953,724.208,370.037,723.855,367.887
					L723.855,367.887z"/>
			</g>
		</g>
		<g>
			<g>
				<path style="fill:#F0B895;" d="M717.336,435.5c15.043,0.838,31.772,0.418,43.587-10.296
					c9.768-8.859,14.029-22.493,11.544-35.346c-0.416-2.152-3.702-1.241-3.287,0.906c2.373,12.278-2.3,25.389-12.104,33.238
					c-11.095,8.882-26.258,8.841-39.74,8.09C715.144,431.969,715.151,435.379,717.336,435.5L717.336,435.5z"/>
			</g>
		</g>
		<g>
			<path style="opacity:0.8;fill:#3C3C3B;" d="M744.446,313.39v3.744c0,0,23.624,3.667,35.515,11.896
				C779.96,329.03,759.986,310.816,744.446,313.39z"/>
		</g>
		<path style="fill:#BF7330;" d="M744.446,308.831l-1.532,5.616c0,0,24.96,0.936,41.808,20.592
			C784.721,335.039,769.378,311.639,744.446,308.831z"/>
		<g>
			<path style="opacity:0.8;fill:#3C3C3B;" d="M697.557,326.901l0.74,3.807c0,0-16.403-0.672-19.726,1.504
				C675.249,334.389,690.85,324.21,697.557,326.901z"/>
		</g>
		<path style="fill:#BF7330;" d="M696.809,320.375l1.489,7.176c0,0-15.6,1.56-23.4,7.488
			C674.898,335.039,686.273,321.623,696.809,320.375z"/>
		<path style="fill:#F0B895;" d="M820.446,351.731c-0.093,0.186-0.385,0.226-0.524,0.072c-0.608-0.643-0.813-1.639-0.507-2.469
			c0.306-0.831,1.107-1.456,1.987-1.552c1.105-0.12,2.184,0.565,2.796,1.493c0.612,0.928,0.831,2.06,0.926,3.167
			c0.104,1.214,0.06,2.499-0.543,3.558c-1.073,1.884-3.505,2.462-5.106,3.923c-1.723,1.573-2.329,4.253-1.448,6.414
			c-0.36-2.615-0.664-5.497,0.796-7.696c1.097-1.652,3.166-2.94,3.074-4.921c-0.041-0.891-0.592-1.741-1.389-2.142
			c-0.167-0.084-0.367-0.15-0.538-0.073s-0.238,0.356-0.075,0.447"/>
		<g>
			<path style="opacity:0.12;fill:#FFFFFF;" d="M741.313,283.537c11.983-1.991,22.436-13.33,21.155-25.41
				c-0.835-7.875-6.616-15.007-14.148-17.454c-8.529-2.77-18.024,0.33-25.338,5.519s-13.009,12.284-19.235,18.738
				c-12.109,12.552-26.511,22.886-42.28,30.339c15.444-3.779,31.63-7.949,43.208-18.847c4.867-4.581,10.01-10.721,16.627-9.786
				c4.828,0.682,8.449,5.513,8.519,10.389c0.07,4.876-2.92,9.472-6.993,12.153c7.552-2.419,15.103-4.838,22.655-7.258"/>
		</g>
		<path style="fill:#DF4949;" d="M740.372,515.156c0,0,13.084,19.84,32.76,5.986c0,0-2.604-24.293-7.854-23.436l-9.565,11.477
			l-0.927-11.499C754.786,497.683,743.336,497.431,740.372,515.156z"/>
		<g>
			<path style="opacity:0.23;fill:#3C3C3B;" d="M806.982,277.037c3.782,2.495,4.587,7.615,4.967,12.129
				c1.214,14.411,1.665,28.887,1.352,43.346c-0.758-4.139,2.228-7.922,4.893-11.179c6.37-7.785,12.131-16.596,13.464-26.566
				c1.334-9.97-2.868-21.254-11.977-25.522c-3.44-1.612-7.819-2.023-10.82,0.306c-3.001,2.329-3.136,7.934,0.344,9.457"/>
		</g>
		<path style="fill:#CC4444;" d="M754.786,463.421c0,0-7.926-3.547-11.872,4.877c-0.542,1.157-1.078,2.27-1.598,3.329
			c-4.415,8.985-6.901,18.794-7.286,28.797c-0.422,10.948-0.081,24.128,3.281,30.585c0,0,11.368-34.165,18.096-25.628
			L754.786,463.421z"/>
		<path style="fill:#CC4444;" d="M792.357,463.05c2.77,0.1,12.144,0.1,14.243,4.78c2.099,4.68,5.843,12.201,5.843,12.201
			l-40.888,56.757c0,0-0.987-40.617-12.108-31.621L792.357,463.05z"/>
		<path style="fill:none;" d="M721.343,733.203c0,0.468,0,0.936,0,1.404"/>
		<g>
			<path style="fill:#F0B895;" d="M740.372,353.062c0,0,0.049-0.148,0.182-0.402c0.133-0.257,0.33-0.643,0.638-1.084
				c0.306-0.444,0.694-0.985,1.21-1.543c0.258-0.279,0.548-0.56,0.853-0.868c0.311-0.298,0.674-0.562,1.041-0.867
				c0.365-0.312,0.775-0.588,1.218-0.852c0.441-0.266,0.897-0.558,1.393-0.803c1.008-0.447,2.091-0.947,3.296-1.196
				c1.184-0.371,2.46-0.431,3.756-0.532c0.647-0.03,1.294,0.042,1.947,0.09c0.647,0.076,1.32,0.07,1.943,0.25l1.886,0.48
				c0.31,0.087,0.632,0.148,0.926,0.27l0.87,0.376c0.579,0.246,1.147,0.503,1.7,0.769c0.57,0.237,1.071,0.564,1.556,0.898
				c0.969,0.662,1.936,1.26,2.728,1.962c0.778,0.722,1.491,1.421,2.128,2.075c0.658,0.633,1.151,1.317,1.578,1.927
				c0.434,0.603,0.78,1.154,1.067,1.599c0.57,0.895,0.842,1.44,0.842,1.44s-0.595-0.222-1.543-0.671
				c-0.471-0.227-1.047-0.492-1.67-0.824c-0.624-0.332-1.304-0.729-2.102-1.054c-0.777-0.355-1.596-0.751-2.437-1.187
				c-0.848-0.421-1.795-0.719-2.705-1.142c-0.901-0.467-1.908-0.656-2.864-1.023l-0.727-0.253c-0.245-0.075-0.496-0.107-0.743-0.17
				l-1.485-0.341c-0.489-0.17-0.993-0.154-1.487-0.229c-0.496-0.035-0.99-0.176-1.481-0.18c-0.979,0.018-1.962-0.104-2.904,0.026
				c-0.96,0.018-1.867,0.209-2.765,0.334c-0.448,0.068-0.862,0.212-1.289,0.296c-0.213,0.047-0.423,0.093-0.629,0.139
				c-0.201,0.064-0.397,0.126-0.59,0.188c-0.793,0.217-1.508,0.48-2.158,0.72c-0.641,0.248-1.222,0.472-1.687,0.682
				c-0.459,0.221-0.851,0.371-1.096,0.505C740.51,352.995,740.372,353.062,740.372,353.062z"/>
		</g>
		<g>
			<path style="fill:#F0B895;" d="M709.434,352.166c0,0-0.115,0.044-0.331,0.128c-0.213,0.07-0.52,0.208-0.909,0.334
				c-0.776,0.278-1.862,0.661-3.127,1.063c-1.234,0.393-2.674,0.851-4.216,1.342c-0.762,0.213-1.513,0.521-2.3,0.734
				c-0.759,0.292-1.554,0.513-2.313,0.809c-0.754,0.297-1.546,0.53-2.268,0.856c-0.365,0.158-0.734,0.303-1.106,0.436
				c-0.377,0.126-0.698,0.331-1.057,0.47c-0.352,0.15-0.69,0.313-1.043,0.445c-0.347,0.141-0.645,0.337-0.972,0.485
				c-0.635,0.319-1.292,0.577-1.825,0.917c-0.559,0.311-1.098,0.591-1.597,0.835c-0.446,0.292-0.875,0.53-1.226,0.737
				c-0.708,0.41-1.179,0.629-1.179,0.629s0.092-0.475,0.369-1.28c0.141-0.4,0.311-0.9,0.551-1.455
				c0.285-0.512,0.632-1.083,1.039-1.703c0.387-0.644,0.932-1.211,1.511-1.833c0.292-0.305,0.594-0.629,0.928-0.919
				c0.336-0.288,0.702-0.552,1.066-0.838c0.724-0.587,1.541-1.068,2.394-1.52c0.833-0.507,1.759-0.805,2.658-1.184
				c0.917-0.32,1.853-0.567,2.777-0.782c0.464-0.092,0.928-0.165,1.386-0.231c0.457-0.077,0.908-0.137,1.358-0.151
				c1.786-0.153,3.459-0.031,4.868,0.192c1.412,0.235,2.561,0.588,3.349,0.912C709.008,351.897,709.434,352.166,709.434,352.166z"/>
		</g>
	</g>
	<path style="fill:#FFFFFF;" d="M676.339,262.944c-12.639,0.69-23.737-13.246-20.236-25.41c10.137-2.147,19.819-6.047,29.245-10.35
		c18.778-8.571,37.594-19.029,58.225-19.693c10.919-0.351,21.713,2.096,32.364,4.53c17.393,3.974,35.08,8.061,50.543,16.96
		c9.757,5.615,18.976,13.955,21.107,25.009c0.427,2.214,0.409,4.855-1.323,6.299c-0.747,0.623-1.706,0.919-2.638,1.2
		c-3.648,1.101-7.296,2.203-10.944,3.304c-3.541,1.069-7.345,2.14-10.871,1.024c-2.695-0.853-4.841-2.873-7.321-4.23
		c-4.971-2.718-10.942-2.623-16.605-2.458c-27.479,0.801-54.957,1.601-82.436,2.402c-13.986,0.407-27.971,0.815-41.957,1.222"/>
	<path style="fill:#DF4949;" d="M815.882,227.637c0.031-17.413-10.746-33.45-24.639-43.948s-30.671-16.34-47.238-21.702
		c-6.783-2.195-13.756-4.361-20.879-4.047c-5.427,0.239-10.692,1.916-15.731,3.946c-17.207,6.932-32.638,18.224-44.449,32.529
		c-6.136,7.431-12.76,16.464-22.393,16.719c-2.936,0.078-5.891-0.722-8.788-0.234c-2.896,0.488-5.835,3.032-5.205,5.9
		c0.638,2.902,4.132,3.899,6.79,5.227c3.005,1.503,5.466,4.067,6.843,7.132c0.888,1.978,1.417,4.263,3.088,5.644
		c3.492,2.885,8.984-0.189,13.219,1.42c1.755,0.667,3.102,2.074,4.581,3.232c6.046,4.736,14.463,5.297,22.004,3.842
		c7.542-1.454,14.616-4.671,21.986-6.834c36.052-10.585,77.035,4.399,111.391-10.815"/>
	<path style="fill:#FFFFFF;" d="M640.14,242.564c2.045-4.471,2.736-9.552,1.959-14.407c-0.167-1.045-0.418-2.117-1.066-2.952
		c-1.144-1.473-3.29-1.92-4.35-3.455c-1.378-1.996-0.296-4.72-0.599-7.127c-0.504-4.006-4.614-6.381-8.252-8.131
		c-1.987-0.956-4.042-1.93-6.244-2.031c-3.398-0.155-6.542,1.795-9.081,4.059c-2.601,2.319-4.878,5.118-6.012,8.414
		s-0.999,7.139,0.909,10.056c-3.28,0.166-5.282,4.15-4.541,7.35c0.74,3.2,3.318,5.621,5.925,7.618
		c2.019,1.548,4.148,2.977,6.47,4.015c4.385,1.961,9.264,2.452,14.045,2.918c2.649,0.258,5.455,0.491,7.85-0.671
		c2.395-1.162,4.054-4.269,2.714-6.569"/>
	<path style="opacity:0.76;fill:#3C3C3B;" d="M329.513,494.439c0,0,22.757,23.653,27.007,27.403s14.787,12.481,15.75,17.244
		c1.5,7.423-1.949,14.084-1.949,14.084l-23.602-4.578L329.513,494.439z"/>
	<g>
		<path style="fill:#EFC94C;" d="M250.551,528.363c0,0,1.201-0.189,3.097-0.329c4.246-0.313,11.976-0.375,17.507,2.497
			c8,4.156,83.509,72.553,83.509,72.553s81.901-38.799,81.696-37.598c-0.205,1.201,4.476,9.92,4.476,9.92
			s-82.069,49.809-86.625,48.045s-74.556-44.477-74.556-44.477L250.551,528.363z"/>
		<g>
			<path style="fill:#FFE2C5;" d="M193.036,546.179c-1.263,1.354-2.483-1.252-3.652,0.184
				c-8.864-27.359-21.018-53.651-36.117-78.128l-3.212-4.857c2.384,3.483,6.487,5.445,10.615,6.327
				c4.128,0.881,8.389,0.833,12.597,1.167c4.817,0.383,9.577,1.272,14.326,2.159c0.453,0.084,0.928,0.179,1.28,0.476
				c0.385,0.325,0.553,0.832,0.712,1.31c1.159,3.499,2.701,6.87,4.591,10.034c2.66,4.453,43.153,66.56,43.153,66.56L193.036,546.179
				z"/>
			<polygon style="opacity:0.76;fill:#3C3C3B;" points="198.456,491.343 158.366,474.051 169.046,496.606 206.634,503.399 			"/>
			<path style="fill:#936037;" d="M129.673,498.136c-3.435-1.972-6.69-4.244-9.702-6.853c-6.553-5.676-11.751-12.764-16.211-20.198
				c-13.731-22.89-20.735-49.135-26.256-75.251c-3.241-15.331-6.04-31.047-4.158-46.604c2.439-20.156,12.921-39.063,28.106-52.539
				s34.865-21.574,55.06-23.658c21.163-2.184,57.576,6.213,76.28,16.352l20.08,10.886c9.026,4.893,14.448,14.526,13.949,24.781l0,0
				c-5.333,109.527-66.744,14.353-75.592,36.177c-10.651,26.27-13.261,55.419-25.373,81.048
				c-3.936,8.329-8.824,16.165-13.447,24.133c-1.107,1.908,4.999-2.883,4.746-0.691c-0.266,2.309,3.567,7.234,4.461,9.38
				c6.627,15.909,13.738,30.762,30.922,29.451c-8.813,5.542-20.001,5.485-30.31,4.036
				C150.891,506.991,139.54,503.801,129.673,498.136z"/>
			<path style="fill:#875533;" d="M260.459,345.272c3.665,3.553,7.319,7.346,9.208,12.088c2.519,6.322,1.575,13.402,1.627,20.208
				c0.08,10.442,2.65,20.857,7.436,30.139c2.191,4.248,5.061,8.46,9.393,10.479s10.385,0.957,12.511-3.323
				c1.291,5.172-1.605,10.729-5.937,13.836c-4.331,3.107-9.811,4.159-15.133,4.446c-8.884,0.48-18.044-1.027-25.731-5.505
				c-4.895-2.851-9.062-6.816-12.743-11.121c-9.742-11.395-16.385-25.677-17.447-40.631c-0.542-7.62,0.476-15.661,4.776-21.975
				c2.928-4.299,7.477-8.222,7.295-13.42c-0.116-3.322-2.246-6.249-4.701-8.489c12.054,2.541,23.388,8.413,32.417,16.794"/>
			<path style="fill:#FFE2C5;" d="M221.034,303.842c21.454,9.171,32.862,32.547,39.919,54.786c1.562,4.923,3.017,10.004,2.73,15.161
				c-0.407,7.299-4.284,14.385-3.029,21.587c0.709,4.07,2.992,7.662,4.642,11.449c5.05,11.593,4.052,25.167-0.433,36.99
				c-4.485,11.823-12.184,22.145-20.432,31.731c-2.926,3.401-5.98,6.771-9.73,9.233c-3.927,2.578-8.478,4.061-13.068,5.057
				c-25.624,5.559-54.006-4.579-70.31-25.113c-2.035-2.562-6.29-14.487-9.167-16.046c-1.966-1.065-6.878,3.596-9,2.891
				c-7.895-2.624-8.755-5.255-13.304-12.221c-3.831-5.867-7.156-12.621-6.366-19.584c0.79-6.963,7.281-13.616,14.142-12.193
				c-2.326-1.377-2.806-4.479-3.042-7.173c-0.724-8.287-1.449-16.574-2.173-24.861c-0.298-3.406-0.596-6.834-0.28-10.239
				c0.706-7.629,4.444-14.659,8.847-20.929c19.747-28.115,55.183-44.385,89.376-41.037c1.959,0.192,4.405,0.91,4.614,2.868"/>
			<g>
				<path style="fill:#F0B895;" d="M218.986,410.975c0,0,0.348,0.271,0.93,0.767c0.582,0.497,1.401,1.207,2.35,2.09
					c0.96,0.873,2.052,1.911,3.205,3.036c0.569,0.569,1.184,1.131,1.771,1.738c0.598,0.596,1.205,1.201,1.813,1.807
					c0.599,0.614,1.198,1.228,1.787,1.832c0.601,0.592,1.155,1.215,1.718,1.79c1.109,1.161,2.142,2.281,2.994,3.227
					c0.855,0.927,1.631,1.594,2.284,1.932c0.322,0.172,0.597,0.275,0.79,0.341c0.197,0.053,0.303,0.081,0.303,0.081
					s-0.11,0.012-0.316,0.035c-0.205,0.004-0.523,0.031-0.915-0.05c-0.791-0.123-1.881-0.612-2.96-1.403
					c-1.081-0.776-2.258-1.715-3.492-2.786c-0.608-0.541-1.257-1.079-1.867-1.678c-0.614-0.595-1.238-1.199-1.861-1.803
					c-0.597-0.63-1.194-1.261-1.781-1.881c-0.587-0.621-1.122-1.273-1.655-1.887c-1.052-1.243-1.984-2.446-2.742-3.511
					C219.812,412.532,218.986,410.975,218.986,410.975z"/>
			</g>
			<g>
				<path style="fill:#F0B895;" d="M235.854,434.578c0,0-0.013,0.133-0.059,0.34c-0.054,0.21-0.106,0.474-0.206,0.765
					c-0.18,0.598-0.478,1.249-0.842,1.85c-0.366,0.6-0.806,1.163-1.257,1.595c-0.212,0.219-0.428,0.402-0.588,0.534
					c-0.162,0.131-0.276,0.207-0.276,0.207s-0.271-0.466-0.308-1.147c-0.073-0.687,0.131-1.567,0.585-2.313
					c0.458-0.744,1.148-1.327,1.791-1.577C235.326,434.543,235.854,434.578,235.854,434.578z"/>
			</g>
			<path style="fill:#BC6C6F;" d="M193.06,439.995c3.78,4.43,9.12,7.502,14.85,8.542c5.762,1.046,11.671,0.075,17.283-1.736
				c1.519-0.49,3.052-1.08,4.275-2.106c1.032-0.866,2.934,0.159,3.283,2.264c0.101,0.612,0.007,1.242-0.179,1.834
				c-0.723,2.295-2.518,4.198-4.734,5.108c-1.609,0.66-3.381,0.799-5.119,0.833c-6.378,0.125-12.779-1.069-18.684-3.484
				c-5.155-2.109-10.4-5.821-11.247-11.327"/>
			<path style="fill:#BC6C6F;" d="M200.446,448.155c3.719,3.392,8.573,5.518,13.588,5.95c4.067,0.351,8.328-0.354,12.128,1.136
				c0.348,0.136,0.719,0.32,0.864,0.665c0.096,0.23,0.072,0.493,0.018,0.736c-0.363,1.64-1.952,2.781-3.595,3.132
				c-1.643,0.351-3.347,0.066-5.002-0.219c-1.681-0.289-3.362-0.579-5.044-0.868c-1.722-0.296-3.458-0.597-5.08-1.246
				c-4.743-1.897-7.817-6.426-10.6-10.71c1.5,0.579,2.846,1.553,3.865,2.797"/>
			<path style="fill:#683C11;" d="M176.974,352.905c-1.645-2.85-37.445,13.875-36.061,29.989c6.272-11.8,20.071-26.892,37.608-27.19
				"/>
			<path style="fill:#683C11;" d="M215.901,346.734c0.699-3.216,39.891,1.826,43.476,17.596
				c-9.564-9.333-27.301-19.511-44.097-14.459"/>
			<g>
				<path style="fill:#683C11;" d="M225.246,386.029c0,0,0.045-0.132,0.131-0.38c0.098-0.241,0.204-0.61,0.418-1.049
					c0.199-0.449,0.451-0.991,0.791-1.58c0.337-0.592,0.738-1.255,1.236-1.941c0.505-0.679,1.084-1.399,1.772-2.103
					c0.675-0.715,1.47-1.398,2.338-2.058c0.879-0.646,1.852-1.246,2.901-1.754c1.055-0.501,2.186-0.897,3.349-1.193
					c0.699-0.133,1.038-0.217,1.763-0.291c0.653-0.096,1.243-0.081,1.84-0.093c1.19,0.029,2.354,0.176,3.443,0.465
					c1.088,0.288,2.109,0.671,3.012,1.162c0.914,0.464,1.698,1.05,2.374,1.618c0.326,0.303,0.63,0.601,0.904,0.89
					c0.25,0.312,0.487,0.609,0.71,0.888c0.409,0.583,0.708,1.116,0.906,1.579c0.233,0.436,0.309,0.836,0.397,1.079
					c0.07,0.252,0.108,0.386,0.108,0.386s-0.106-0.093-0.304-0.266c-0.194-0.173-0.459-0.433-0.833-0.716
					c-0.35-0.304-0.828-0.604-1.332-0.957c-0.269-0.151-0.556-0.313-0.858-0.483c-0.307-0.146-0.631-0.3-0.968-0.46
					c-0.689-0.28-1.423-0.569-2.233-0.765c-0.795-0.228-1.659-0.364-2.541-0.468c-0.886-0.104-1.804-0.096-2.724-0.071
					c-0.458,0.04-0.934,0.076-1.339,0.139c-0.342,0.019-1.048,0.188-1.402,0.257c-0.922,0.215-1.824,0.519-2.711,0.849
					c-0.877,0.359-1.732,0.755-2.553,1.185c-0.807,0.452-1.602,0.895-2.324,1.383c-0.736,0.47-1.414,0.958-2.048,1.417
					c-0.63,0.479-1.207,0.918-1.718,1.307c-0.509,0.413-0.953,0.772-1.318,1.068C225.692,385.679,225.246,386.029,225.246,386.029z"
					/>
			</g>
			<g>
				<path style="fill:#683C11;" d="M165.445,396.535c0,0,0.045-0.132,0.131-0.38c0.098-0.241,0.204-0.61,0.418-1.048
					c0.199-0.449,0.451-0.991,0.791-1.58c0.337-0.592,0.738-1.255,1.236-1.941c0.505-0.679,1.084-1.4,1.772-2.103
					c0.675-0.715,1.47-1.399,2.338-2.058c0.879-0.646,1.852-1.246,2.901-1.754c1.055-0.501,2.186-0.897,3.349-1.193
					c0.699-0.132,1.038-0.217,1.763-0.291c0.653-0.096,1.243-0.081,1.84-0.093c1.19,0.03,2.354,0.177,3.443,0.465
					c1.088,0.288,2.109,0.67,3.012,1.162c0.914,0.464,1.697,1.05,2.374,1.617c0.326,0.304,0.63,0.601,0.904,0.89
					c0.25,0.312,0.487,0.609,0.71,0.888c0.409,0.584,0.708,1.116,0.906,1.579c0.233,0.436,0.309,0.836,0.397,1.079
					c0.07,0.251,0.108,0.386,0.108,0.386s-0.106-0.092-0.304-0.266c-0.194-0.173-0.459-0.433-0.833-0.716
					c-0.35-0.304-0.828-0.604-1.332-0.957c-0.269-0.151-0.556-0.313-0.858-0.483c-0.307-0.146-0.631-0.3-0.968-0.46
					c-0.689-0.28-1.423-0.569-2.233-0.765c-0.795-0.228-1.659-0.364-2.541-0.468c-0.886-0.104-1.804-0.096-2.724-0.071
					c-0.458,0.039-0.934,0.076-1.339,0.139c-0.342,0.019-1.048,0.188-1.402,0.256c-0.922,0.215-1.824,0.519-2.711,0.849
					c-0.877,0.359-1.732,0.755-2.553,1.186c-0.807,0.452-1.602,0.894-2.324,1.383c-0.736,0.47-1.414,0.958-2.048,1.417
					c-0.63,0.479-1.207,0.917-1.718,1.307c-0.509,0.413-0.953,0.772-1.318,1.068C165.892,396.186,165.445,396.535,165.445,396.535z"
					/>
			</g>
			<g>
				<path style="fill:#683C11;" d="M168.218,394.097c0,0-0.194,0.056-0.534,0.154c-0.321,0.091-0.909,0.249-1.524,0.35
					c-1.259,0.238-2.963,0.332-4.621,0.138c-1.66-0.196-3.251-0.673-4.369-1.174c-0.563-0.239-1.014-0.477-1.322-0.652
					c-0.307-0.176-0.483-0.276-0.483-0.276s0.189,0.072,0.519,0.198c0.329,0.124,0.806,0.289,1.388,0.435
					c1.157,0.316,2.744,0.529,4.309,0.47c1.567-0.061,3.087-0.389,4.164-0.774c0.559-0.188,0.927-0.353,1.267-0.506
					c0.32-0.149,0.504-0.235,0.504-0.235L168.218,394.097z"/>
			</g>
			<g>
				<path style="fill:#683C11;" d="M171.857,390.297c0,0-0.211,0.001-0.581,0.003c-0.353,0-0.968-0.007-1.614-0.069
					c-1.322-0.098-3.058-0.424-4.699-0.989c-1.643-0.567-3.174-1.365-4.237-2.076c-0.537-0.346-0.962-0.666-1.253-0.896
					c-0.29-0.23-0.455-0.362-0.455-0.362s0.183,0.106,0.503,0.291c0.32,0.183,0.783,0.434,1.356,0.693
					c1.137,0.538,2.723,1.081,4.343,1.383c1.622,0.3,3.259,0.358,4.466,0.269c0.619-0.036,1.058-0.097,1.44-0.152
					c0.366-0.057,0.574-0.088,0.574-0.088L171.857,390.297z"/>
			</g>
			<g>
				<path style="fill:#683C11;" d="M250.902,377.604c0,0,0.183,0.085,0.504,0.235c0.339,0.154,0.708,0.319,1.267,0.506
					c1.077,0.385,2.597,0.713,4.164,0.774c1.564,0.059,3.152-0.154,4.309-0.47c0.582-0.146,1.058-0.311,1.388-0.435
					c0.33-0.126,0.519-0.198,0.519-0.198s-0.176,0.101-0.483,0.276c-0.308,0.174-0.758,0.413-1.322,0.652
					c-1.118,0.5-2.709,0.978-4.369,1.173c-1.658,0.195-3.362,0.101-4.621-0.138c-0.615-0.101-1.203-0.259-1.524-0.35
					c-0.34-0.099-0.534-0.154-0.534-0.154L250.902,377.604z"/>
			</g>
			<g>
				<path style="fill:#683C11;" d="M246.717,374.684c0,0,0.209,0.032,0.574,0.088c0.382,0.055,0.821,0.117,1.44,0.152
					c1.207,0.089,2.843,0.032,4.466-0.269c1.62-0.302,3.206-0.845,4.343-1.383c0.573-0.259,1.037-0.51,1.356-0.693
					c0.32-0.185,0.503-0.291,0.503-0.291s-0.165,0.132-0.455,0.362c-0.291,0.229-0.716,0.549-1.253,0.896
					c-1.063,0.71-2.594,1.509-4.237,2.076c-1.641,0.565-3.377,0.891-4.699,0.989c-0.645,0.062-1.26,0.068-1.614,0.069
					c-0.37-0.002-0.581-0.003-0.581-0.003L246.717,374.684z"/>
			</g>
			<path style="fill:#875533;" d="M107.488,328.841c26.503,23.015,62.343,17.446,95.416,24.114
				c37.598,7.58,68.917,41.298,102.917,39.682c-43.829-16.462-5.122-96.683-73.028-103.253
				C193.956,285.627,132.922,322.142,107.488,328.841"/>
			<path style="fill:#936037;" d="M135.463,463.222c10.759,7.062,25.709,7.077,36.482,0.036c2.433-1.59,4.846-3.874,4.904-6.78
				c-0.503,4.418,0.692,8.981-0.388,13.294c-0.857,3.422-3.058,6.326-5.207,9.124c-4.253,5.538-8.876,11.352-15.462,13.67
				c-6.218,2.189-13.292,0.79-19.006-2.498s-10.245-8.29-14.221-13.549c-2.556-3.381-4.945-6.938-6.503-10.88
				c-3.061-7.744-2.71-16.357-2.313-24.675C117.955,447.251,128.899,459.462,135.463,463.222"/>
			<g>
				<path style="fill:#F0B895;" d="M121.992,425.671c0,0-0.274-0.303-0.671-0.916c-0.189-0.311-0.42-0.704-0.574-1.224
					c-0.078-0.244-0.141-0.575-0.162-0.863c-0.02-0.346,0.017-0.675,0.107-1.037c0.097-0.354,0.25-0.726,0.511-1.074
					c0.245-0.346,0.672-0.666,1.083-0.832c0.999-0.391,2.024-0.184,2.854,0.292c0.226,0.136,0.373,0.222,0.64,0.449
					c0.148,0.138,0.275,0.232,0.443,0.409c0.368,0.395,0.652,0.78,0.859,1.209c0.438,0.853,0.663,1.775,0.761,2.66
					c0.076,0.891,0.039,1.753-0.032,2.578c-0.059,0.821-0.233,1.623-0.346,2.344c-0.24,1.418-0.356,2.749-0.275,3.867
					c0.084,1.118,0.406,2.005,0.773,2.579c0.192,0.274,0.35,0.507,0.487,0.635c0.131,0.14,0.201,0.215,0.201,0.215
					c0.013-0.02-0.402-0.107-1.005-0.559c-0.283-0.238-0.639-0.555-0.919-1.009c-0.293-0.443-0.576-0.991-0.753-1.618
					c-0.392-1.25-0.505-2.763-0.398-4.334c0.05-0.737,0.102-1.499,0.155-2.273c0.043-0.751,0.043-1.501-0.036-2.211
					c-0.055-0.712-0.21-1.379-0.477-1.944c-0.13-0.287-0.306-0.545-0.435-0.744c-0.083-0.118-0.25-0.277-0.369-0.412
					c-0.019-0.026-0.18-0.165-0.272-0.229c-0.438-0.314-0.968-0.459-1.295-0.4c-0.429,0.082-0.758,0.39-0.994,0.819
					c-0.111,0.207-0.181,0.451-0.231,0.653c-0.051,0.261-0.067,0.453-0.064,0.69c0.013,0.446,0.082,0.86,0.158,1.198
					C121.873,425.272,121.992,425.671,121.992,425.671z"/>
			</g>
		</g>
		<path style="fill:#FFFFFF;" d="M244.523,318.678c12.091,0.66,22.707-12.671,19.358-24.307c-9.697-2.054-18.959-5.785-27.976-9.9
			c-17.963-8.199-35.963-18.203-55.699-18.838c-10.446-0.336-20.771,2.005-30.96,4.333c-16.638,3.801-33.558,7.711-48.35,16.224
			c-9.334,5.371-18.152,13.349-20.192,23.923c-0.408,2.118-0.391,4.644,1.265,6.026c0.715,0.596,1.632,0.879,2.523,1.148
			c3.49,1.054,6.98,2.107,10.469,3.161c3.387,1.023,7.026,2.047,10.4,0.98c2.578-0.816,4.631-2.749,7.004-4.046
			c4.755-2.6,10.467-2.509,15.884-2.351c26.286,0.766,52.572,1.532,78.858,2.298c13.379,0.39,26.758,0.78,40.136,1.169"/>
		<path style="fill:#DF4949;" d="M111.036,284.904c-0.029-16.658,10.28-31.998,23.57-42.041c13.29-10.042,29.34-15.631,45.188-20.76
			c6.488-2.1,13.159-4.172,19.972-3.872c5.192,0.229,10.228,1.832,15.049,3.774c16.461,6.631,31.221,17.433,42.52,31.117
			c5.87,7.109,12.206,15.75,21.422,15.994c2.809,0.074,5.636-0.691,8.406-0.224c2.771,0.467,5.582,2.9,4.979,5.644
			c-0.61,2.776-3.953,3.729-6.495,5c-2.875,1.437-5.229,3.891-6.546,6.823c-0.85,1.892-1.355,4.078-2.954,5.399
			c-3.341,2.76-8.594-0.181-12.645,1.358c-1.679,0.638-2.968,1.984-4.382,3.092c-5.784,4.531-13.835,5.067-21.049,3.675
			c-7.214-1.391-13.982-4.468-21.032-6.538c-34.488-10.125-73.692,4.208-106.557-10.346"/>
		<path style="fill:#FFFFFF;" d="M279.151,299.183c-1.956-4.277-2.617-9.137-1.874-13.782c0.16-0.999,0.4-2.025,1.02-2.824
			c1.094-1.409,3.148-1.837,4.161-3.306c1.318-1.909,0.284-4.515,0.573-6.817c0.482-3.832,4.414-6.104,7.894-7.779
			c1.9-0.915,3.867-1.846,5.973-1.943c3.251-0.149,6.258,1.717,8.687,3.883c2.489,2.219,4.667,4.896,5.751,8.049
			c1.085,3.153,0.955,6.829-0.869,9.62c3.138,0.158,5.052,3.97,4.344,7.031s-3.174,5.377-5.668,7.288
			c-1.932,1.48-3.968,2.847-6.19,3.841c-4.195,1.876-8.862,2.346-13.436,2.792c-2.534,0.247-5.218,0.469-7.509-0.642
			c-2.291-1.111-3.878-4.083-2.597-6.284"/>
		<path style="fill:#EFC94C;" d="M188.407,543.417l42.211,4.296l-7.109-17.182c0,0,25.104-1.659,27.041-2.168
			c1.937-0.509,16.303,23.049,16.303,23.049s23.635,21.611,23.635,28.693s0,11.507,0,23.628c0,12.121-6,33.454,7.333,60.121
			s26.667,102,26.667,102l-87.16,11.333c0,0-20.549-142.805-30.695-153.736c-10.146-10.931-16.713-26.84-16.713-26.84
			s-4.766-4.963-4.766,6.473l-26.789-32.376C158.366,570.708,170.326,546.314,188.407,543.417z"/>
		<path style="fill:#FFE2C5;" d="M202.779,793.738c-0.848,2.777,0.729,5.835,3.037,7.598c2.307,1.763,5.208,2.515,8.023,3.227
			c3.973,1.004,7.946,2.009,11.92,3.013c1.252,0.316,2.545,0.653,3.555,1.458c1.01,0.805,1.657,2.216,1.181,3.416
			c-5.925,2.48-12.197-5.08-18.426-3.514c1.054,2.146,2.107,4.292,3.161,6.437c4.025,8.196,8.119,16.635,8.883,25.733
			c-2.526,1.009-4.861-1.896-5.678-4.49c-1.8-5.716-1.741-12.701-6.471-16.381c1.291,8.063,2.582,16.125,3.873,24.188
			c-0.728,0.79-2.116,0.551-2.878-0.206c-0.763-0.757-1.061-1.851-1.33-2.892c-1.47-5.691-2.941-11.382-4.411-17.074
			c0.423,5.647,0.845,11.295,1.268,16.942c-1.068,0.368-2.243-0.453-2.705-1.484c-0.462-1.031-0.412-2.206-0.424-3.336
			c-0.041-3.87-0.924-7.729-2.571-11.232c-0.09,4.156-0.18,8.313-0.27,12.469c-1.067,0.009-2.134,0.018-3.201,0.028
			c-1.456-13.511-2.913-27.023-4.369-40.534c-0.024-0.223-0.042-0.469,0.092-0.648c0.163-0.219,0.476-0.243,0.749-0.247
			c2.775-0.046,5.549-0.092,8.324-0.138"/>
		<path style="fill:#EFC94C;" d="M185.155,603.084c0,0-10.934,73.436-13.376,76.103c-2.442,2.667,41.012,121.738,41.012,121.738
			l-18.954,4.929c0,0-41.549-120-43.782-125.333c-2.233-5.333,8.311-109.812,8.311-109.812L185.155,603.084z"/>
	</g>
	<g>
		<polygon style="fill:#FFFFFF;" points="421.577,509.822 425.077,591.822 492.577,615.322 500.577,524.492 		"/>
		<polygon style="fill:#F2F2F2;" points="500.577,524.492 575.577,493.357 569.577,580.357 492.577,615.322 		"/>
		<path style="fill:#E7E2DA;" d="M421.577,509.822c3.5-1.966,71-36.466,71-36.466l83,20l-75,31.136L421.577,509.822z"/>
		<polygon style="fill:#DF4949;" points="461.077,561.275 463.746,566.683 469.714,567.55 465.395,571.76 466.415,577.704 
			461.077,574.898 455.739,577.704 456.758,571.76 452.439,567.55 458.408,566.683 		"/>
		<polygon style="fill:#DF4949;" points="434.077,519.6 435.514,522.514 438.729,522.981 436.403,525.248 436.952,528.45 
			434.077,526.939 431.201,528.45 431.75,525.248 429.424,522.981 432.639,522.514 		"/>
		<polygon style="fill:#DF4949;" points="436.577,559.122 437.209,560.404 438.624,560.61 437.6,561.608 437.842,563.017 
			436.577,562.351 435.311,563.017 435.553,561.608 434.529,560.61 435.944,560.404 		"/>
		<polygon style="fill:#DF4949;" points="476.077,536.528 476.908,538.213 478.767,538.483 477.422,539.794 477.739,541.645 
			476.077,540.771 474.414,541.645 474.732,539.794 473.387,538.483 475.245,538.213 		"/>
		<polygon style="fill:#DF4949;" points="473.387,592.502 475.082,595.938 478.874,596.489 476.13,599.164 476.778,602.94 
			473.387,601.157 469.995,602.94 470.643,599.164 467.899,596.489 471.691,595.938 		"/>
		<polygon style="fill:#DF4949;" points="516.935,545.38 520.386,552.487 528.315,550.959 522.306,559.204 523.261,567.135 
			516.319,565.947 508.841,572.865 510.402,563.646 504.136,559.552 512.9,555.119 		"/>
		<polygon style="fill:#DF4949;" points="539.285,518.665 541.742,523.725 547.389,522.637 543.109,528.508 543.79,534.156 
			538.846,533.31 533.521,538.236 534.633,531.671 530.171,528.756 536.411,525.6 		"/>
		<polygon style="fill:#DF4949;" points="554.726,537.113 555.906,539.543 558.617,539.021 556.562,541.84 556.889,544.551 
			554.516,544.145 551.959,546.51 552.493,543.358 550.35,541.958 553.347,540.443 		"/>
		<polygon style="fill:#DF4949;" points="549.732,562.572 551.632,566.485 555.997,565.644 552.689,570.183 553.215,574.55 
			549.393,573.896 545.276,577.704 546.136,572.629 542.685,570.375 547.51,567.934 		"/>
		<polygon style="fill:#DF4949;" points="526.424,577.704 527.95,580.846 531.456,580.171 528.799,583.817 529.221,587.323 
			526.152,586.798 522.845,589.857 523.536,585.781 520.765,583.97 524.64,582.01 		"/>
		<polygon style="fill:#F5E283;" points="448.577,600.272 444.714,514.119 469.714,518.761 461.077,604.356 		"/>
		<polygon style="fill:#D8B45E;" points="528.315,599.094 525.565,514.119 549.341,504.248 542.685,592.502 		"/>
		<polygon style="fill:#D8B45E;" points="444.714,514.119 509.555,477.448 537.453,484.17 469.714,518.761 		"/>
		<polygon style="fill:#D8B45E;" points="525.565,514.119 453.503,493.357 475.701,481.988 549.341,504.248 		"/>
		<path style="fill:#CCA65A;" d="M485.577,438.357c-11-0.5-45,23.5-51.047,29.5s58.047,36.392,58.047,36.392l20.733-10.892
			C513.31,493.357,496.577,438.857,485.577,438.357z M461.077,468.857c6-4,27-8.573,27-8.573l20.78,35.413l-10.28,3.228
			C498.577,498.925,455.077,472.857,461.077,468.857z"/>
		<path style="fill:#CCA65A;" d="M478.767,493.357l20.733,10.892c0,0,64.095-30.392,58.047-36.392s-40.047-30-51.047-29.5
			S478.767,493.357,478.767,493.357z M493.5,498.925l-10.28-3.228L504,460.284c0,0,21,4.573,27,8.573S493.5,498.925,493.5,498.925z"
			/>
		<polygon style="fill:#DF4949;" points="496.205,510.715 497.538,513.027 500.83,513.762 498.564,515.704 499.497,519.892 
			495.476,517.604 490.329,519.892 492.552,515.296 490.164,512.663 494.339,512.677 		"/>
		<polygon style="fill:#DF4949;" points="445.068,502.876 445.734,504.032 447.38,504.4 446.247,505.37 446.714,507.464 
			444.704,506.32 442.13,507.464 443.241,505.166 442.047,503.85 444.135,503.857 		"/>
		<polygon style="fill:#DF4949;" points="541.8,488.768 542.467,489.924 544.113,490.292 542.98,491.263 543.446,493.357 
			541.436,492.213 538.863,493.357 539.974,491.059 538.78,489.742 540.867,489.749 		"/>
		<polygon style="fill:#DF4949;" points="558.971,492.474 559.637,493.63 561.283,493.998 560.151,494.969 560.617,497.063 
			558.607,495.919 556.033,497.063 557.145,494.765 555.95,493.448 558.038,493.455 		"/>
	</g>
	<path style="fill:#FFE2C5;" d="M537.675,597.524c-2.477,0.342-4.953,0.683-7.43,1.025c-1.218,0.168-2.502,0.329-3.643-0.13
		c-1.582-0.636-2.478-2.277-3.249-3.798c-2.536-5.008-5.072-10.017-7.607-15.025c-1.034-2.043-2.513-4.378-4.802-4.397
		c-0.158,6.099,1.212,12.232,3.952,17.683c-8.706-5.8-19.828-6.116-30.288-6.237c-0.851-0.01-1.788,0.011-2.422,0.577
		c-0.909,0.812-0.68,2.384,0.15,3.276c0.83,0.893,2.055,1.278,3.222,1.628c5.05,1.516,10.1,3.032,15.15,4.548
		c-6.118-0.178-12.236-0.355-18.354-0.533c-1.643-0.048-3.767,0.253-4.13,1.856c-0.428,1.892,2.047,2.991,3.959,3.316
		c5.045,0.858,10.089,1.717,15.134,2.575c-3.371-0.206-6.762-0.087-10.111,0.357c-1.176,0.156-2.416,0.383-3.304,1.17
		c-0.888,0.787-1.215,2.321-0.365,3.148c4.527,1.194,9.213,1.782,13.894,1.743c-3.53,2.03-7.418,3.433-11.431,4.125
		c-0.001,0.848-0.002,1.697-0.003,2.545c4.885,2.024,10.441,0.794,15.574-0.474c5.994-1.481,11.985-2.98,17.975-4.478
		c6.71-1.679,13.42-3.357,20.13-5.036c-0.079-2.959-0.768-5.901-2.01-8.588"/>
	<path style="fill:#CC4444;" d="M837.567,474.55l-75.929,116.159H529.947v21.604c0,0,239.16,17.423,245.024,13.241
		c5.864-4.182,68.902-99.498,68.902-99.498l1.221-12.987c0.61-6.495,1.115-16.845-0.891-23.052L837.567,474.55z"/>
	<polygon style="fill:#F2CC05;" points="380.279,43.471 384.942,52.919 395.368,54.434 387.823,61.788 389.605,72.173 
		380.279,67.27 370.953,72.173 372.734,61.788 365.189,54.434 375.616,52.919 	"/>
	<polygon style="fill:#F2CC05;" points="626.473,122.982 614.159,123.506 607.609,133.947 603.306,122.397 591.352,119.394 
		601.006,111.732 600.168,99.436 610.438,106.25 621.874,101.653 618.567,113.526 	"/>
	<polygon style="fill:#F2CC05;" points="467.899,871.444 459.585,868.883 452.762,874.281 452.628,865.582 445.386,860.76 
		453.618,857.945 455.966,849.568 461.187,856.527 469.88,856.171 464.875,863.287 	"/>
	<polygon style="fill:#F2CC05;" points="602.707,861.924 599.075,854.566 590.955,853.386 596.831,847.659 595.444,839.572 
		602.707,843.39 609.97,839.572 608.583,847.659 614.458,853.386 606.338,854.566 	"/>
	<polygon style="fill:#F2CC05;" points="44.024,446.732 35.985,441.698 27.282,445.466 29.585,436.266 23.312,429.153 32.774,428.5 
		37.601,420.336 41.145,429.133 50.401,431.201 43.13,437.29 	"/>
	<polygon style="fill:#F2CC05;" points="250.551,175.479 246.458,173.056 242.141,175.055 243.181,170.413 239.946,166.925 
		244.682,166.48 246.999,162.326 248.887,166.692 253.553,167.613 249.984,170.757 	"/>
	<polygon style="fill:#F2CC05;" points="895.981,467.293 886.776,466.646 881.024,473.862 878.795,464.907 870.154,461.667 
		877.982,456.779 878.394,447.56 885.461,453.495 894.356,451.038 890.895,459.593 	"/>
	<polygon style="fill:#F2CC05;" points="895.981,329.482 893.494,324.444 887.934,323.636 891.958,319.714 891.008,314.176 
		895.981,316.791 900.954,314.176 900.004,319.714 904.028,323.636 898.468,324.444 	"/>
	<polygon style="fill:#F2CC05;" points="856.983,688.281 851.527,690.974 850.652,696.995 846.404,692.638 840.407,693.667 
		843.239,688.281 840.407,682.895 846.404,683.924 850.652,679.567 851.527,685.588 	"/>
</g>
<g id="Livello_1">
</g>
</svg>
