<?xml version="1.0" encoding="iso-8859-1"?>
<!-- Generator: Adobe Illustrator 19.2.1, SVG Export Plug-In . SVG Version: 6.00 Build 0)  -->
<!DOCTYPE svg PUBLIC "-//W3C//DTD SVG 1.1//EN" "http://www.w3.org/Graphics/SVG/1.1/DTD/svg11.dtd">
<svg version="1.1" xmlns="http://www.w3.org/2000/svg" xmlns:xlink="http://www.w3.org/1999/xlink" x="0px" y="0px"
	 viewBox="0 0 965.704 953.427" style="enable-background:new 0 0 965.704 953.427;" xml:space="preserve">
<g id="October">
	<path style="fill:#1A2530;" d="M965.704,471.149c0,292.371-268.01,520.528-555.746,476.917
		C135.252,906.429-51.125,631.482,12.5,360.407C139.751-181.75,965.704-85.763,965.704,471.149z"/>
	<g>
		<path style="fill:#95C11F;" d="M492.095,210.032c0,0-12.5-103.5-29-107l-8,2.5c0,0,22,1.5,29,98.5L492.095,210.032z"/>
		<polygon style="fill:#FFE2C5;" points="474.761,316.056 474.761,356.723 495.595,364.532 509.428,353.389 499.428,312.056 		"/>
		<path style="fill:#FDAE3F;" d="M421.038,166.587c-15.181-1.383-30.251,6.302-40.353,17.719s-15.754,26.159-18.963,41.061
			c-4.081,18.956-4.451,39.039,1.56,57.474c6.01,18.435,18.866,35.053,36.437,43.253c17.571,8.2,39.83,6.925,54.979-5.178
			c8.514,9.621,21.873,14.718,34.631,13.214s24.565-9.57,30.607-20.907c13.358,10.902,33.405,11.793,48.703,3.839
			c15.299-7.953,25.769-23.699,29.321-40.572c3.552-16.873,2.285-29.771,0.889-46.957c-1.872-23.034-15.496-48.469-34.087-60.583
			c-6.986-4.552-14.682-8.378-22.967-9.319s-26.045,7.955-31.662,14.117c-7.586-9.652-26.219-15.092-38.444-13.972
			c-12.225,1.12-23.659,8.765-29.364,19.634C434.574,171.42,427.649,166.516,421.038,166.587"/>
		<polygon style="fill:#C68334;" points="555.095,233.032 492.095,233.032 532.765,194.932 539.595,188.532 		"/>
		<path style="fill:#C68334;" d="M458.38,235.997l-53.786-42.965c0,0-13.5,48-11.5,48S458.38,235.997,458.38,235.997z"/>
		<polygon style="fill:#B27130;" points="555.095,233.032 546.265,233.032 532.765,194.932 539.595,188.532 		"/>
		<polygon style="fill:#B27130;" points="409.089,196.622 400.761,241.032 393.095,241.032 404.595,193.032 		"/>
		<polygon style="fill:#C68334;" points="413.428,276.865 448.761,267.532 465.428,276.865 496.761,267.532 514.095,276.865 
			526.761,267.532 543.93,281.199 523.595,294.865 518.761,288.865 482.761,301.532 473.595,290.865 425.636,305.532 		"/>
		<path style="fill:#DF4949;" d="M564.726,827.3c-18.056,1.916-36.082,4.11-54.071,6.581c-2.299,0.316-4.967,0.897-5.938,3.005
			c-0.855,1.857,0.131,4.155,1.752,5.402c1.621,1.247,3.714,1.672,5.738,1.966c17.625,2.562,35.407-2.137,52.597-6.794
			c6.082-1.648,12.826-3.804,15.769-9.375c0.735-1.392,1.152-3.171,0.288-4.487c-0.572-0.871-1.583-1.341-2.573-1.665
			c-6.637-2.171-14.599,0.93-18.019,7.019"/>
		<path style="fill:#DF4949;" d="M471.425,833.667c-16.108-0.116-32.23,1.829-47.848,5.772c-1.827,0.461-3.942,1.229-4.424,3.051
			c-0.389,1.471,0.562,3.032,1.853,3.838c1.291,0.805,2.85,1.026,4.358,1.23c4.306,0.58,8.611,1.16,12.917,1.74
			c4.299,0.579,8.618,1.159,12.956,1.093c6.181-0.094,12.258-1.498,18.28-2.894c5.263-1.22,10.527-2.441,15.79-3.661
			c4.188-0.971,9.287-2.961,9.523-7.253c0.05-0.906-0.19-1.888-0.883-2.474c-0.528-0.446-1.236-0.602-1.914-0.731
			c-7.474-1.419-15.227-1.347-22.673,0.211"/>
		<polygon style="fill:#B27130;" points="417.545,286.532 446.761,276.199 465.428,286.532 498.761,276.199 513.428,286.532 
			526.761,276.199 538.062,285.142 543.93,281.199 526.761,267.532 514.095,276.865 496.761,267.532 465.428,276.865 
			448.761,267.532 413.428,276.865 		"/>
		<path style="fill:#34495E;" d="M472.651,554.199l-24.389,124c0,0,12.055,156.667,12.194,158
			c0.139,1.333,40.161-3.333,40.161-3.333l-18.022-153.333c0,0,32.333-81.333,34.167-81.333s9.17,0.667,9.17,0.667l0.779,94.667
			l21.551,136l41-8l-34.168-126l30.168-152.667C585.263,542.865,487.373,531.532,472.651,554.199z"/>
		<path style="fill:#FFE2C5;" d="M817.754,333.896c-5.723-0.03-11.441,1.794-16.089,5.133c-3.35,2.407-6.935,5.779-10.935,4.773
			c6.593-3.968,13.404-8.147,18.073-14.167c0.695-0.895-0.09-2.175-1.198-1.934c-8.591,1.871-16.847,5.276-24.254,10.014
			c-4.848,3.101-9.977,6.943-15.688,6.235c3.786-4.984,6.68-10.64,8.526-16.62c0.678-2.197-1.626-4.072-3.643-2.969
			c-5.258,2.876-6.582,8.474-9.026,13.953c-1.94,4.349-5.741,8.182-8.066,12.338c-1.162,2.078-2.905,3.993-4.934,5.24
			l-140.925,35.638l-86-38.667v24l80,34l151.501-44.44c3.59,0.014,7.169-0.176,10.671-0.929c4.341-0.933,31.936,0.565,45.838-2.025
			c1.468-0.273,3.015-0.672,4.073-1.725c0.248-0.247,0.548,0.541,0.539-0.252c-0.029-2.319-2.029-4.13-4.347-4.048
			c-4.603,0.163-9.206,0.325-13.809,0.487c4.747-1.967,9.494-5.934,14.241-7.901c1.753-0.726,3.805-3.816,2.386-5.075
			c-5.565,0.742-12.1,3.711-17.586,4.903c5.803-3.35,12.607-8.7,18.41-12.05C816.978,336.964,818.67,335.319,817.754,333.896z"/>
		<path style="fill:#FFE2C5;" d="M179.436,344.249c5.723-0.03,11.441,1.794,16.089,5.133c3.35,2.407,6.935,5.779,10.935,4.773
			c-6.593-3.968-13.404-8.147-18.073-14.167c-0.695-0.895,0.09-2.175,1.198-1.934c8.591,1.871,16.847,5.276,24.254,10.014
			c4.848,3.101,9.977,6.943,15.688,6.235c-3.786-4.984-6.68-10.64-8.526-16.62c-0.678-2.197,1.626-4.072,3.643-2.969
			c5.258,2.876,6.582,8.474,9.026,13.953c1.94,4.349,5.741,8.182,8.066,12.338c1.162,2.078,2.905,3.993,4.934,5.24l140.925,35.638
			l86-38.667v24l-80,34l-151.501-44.44c-3.59,0.014-7.169-0.176-10.671-0.929c-4.341-0.933-31.936,0.565-45.838-2.025
			c-1.468-0.273-3.015-0.672-4.073-1.725c-0.248-0.247-0.548,0.541-0.539-0.252c0.029-2.319,2.029-4.13,4.347-4.048
			c4.603,0.163,9.206,0.325,13.809,0.487c-4.747-1.967-9.494-5.934-14.241-7.901c-1.753-0.726-3.805-3.816-2.386-5.075
			c5.565,0.742,12.1,3.711,17.586,4.903c-5.803-3.35-12.607-8.7-18.41-12.049C180.211,347.316,178.519,345.672,179.436,344.249z"/>
		<path style="fill:#DF4949;" d="M473.595,351.532l-47.958,16l5.314,46.63l16.904-8.051c0,0,37.574,120.754,11.574,171.421
			c0,0,116.562,8.42,126.667,0c1.518-1.265,5.318-41.449-4-83.333c-9.1-40.904-28.138-97.545-28.138-97.545l17.825,5.904
			l6.313-45.835l-70.729-11.858l-12.771,15.168L473.595,351.532z"/>
	</g>
</g>
<g id="Livello_1">
</g>
</svg>
