<?xml version="1.0" encoding="iso-8859-1"?>
<!-- Generator: Adobe Illustrator 19.2.1, SVG Export Plug-In . SVG Version: 6.00 Build 0)  -->
<!DOCTYPE svg PUBLIC "-//W3C//DTD SVG 1.1//EN" "http://www.w3.org/Graphics/SVG/1.1/DTD/svg11.dtd">
<svg version="1.1" xmlns="http://www.w3.org/2000/svg" xmlns:xlink="http://www.w3.org/1999/xlink" x="0px" y="0px"
	 viewBox="0 0 965.96 965.954" style="enable-background:new 0 0 965.96 965.954;" xml:space="preserve">
<g id="August">
	<g>
		<path style="fill:#BDF3FF;" d="M965.96,482.98c0,262.376-220.279,484.03-482.98,482.97C219.622,964.888,0,747.089,0,482.98
			C0,216.24,216.24,0,482.98,0S965.96,216.24,965.96,482.98z"/>
		<polygon style="fill:#FFFFFF;" points="482.98,31.736 615.624,300.502 912.226,343.601 697.603,552.806 748.268,848.209 
			482.98,708.739 217.692,848.209 268.357,552.806 53.734,343.601 350.336,300.502 		"/>
	</g>
	<g>
		<g>
			<path style="fill:#A6633C;" d="M575.126,273.556c-0.591,1.339-1.562,7.51-2.667,15.869c-1.261,9.497-2.701,21.795-3.95,32.999
				c-1.797,16.036-3.214,29.819-3.214,29.819l-34.573,37.173l-8.169,8.783l-3.984-37.34v-8.615l2.879-8.604l8.805-26.337
				L575.126,273.556z"/>
			<g>
				<g style="opacity:0.8;">
					<path style="fill:#3C3C3B;" d="M530.921,343.196c-0.434-0.117-0.869-0.193-1.304-0.27c0.782-0.412,1.596-0.841,2.437-1.285
						L530.921,343.196z M530.252,317.302l-8.805,26.337l-2.879,8.604v8.615l3.984,37.34l8.169-8.783
						c-2.522-10.524-3.805-21.326-3.839-32.14c-0.022-15.211,9.062-17.688,20.98-23.971c6.885-3.627,13.76-7.254,20.645-10.881
						l3.95-32.999L530.252,317.302z"/>
				</g>
			</g>
			<g>
				<path style="fill:#A6633C;" d="M612.881,226.795c-1.374,5.756-3.333,11.763-7.861,15.568c-4.495,3.78-12.243,4.203-15.69-0.512
					c-0.033-0.033-0.057-0.073-0.081-0.106c-0.309,26.908-10.836,53.556-28.892,73.49c-1.089,1.211-2.211,2.398-3.366,3.561
					c-7.097,7.154-15.389,13.446-25.022,16.397c-7.877,2.406-16.275,2.471-24.51,2.227c-11.649-0.358-23.274-1.293-34.826-2.813
					c-11.714-1.545-24.12-4.065-32.526-12.373c-12.999-12.853-11.487-33.916-8.715-51.987c0.715-4.691,1.463-9.446,0.878-14.153
					c-0.472-3.805-1.797-7.446-2.967-11.105c-8.471-26.331-9.463-55.028-2.845-81.879c-0.415,1.016-0.805,2.04-1.163,3.065
					l1.764-5.422c-0.203,0.78-0.406,1.561-0.602,2.341c9.3-23.177,29.038-42.078,52.776-49.987
					c26.217-8.739,56.572-3.837,78.709,12.698c18.454,13.796,31.209,36.444,29.184,59.393c9.292-4.211,20.73,2.333,25.022,11.584
					C616.434,206.041,615.247,216.877,612.881,226.795z"/>
			</g>
			<g>
				<path style="opacity:0.8;fill:#3C3C3B;" d="M543.32,126.821c0,0-15.624,19.805-57.595,32.503
					c-39.516,11.955-61.361,13.764-61.361,13.764l4.066-17.813L543.32,126.821z"/>
			</g>
			<g>
				<path style="opacity:0.8;fill:#3C3C3B;" d="M552.806,151.368l-5.994,13.392c0,0,22.734-15.624,36.962-8.928
					c0,0-1.975-11.67-8.66-12.252C568.43,142.998,552.806,151.368,552.806,151.368z"/>
			</g>
			<g>
				<g>
					<path style="fill:#BF7330;" d="M597.975,185.953c-0.036-0.002-0.071-0.004-0.107-0.005c-0.116,0.068-0.224,0.14-0.342,0.208
						L597.975,185.953z"/>
				</g>
				<g>
					<path style="fill:#D98E04;" d="M621.022,125.498c-0.727-17.206-16.548-23.66-17.237-26.643
						c-1.458-6.313-2.919-12.813-8.331-19.137c-9.925-11.597-26.135-16.731-41.105-19.716c-26.172-5.217-52.633-4.395-77.552,5.157
						c-11.16,4.278-21.267,12.529-30.543,18.65c-10.452,6.898-26.93,16.716-37.151,23.952
						c-14.598,10.332-31.536,17.336-49.168,20.33c11.857,8.442,26.876,12.327,41.339,10.694
						c-8.121,11.258-22.197,17.941-36.054,17.119c28.957,16.416,65.021,10.684,97.335,2.699
						c13.653-3.374,27.228-7.066,40.709-11.071c11.705-3.478,23.713-7.399,32.862-15.486c-4.278,8.097-10.647,15.079-18.32,20.079
						c5.471,2.811,12.253,1.931,17.769-0.79c5.516-2.722,10.032-7.07,14.45-11.349c-0.387,7.503-3.016,14.876-7.463,20.931
						c8.506-2.881,17.013-5.762,25.519-8.643c1.915-0.649,3.968-1.304,5.922-0.786c3.863,1.023,5.149,5.758,5.765,9.706
						c1.043,6.69,2.087,13.379,3.13,20.069c0.037,0.234,0.078,0.473,0.123,0.711c-1.692,5.274-3.58,10.51-5.221,15.783
						c-3.224,10.362-5.518,21.014-6.846,31.784c3.99-1.699,7.979-3.398,11.969-5.097c0.912-0.388,1.855-0.798,2.517-1.536
						c0.74-0.824,1.031-1.945,1.303-3.018c2.922-11.505,6.487-22.845,10.647-33.963c0.159,0.008,0.317,0.016,0.476,0.023
						C619.241,173.433,622.169,152.645,621.022,125.498z"/>
				</g>
			</g>
			<g>
				<g>
					<path style="fill:#592202;" d="M484.642,230.276c0.404-3.706-4.063-3.194-5.388-0.798c-1.879,3.396-2.27,8.43-3.244,12.165
						c-1.154,4.427-2.307,8.853-3.461,13.28c-1.154,4.427-2.307,8.853-3.461,13.28c-0.739,2.837-2.744,6.921-1.549,9.949
						c2.191,5.551,13.609,4.965,18.185,4.841c2.61-0.071,2.621-4.136,0-4.065c-3.005,0.081-5.94-0.007-8.915-0.519
						c-1.247-0.219-2.483-0.494-3.705-0.825c-1.648-1.315-2.009-2.817-1.085-4.506c0.274-4.578,2.548-9.777,3.708-14.229
						c1.236-4.743,2.472-9.486,3.708-14.229c0.659-2.53,1.318-5.059,1.978-7.589c0.33-1.265,0.659-2.53,0.989-3.794
						c1.138-1.815,0.53-2.803-1.825-2.962C480.294,232.872,484.361,232.852,484.642,230.276L484.642,230.276z"/>
				</g>
			</g>
			<g>
				<g>
					<path style="fill:#592202;" d="M476.797,310.349c10.541,0.594,21.311,0.754,31.631-1.809c9.18-2.28,16.41-8.422,26.12-8.348
						c9.039,0.069,27.445,5.802,24.551-9.642c-0.481-2.568-4.399-1.48-3.919,1.081c1.313,7.006-5.009,5.828-10.05,5.325
						c-5.975-0.596-12.03-1.399-17.986-0.184c-3.049,0.622-5.553,1.948-8.253,3.419c-4.119,2.246-8.545,3.792-13.121,4.797
						c-9.491,2.084-19.329,1.84-28.972,1.296C474.183,306.137,474.191,310.203,476.797,310.349L476.797,310.349z"/>
				</g>
			</g>
			<g>
				<path style="opacity:0.8;fill:#3C3C3B;" d="M509.119,164.76v4.464c0,0,28.166,4.373,42.344,14.183
					C551.463,183.407,527.647,161.691,509.119,164.76z"/>
			</g>
			<path style="fill:#D98E04;" d="M509.119,159.324l-1.827,6.696c0,0,29.759,1.116,49.847,24.551
				C557.139,190.571,538.845,162.672,509.119,159.324z"/>
			<g>
				<path style="opacity:0.8;fill:#3C3C3B;" d="M453.215,180.868l0.883,4.539c0,0-19.557-0.801-23.519,1.794
					C426.617,189.796,445.217,177.66,453.215,180.868z"/>
			</g>
			<path style="fill:#D98E04;" d="M452.323,173.087l1.775,8.556c0,0-18.6,1.86-27.899,8.928
				C426.198,190.571,439.76,174.575,452.323,173.087z"/>
			<path style="fill:none;stroke:#592202;stroke-width:0.8129;stroke-miterlimit:10;" d="M599.733,210.473
				c-0.11,0.221-0.458,0.269-0.624,0.086c-0.725-0.767-0.969-1.954-0.605-2.944s1.319-1.737,2.368-1.85
				c1.318-0.143,2.604,0.674,3.334,1.78s0.991,2.456,1.104,3.776c0.124,1.447,0.072,2.979-0.647,4.242
				c-1.279,2.246-4.179,2.935-6.087,4.678c-2.055,1.875-2.776,5.07-1.727,7.647c-0.429-3.118-0.792-6.553,0.949-9.175
				c1.308-1.969,3.775-3.505,3.665-5.867c-0.049-1.062-0.706-2.075-1.656-2.554c-0.199-0.1-0.437-0.178-0.641-0.088
				c-0.204,0.091-0.284,0.424-0.089,0.533"/>
			<g>
				<path style="opacity:0.12;fill:#FFFFFF;" d="M505.384,129.166c14.287-2.374,26.75-15.894,25.223-30.296
					c-0.995-9.39-7.889-17.893-16.869-20.81c-10.169-3.303-21.489,0.394-30.21,6.581c-8.72,6.187-15.511,14.646-22.934,22.341
					c-14.438,14.966-31.608,27.287-50.41,36.172c18.414-4.506,37.712-9.477,51.516-22.471c5.802-5.461,11.934-12.783,19.824-11.668
					c5.757,0.813,10.073,6.573,10.157,12.387s-3.482,11.293-8.338,14.49c9.004-2.884,18.007-5.769,27.011-8.653"/>
			</g>
			<g>
				<path style="opacity:0.23;fill:#3C3C3B;" d="M583.679,121.417c4.509,2.975,5.469,9.079,5.922,14.462
					c1.447,17.182,1.985,34.441,1.611,51.681c-0.904-4.935,2.656-9.445,5.833-13.328c7.595-9.281,14.463-19.787,16.053-31.674
					c1.59-11.887-3.42-25.341-14.28-30.429c-4.101-1.922-9.323-2.412-12.901,0.365c-3.578,2.776-3.739,9.46,0.41,11.276"/>
			</g>
			<path style="fill:none;" d="M481.574,665.294c0,0.558,0,1.116,0,1.674"/>
		</g>
		<path style="fill:#F6BF1A;" d="M445.236,594.027l-16.425-3.603l-6.092-10.301l-75.454-10.293
			c-5.513-0.752-10.332,3.713-10.013,9.268c0.29,5.05,0.796,10.838,1.217,15.252c0.393,4.124,3.596,7.414,7.707,7.923l80.067,9.919
			l5.22-8.454l13.312,1.68L445.236,594.027z"/>
		<path style="fill:#78C0F9;" d="M570.414,231.454c-0.422-4.476,3.583-25.243-39.755-25.698
			c-33.918-0.356-38.55,10.28-38.961,14.921c-11.557-12.523-20.239,1.366-20.239,1.366c0.264-3.342-1.052-16.684-38.973-16.286
			c-43.338,0.455-39.333,21.222-39.755,25.698c-0.422,4.476-2.108,36.409,26.136,41.468c0,0,17.494,7.904,46.053-27.331
			c0,0,6.788-10.714,6.595-21.92c-0.002-0.116-0.009-0.231-0.016-0.347c7.099-6.944,6.27-5.847,10.653-6.184
			c4.106-0.316,7.603,3.203,9.526,5.667c-0.019,0.287-0.046,0.574-0.051,0.863c-0.193,11.205,6.595,21.92,6.595,21.92
			c28.559,35.235,46.053,27.331,46.053,27.331C572.522,267.863,570.836,235.93,570.414,231.454z"/>
		<path style="fill:#A6633C;" d="M518.568,352.243c-4.392-1.644-71.955,16.741-71.955,16.741S287.643,391.137,274.13,401.47
			s-6.793,40.524-2.782,47.294c6.359,10.731,94.181,130.741,94.19,130.753c0.483,0.658,14.242-4.977,15.913-5.532
			c-0.808-2.241-2.626-3.953-5.095-4.105c-4.126-0.248-8.252-0.495-12.377-0.743c1.868,5.038-0.266,10.617-0.066,15.987
			c0.314,8.453,6.339,15.575,12.756,21.086c-5.305,2.233-10.423-4.418-16.179-4.477c0.997,6.12,5.932,11.41,11.969,12.829
			c3.286,0.772,6.809,0.49,9.956,1.713c2.487,0.966,4.962,2.875,7.526,2.136c2.998-0.865,3.99-4.781,6.691-6.343
			c2.093-1.211,4.696-0.751,7.113-0.685c2.417,0.065,5.305-0.666,6.079-2.956c0.374-1.105,0.146-2.322,0.342-3.472
			c0.427-2.5,2.713-4.21,3.93-6.436c2.662-4.866-0.46-11.181-5.054-14.289c-4.594-3.109-10.268-4.023-15.567-5.664
			c-16.463-5.1-20.888-18.762-29.383-32.434c-8.536-13.738-17.045-27.493-25.504-41.279c-8.279-13.493-34.027-54.102-36.018-61.254
			c-2.208-7.949-8.125-14.307,0-14.307s137.579-25.435,137.579-25.435s19.978-3.974,18.388,5.564
			c-1.59,9.538,2.385,69.152,1.59,77.101s9.486,50.926,9.115,59.642c-0.371,8.715,1.219,67.535,1.219,67.535l-2.463,72.288
			l132.87-5.918c0,0-12.769-139.497-10.384-149.035c2.385-9.538,12.718-120.818,12.718-120.818l5.915-27.225
			c2.447-11.263-4.312-22.459-15.404-25.591c-8.848-2.498-18.358-4.914-23.125-5.258
			C560.278,351.394,518.568,352.243,518.568,352.243z"/>
		<g>
			<path style="fill:#A6633C;" d="M605.362,418.162c-8.063,18.979-135.755,127.088-151.265,120.023
				c-17.449-7.949-68.688-129.561-68.688-129.561l11.128-10.425l57.56,94.679l151.265-127.423
				C605.362,365.455,621.234,380.804,605.362,418.162z"/>
		</g>
		<path style="fill:#A6633C;" d="M397.065,400.653c0.96-8.03,0.659-16.21-0.887-24.149c-0.967-4.966-2.594-10.12-6.406-13.446
			c-3.451-3.011-8.147-4.056-12.629-4.998c-5.461-1.147-10.922-2.295-16.382-3.442c-0.507,2.878,2.035,5.33,4.463,6.956
			c4.047,2.71,8.489,4.83,13.142,6.27c-7.692,0.128-15.385,0.256-23.077,0.384c-0.014,0.994-0.028,1.987-0.042,2.981
			c6.111,1.8,12.221,3.601,18.332,5.401c-6.72,0.101-13.439,0.202-20.159,0.303c-1.212,0.018-2.731,0.255-3.071,1.42
			c-0.403,1.382,1.258,2.411,2.624,2.863c6.379,2.108,13.007,3.462,19.702,4.023c-5.248,0.391-10.516,0.529-15.777,0.414
			c0.005,1.552,0.009,3.103,0.014,4.655c5.243,1.131,10.486,2.263,15.729,3.394c1.342,0.29,2.731,0.6,3.827,1.427
			c1.539,1.162,2.213,3.104,3.056,4.838c3.02,6.214,9.29,10.732,16.14,11.631c-0.016-3.911,0.079-7.822,0.287-11.727"/>
		<linearGradient id="SVGID_1_" gradientUnits="userSpaceOnUse" x1="508.2592" y1="535.8777" x2="491.1699" y2="437.7133">
			<stop  offset="0.0056" style="stop-color:#FFFFFF;stop-opacity:0"/>
			<stop  offset="1" style="stop-color:#1D1D1B;stop-opacity:0.1"/>
		</linearGradient>
		<path style="fill:url(#SVGID_1_);" d="M605.362,365.455L454.097,492.878l-56.896-93.588c0.771-7.592,0.436-15.295-1.023-22.785
			c-0.967-4.966-2.594-10.12-6.406-13.446c-3.451-3.011-8.147-4.056-12.629-4.998c-5.461-1.147-10.921-2.295-16.382-3.442
			c-0.507,2.877,2.035,5.33,4.463,6.956c4.047,2.71,8.489,4.83,13.142,6.27c-7.692,0.128-15.385,0.256-23.077,0.384
			c-0.014,0.994-0.028,1.987-0.042,2.981c6.111,1.801,12.221,3.601,18.332,5.401c-6.72,0.101-13.44,0.202-20.159,0.303
			c-1.212,0.018-2.731,0.255-3.07,1.419c-0.403,1.382,1.258,2.411,2.624,2.863c6.379,2.108,13.007,3.462,19.702,4.023
			c-5.248,0.392-10.516,0.529-15.777,0.414c0.005,1.551,0.009,3.103,0.014,4.655c5.243,1.131,10.486,2.263,15.73,3.394
			c1.342,0.29,2.731,0.6,3.827,1.427c1.539,1.162,2.213,3.104,3.056,4.838c1.528,3.144,3.891,5.852,6.738,7.879
			c0,0,50.387,122.41,67.836,130.359c15.51,7.065,143.202-101.044,151.265-120.023C621.234,380.804,605.362,365.455,605.362,365.455
			z"/>
		<path style="fill:#A6633C;" d="M455.651,831.486c0,0-9.407,63.191-10.414,64.979c-1.008,1.788,7.934,67.439,7.934,67.439
			l40.538-6.037l-12.356-63.191l30.837-59.018L455.651,831.486z"/>
		<path style="fill:#A6633C;" d="M562.36,827.909c0,0-9.407,63.191-10.414,64.979c-1.008,1.788,7.934,67.439,7.934,67.439
			l40.538-6.037L588.061,891.1l30.837-59.018L562.36,827.909z"/>
		<path style="fill:#EFC94C;" d="M633.802,843.409c0,0-4.197,0.215-10.623,0.477c-7.178,0.31-17.145,0.68-27.172,0.906
			c-8.716,0.203-17.479,0.286-24.466,0.107c-6.987-0.167-12.197-0.572-13.866-1.407c-0.059-0.024-0.119-0.048-0.167-0.084
			c-2.349-1.395-4.137-6.498-5.806-12.591c-2.313-8.453-4.376-18.838-7.333-24.012c-0.334-0.584-0.692-1.109-1.049-1.55
			c-5.83-7.154-19.208,38.153-19.208,38.153h-94.083l12.03-59.054l21.247-104.289c0,0,2.158,0.012,5.938,0.024
			c5.389,0.024,14.057,0.06,24.466,0.095c8.227,0.036,17.55,0.059,27.172,0.083c7.762,0.024,15.726,0.036,23.488,0.048
			c9.622,0.012,18.934,0.024,27.172,0c10.385-0.012,19.065-0.048,24.466-0.131c2.194-0.036,3.851-0.072,4.864-0.119h0.072
			c6.987,0,15.583,44.174,22.236,86.571C629.319,805.78,633.802,843.409,633.802,843.409z"/>
		<polygon style="fill:#E27A3F;" points="469.243,680.066 469.243,843.409 442.059,843.409 442.059,784.355 463.305,680.066 		"/>
		<rect x="493.708" y="680.066" style="fill:#E27A3F;" width="27.172" height="163.342"/>
		<path style="fill:#E27A3F;" d="M571.541,680.066v164.833c-6.987-0.167-12.197-0.572-13.866-1.407
			c-1.836-2.921-3.839-7.023-5.973-12.674c-2.289-6.069-4.746-13.914-7.333-24.012c-7.845-30.63,0-126.489,0-126.489v-0.25H571.541z
			"/>
		<path style="fill:#E27A3F;" d="M623.178,766.638c2.931,19.088,0,77.248,0,77.248l-27.172,0.906V680.185v-0.119h4.865h0.072
			C600.942,680.066,610.13,681.656,623.178,766.638z"/>
	</g>
</g>
<g id="Livello_1">
</g>
</svg>
