<?xml version="1.0" encoding="iso-8859-1"?>
<!-- Generator: Adobe Illustrator 19.2.1, SVG Export Plug-In . SVG Version: 6.00 Build 0)  -->
<!DOCTYPE svg PUBLIC "-//W3C//DTD SVG 1.1//EN" "http://www.w3.org/Graphics/SVG/1.1/DTD/svg11.dtd">
<svg version="1.1" xmlns="http://www.w3.org/2000/svg" xmlns:xlink="http://www.w3.org/1999/xlink" x="0px" y="0px"
	 viewBox="0 0 965.704 953.427" style="enable-background:new 0 0 965.704 953.427;" xml:space="preserve">
<g id="February">
	<path style="fill:#C94D65;" d="M965.704,471.149c0,292.371-268.01,520.528-555.746,476.917
		C135.252,906.429-51.125,631.482,12.5,360.407C139.751-181.75,965.704-85.763,965.704,471.149z"/>
	<g>
		<path style="fill:#20202A;" d="M596.561,828.981c-23.004,5.004-45.796,10.985-68.293,17.922c-2.214,0.683-4.904,2.047-4.678,4.353
			c0.194,1.98,2.449,2.974,4.373,3.478c28.026,7.349,57.208-3.885,83.997-14.921c5.913-2.436,11.895-4.91,17.022-8.731
			c1.93-1.438,3.829-3.234,4.293-5.596c0.6-3.055-1.529-6.164-4.33-7.525s-6.084-1.296-9.157-0.793
			c-10.532,1.725-19.639,8.077-28.341,14.256"/>
		<path style="fill:#FFEBB0;" d="M671.461,413.816c5.122-15.665,9.897-31.443,14.32-47.319c2.473-8.876,4.844-17.825,5.852-26.984
			c0.969-8.81,0.666-17.706,1.109-26.558c1.217-24.304,8.029-47.933,12.155-71.915c3.336-1.849,4.57,14.176,7.139,16.995
			c2.569,2.819,7.783-7.264,11.482-6.332c1.75,0.441,3.592,0.23,5.387,0.415c11.633,1.204,15.462,16.822,25.466,22.878
			c7.121,4.311,17.453,3.802,22.066,10.732c1.857,2.789,2.34,6.292,4.029,9.186c6.557,11.238,27.157,8.36,31.767,20.528
			c1.836,4.847,0.47,11.115,4.234,14.678c4.178,3.956,11.522,1.468,16.335,4.621c1.66,1.087,2.845,2.747,3.99,4.367
			c2.949,4.172,5.899,8.344,8.848,12.516c1.116,1.579,2.246,3.183,2.898,5.004c0.938,2.619,0.843,5.568,2.086,8.057
			c1.507,3.019,4.732,4.869,6.353,7.828c3.564,6.505,21.356,15.755,14.223,17.789c-7.133,2.033-38.714-0.82-46.131-0.882
			c-8.64-0.072-17.128,2.205-25.75,2.772c-8.625,0.567-17.41-0.575-25.856,1.264c-5.645,1.229-10.917,3.745-16.417,5.514
			c-10.144,3.261-20.925,3.938-31.299,6.371c-10.374,2.433-20.911,7.106-26.771,16.004c-2.652,4.028-4.297,8.839-7.91,12.033
			c-4.225,3.735-10.359,4.552-14.848,7.965c-5.208-9.892-6.943-21.57-4.835-32.549"/>
		<path style="fill:#20202A;" d="M686.306,842.889c-24.352,8.623-48.712,17.249-72.692,26.857c-2.287,0.916-4.882,2.204-5.344,4.623
			c-0.514,2.692,1.986,5.012,4.472,6.168c9.056,4.21,19.65,0.849,29.044-2.543c23.241-8.392,46.483-16.784,69.724-25.176
			c5.077-1.833,11.186-5.235,10.51-10.591c-0.703-5.567-7.902-7.171-13.508-7.406c-6.127-0.258-12.369-0.503-18.289,1.096
			s-11.579,5.363-13.909,11.036"/>
		<path style="fill:#FFB000;" d="M706.818,241.559c3.612-2.467,8.116-3.137,12.448-3.742c6.89-0.962,13.919-1.923,20.766-0.692
			c5.6,1.007,10.829,3.439,15.953,5.913c10.004,4.831,19.885,9.912,29.764,14.993c12.708,6.536,25.481,13.111,36.955,21.628
			c24.886,18.473,42.516,45.301,55.006,73.666c2.874,6.527,5.537,13.302,6.004,20.418c0.366,5.584-1.347,12.158-6.529,14.269
			c-4.136,1.684-8.8-0.141-12.823-2.08c-20.264-9.765-38.698-22.883-57.019-35.933c-23.757-16.922-47.816-34.123-66.305-56.682
			c-4.449-5.428-8.561-11.152-13.458-16.179c-5.163-5.301-11.182-9.814-15.615-15.74s-7.11-13.903-4.382-20.781"/>
		<path style="fill:#F56F6C;" d="M720.949,248.564c-0.605-6.67,4.862-13.3,11.525-13.976c0.272-4.375,3.513-8.41,7.727-9.617
			c1.777-0.509,3.65-0.55,5.498-0.586c5.062-0.101,10.124-0.201,15.185-0.302c3.54-4.047,10.423-4.542,14.506-1.044
			c6.126-10.142,21.771-12.781,30.885-5.209c1.454,1.208,2.8,2.651,4.585,3.273c2.785,0.972,5.816-0.297,8.766-0.305
			c5.586-0.016,10.314,4.651,12.193,9.912c1.879,5.26,1.529,11.019,1.155,16.593c5.858,1.306,10.295,7.272,9.859,13.258
			c4.751-1.937,9.97-3.486,14.962-2.303c4.992,1.183,9.436,6.004,8.506,11.05c4.444-3.935,11.833-3.958,16.302-0.051
			s5.434,11.232,2.129,16.163c4.163-2.768,9.821,1.588,11.081,6.426c1.26,4.838,0.054,10.001,0.865,14.934
			c0.664,4.039,2.671,8.07,1.676,12.04c-0.969,3.866-4.668,6.566-8.538,7.52c-3.87,0.955-7.931,0.486-11.889,0.012
			c0.62,4.446,1.119,9.027,0.026,13.381c-1.092,4.354-4.099,8.493-8.419,9.714c4.223,0.381,7.667,3.827,9.301,7.739
			c1.635,3.912,1.802,8.257,1.946,12.495c0.093,2.719,0.185,5.439,0.278,8.158c0.059,1.736,0.116,3.499-0.295,5.187
			c-1.026,4.211-5.234,7.413-9.566,7.279c-4.333-0.134-8.334-3.589-9.099-7.856c-4.394,5.563-14.519,4.709-17.919-1.512
			c-0.58-1.061-0.998-2.244-1.85-3.102c-1.354-1.363-3.436-1.581-5.319-1.962c-11.143-2.251-19.578-13.778-18.351-25.08
			c-6.093-0.148-12.066,1.537-18.117,2.262c-6.051,0.725-12.667,0.332-17.492-3.392c-3.906-3.015-6.035-7.73-8.015-12.25
			c-3.429-7.828-6.934-16.311-5.141-24.667c-5.831,1.037-12.114-0.924-16.32-5.094c-4.206-4.169-6.222-10.435-5.236-16.275
			c-4.805,0.422-9.713,0.816-14.396-0.34c-4.683-1.156-9.182-4.152-10.869-8.67c-1.687-4.518,0.375-10.465,4.961-11.959
			c-4.467,0.253-9.233-0.582-12.597-3.531c-3.364-2.949-4.741-8.406-2.15-12.053c-1.893-2.881-0.524-7.338,2.659-8.66
			c3.183-1.322,7.307,0.855,8.011,4.229"/>
		<path style="fill:#064158;" d="M586.377,523.876c-20.822,67.836-26.429,140.296-16.289,210.528
			c4.675,32.383,9.984,68.326,7.597,100.958c18.665-3.591,40.017-10.763,58.683-14.354c-8.071-7.955-12.594-19.385-12.151-30.709
			c0.312-7.975,2.91-16.254,0.09-23.72c-1.729-4.578-5.292-8.188-7.828-12.373c-6.533-10.782-5.774-24.293-4.806-36.862
			c2.877-37.342,5.754-74.684,8.631-112.026c0.53-6.886,1.951-15.087,8.298-17.81c8.96-3.844,17.131,6.712,20.957,15.68
			c6.703,15.709,12.431,31.907,15.724,48.666c3.501,17.821,4.211,36.057,4.91,54.206c1.823,47.31,3.647,94.655,2.618,141.989
			c15.486-4.091,34.833-7.122,50.732-9.064c7.324-16.732,4.857-47.731-0.443-73.189c-5.059-24.3-13.23-48.031-15.657-72.733
			c-1.86-18.932-0.299-38.018-0.626-57.038c-0.391-22.742-3.495-45.436-9.227-67.447c-5.097-19.575-13.011-39.652-29.031-52.003
			c-13.685-10.551-32.525-14.053-49.088-9.125c-16.562,4.928-30.424,18.16-36.116,34.475"/>
		<g>
			<path style="opacity:0.8;fill:#3C3C3B;" d="M584.374,539.262l-5.897,13.594c0,0,66.167,19.679,112.958-3.514l-10.325-19.531
				L584.374,539.262z"/>
		</g>
		<path style="fill:#FFE2C5;" d="M397.081,517.646c8.567,0.589,18.179-3.944,25.712-7.907c-4.775,5.182-30.489,19.101-19.524,17.446
			c6.873-1.954,14.142-6.294,20.718-9.089c-4.488,1.17-8.64,7.079-9.429,11.649c3.858,0.514,7.373-2.067,10.409-4.504
			c12.482-10.021,25.011-20.087,35.944-31.778c0.456-0.488,0.935-1.034,0.984-1.7c0.062-0.85-0.586-1.569-1.205-2.156
			c-1.792-1.699-4.294-3.242-6.637-3.559c-15.412-6.105-32.823-7.019-48.794-2.58c5.989,4.291,13.584,6.281,20.907,5.48
			c-3.663,3.279-8.278,5.257-12.804,7.179c-6.645,2.822-13.29,5.643-19.935,8.465c12.649,3.092,18.264,0.504,26.681-4.105
			c-6.268,4.509-12.501,11.303-20.064,12.86c-2.818,0.58-5.962,1.098-7.738,3.361C393.843,517.234,395.443,517.533,397.081,517.646z
			"/>
		<path style="fill:#8FADBF;" d="M689.149,441.259c-3.616-27.351-7.856-55.645-0.092-82.119
			c4.199-14.319,11.912-28.768,8.604-43.319c-1.629-7.165-5.817-13.461-10.24-19.329c-5.758-7.639-12.928-15.371-22.405-16.675
			c-3.512-0.483-7.077-0.026-10.592,0.431c-9.06,1.178-18.121,2.355-27.181,3.533c-7.508,0.976-15.489,2.169-21.569,6.448
			l0.992-6.046c0,0-24.039,1.891-31.967,6.132c-12.37,6.616-52.557,133.908-52.557,133.908L447.5,481.509l10.772,15.744
			c0,0,83.199-58.498,86.368-63.273c3.169-4.775,30.059-95.501,30.059-95.501l10.364,63.501c-0.492,6.552-0.971,13.105-1.45,19.657
			c-0.895,12.245-1.789,24.489-2.684,36.734c-2.077,28.417-4.153,56.834-6.23,85.251c42.26,7.599,122.961-6.503,122.904-8.156
			C696.522,503.943,693.283,472.528,689.149,441.259z"/>
		<path style="fill:#FFE2C5;" d="M659.434,212.066c-0.475,1.074-1.254,6.026-2.14,12.732c-1.012,7.62-2.167,17.487-3.17,26.476
			c-1.442,12.867-2.579,23.925-2.579,23.925l-27.739,29.825l-6.554,7.047l-3.196-29.959v-6.912l2.31-6.903l7.065-21.131
			L659.434,212.066z"/>
		<g>
			<g style="opacity:0.8;">
				<path style="fill:#3C3C3B;" d="M623.967,267.94c-0.348-0.094-0.697-0.155-1.046-0.217c0.628-0.331,1.28-0.675,1.955-1.031
					L623.967,267.94z M623.431,247.165l-7.065,21.131l-2.31,6.903v6.912l3.196,29.959l6.554-7.047
					c-2.024-8.443-3.053-17.111-3.08-25.787c-0.018-12.204,7.27-14.192,16.833-19.233c5.524-2.91,11.04-5.82,16.565-8.73
					l3.17-26.476L623.431,247.165z"/>
			</g>
		</g>
		<g>
			<path style="fill:#FFE2C5;" d="M689.726,174.548c-1.102,4.618-2.674,9.438-6.307,12.49c-3.607,3.033-9.823,3.372-12.588-0.411
				c-0.026-0.026-0.046-0.059-0.065-0.085c-0.248,21.589-8.694,42.97-23.181,58.963c-0.874,0.972-1.774,1.924-2.7,2.857
				c-5.694,5.74-12.347,10.788-20.076,13.156c-6.32,1.931-13.058,1.983-19.665,1.787c-9.347-0.287-18.674-1.037-27.942-2.257
				c-9.399-1.239-19.352-3.261-26.096-9.927c-10.429-10.312-9.216-27.212-6.992-41.711c0.574-3.763,1.174-7.579,0.704-11.356
				c-0.378-3.052-1.441-5.975-2.381-8.91c-6.796-21.126-7.592-44.15-2.283-65.694c-0.333,0.815-0.646,1.637-0.933,2.459l1.415-4.35
				c-0.163,0.626-0.326,1.252-0.483,1.878c7.462-18.595,23.298-33.76,42.344-40.106c21.035-7.012,45.39-3.079,63.15,10.188
				c14.806,11.069,25.04,29.24,23.416,47.653c7.455-3.379,16.632,1.872,20.076,9.294
				C692.576,157.896,691.624,166.591,689.726,174.548z"/>
		</g>
		<g>
			<path style="opacity:0.8;fill:#3C3C3B;" d="M633.915,94.336c0,0-12.535,15.89-46.211,26.078
				c-31.705,9.592-49.232,11.043-49.232,11.043l3.263-14.292L633.915,94.336z"/>
		</g>
		<g>
			<path style="opacity:0.8;fill:#3C3C3B;" d="M641.526,114.031l-4.809,10.745c0,0,18.24-12.535,29.656-7.163
				c0,0-1.584-9.363-6.948-9.83C654.061,107.316,641.526,114.031,641.526,114.031z"/>
		</g>
		<g>
			<g>
				<path style="fill:#BF7330;" d="M677.766,141.78c-0.029-0.001-0.057-0.003-0.086-0.004c-0.093,0.055-0.18,0.112-0.274,0.167
					L677.766,141.78z"/>
			</g>
			<g>
				<path style="fill:#BF7330;" d="M696.257,93.274c-0.583-13.805-13.277-18.983-13.83-21.376
					c-1.17-5.065-2.342-10.281-6.684-15.354c-7.963-9.305-20.969-13.424-32.98-15.818c-20.999-4.186-42.229-3.526-62.223,4.138
					c-8.954,3.432-17.063,10.052-24.506,14.964c-8.386,5.534-21.606,13.412-29.808,19.217c-11.712,8.29-25.303,13.909-39.449,16.312
					c9.513,6.774,21.563,9.891,33.168,8.58c-6.516,9.032-17.81,14.395-28.927,13.735c23.233,13.171,52.169,8.572,78.095,2.165
					c10.954-2.707,21.846-5.669,32.662-8.883c9.391-2.791,19.026-5.936,26.366-12.425c-3.432,6.497-8.543,12.098-14.698,16.11
					c4.39,2.256,9.831,1.55,14.257-0.634c4.426-2.184,8.049-5.672,11.594-9.106c-0.31,6.02-2.42,11.935-5.988,16.793
					c6.825-2.312,13.65-4.623,20.475-6.935c1.537-0.52,3.183-1.046,4.751-0.631c3.099,0.821,4.131,4.62,4.625,7.788
					c0.837,5.367,1.674,10.734,2.512,16.102c0.029,0.188,0.062,0.379,0.099,0.57c-1.358,4.231-2.872,8.432-4.189,12.663
					c-2.587,8.314-4.427,16.86-5.492,25.502c3.201-1.363,6.402-2.726,9.603-4.089c0.732-0.312,1.488-0.641,2.02-1.233
					c0.593-0.661,0.827-1.561,1.046-2.422c2.344-9.231,5.205-18.33,8.542-27.25c0.127,0.006,0.255,0.012,0.382,0.019
					C694.829,131.734,697.178,115.055,696.257,93.274z"/>
			</g>
		</g>
		<g>
			<g>
				<path style="fill:#F0B895;" d="M586.778,176.907c-0.028-0.172-0.056-0.343-0.084-0.515c-0.086-0.526-0.636-1.024-1.139-1.139
					c-3.638-0.83-3.829,4.243-4.464,6.681c-1.841,7.063-3.681,14.127-5.522,21.19c-0.869,3.335-4.219,9.981-2.035,13.348
					c2.372,3.657,10.536,3.249,14.171,3.165c2.095-0.049,2.103-3.31,0-3.261c-3.658,0.085-11.167,0.731-11.153-4.093
					c0.011-3.64,2.19-8.402,3.121-11.977c0.96-3.685,1.921-7.37,2.881-11.056c0.48-1.843,0.96-3.685,1.44-5.528
					c0.32-1.228,0.64-2.457,0.96-3.685c1.094-1.681,0.653-2.436-1.322-2.263C583.972,179.84,587.115,178.964,586.778,176.907
					L586.778,176.907z"/>
			</g>
		</g>
		<g>
			<g>
				<path style="fill:#F0B895;" d="M580.541,241.586c14.29,0.794,30.178,0.409,41.477-9.644
					c9.504-8.456,13.636-21.634,11.261-34.018c-0.395-2.059-3.539-1.187-3.145,0.867c2.247,11.72-2.175,24.236-11.511,31.771
					c-10.583,8.542-25.205,8.478-38.083,7.763C578.444,238.209,578.451,241.47,580.541,241.586L580.541,241.586z"/>
			</g>
		</g>
		<g>
			<path style="fill:#FFFFFF;" d="M632.618,146.858c0.746,1.273,1.325,2.661,1.863,4.039c2.161,5.537,3.698,12.338,0.013,17.002
				c-2.037,2.578-5.253,3.881-8.356,4.96c-8.713,3.03-18.081,5.158-27.138,3.506c-4.059-12.569,2.467-27.582,14.35-33.286
				c5.65-2.712,13.183-3.095,17.522,1.427C631.552,145.215,632.122,146.011,632.618,146.858z"/>
		</g>
		<g>
			<path style="fill:#FFFFFF;" d="M545.27,157.207c0.178-0.523,0.399-1.031,0.669-1.518c1.262-2.281,3.772-3.998,6.366-3.745
				c1.707,0.167,3.231,1.127,4.582,2.185c5.941,4.654,9.82,11.829,10.544,19.333c-2.008,5.678-9.47,7.979-14.486,5.054
				c-2.058-1.2-3.634-3.094-4.863-5.135c-1.842-3.059-2.993-6.532-3.344-10.086C544.537,161.256,544.615,159.131,545.27,157.207z"/>
		</g>
		<path style="fill:#F28D8D;" d="M611.495,157.135c-1.274-1.961-3.681-3.125-6.009-2.905s-4.475,1.813-5.36,3.978
			c-1.429,3.496,0.532,7.62,3.504,9.951c2.972,2.33,6.741,3.32,10.349,4.436c0.203,0.063,0.418,0.127,0.625,0.08
			c0.225-0.051,0.401-0.223,0.562-0.388c2.953-3.044,5.386-6.59,7.163-10.441c0.565-1.224,1.071-2.513,1.1-3.861
			c0.055-2.612-1.808-5.04-4.211-6.067c-1.827-0.781-4.043-0.812-5.727,0.242c-1.684,1.055-2.636,3.302-1.911,5.152"/>
		<path style="fill:#F28D8D;" d="M552.792,161.299c-0.218-0.713-0.795-1.307-1.503-1.543c-1.885-0.63-3.745,1.373-3.989,3.345
			c-0.274,2.218,0.737,4.441,2.216,6.118c1.479,1.676,3.393,2.898,5.279,4.097c0.443,0.282,0.937,0.575,1.457,0.5
			c0.313-0.045,0.591-0.22,0.844-0.409c2.765-2.066,3.441-5.873,3.756-9.311c0.074-0.81,0.13-1.674-0.259-2.388
			c-0.398-0.731-1.179-1.154-1.918-1.538c-1.087-0.564-2.254-1.145-3.473-1.024c-1.219,0.121-2.414,1.27-2.1,2.454"/>
		<g>
			<path style="opacity:0.8;fill:#3C3C3B;" d="M606.475,124.775v3.582c0,0,22.599,3.508,33.973,11.379
				C640.448,139.736,621.34,122.313,606.475,124.775z"/>
		</g>
		<path style="fill:#BF7330;" d="M606.475,120.414l-1.466,5.372c0,0,23.877,0.895,39.994,19.698
			C645.002,145.484,630.325,123.1,606.475,120.414z"/>
		<g>
			<path style="opacity:0.8;fill:#3C3C3B;" d="M561.621,137.7l0.708,3.642c0,0-15.691-0.643-18.87,1.439
				C540.28,144.863,555.204,135.126,561.621,137.7z"/>
		</g>
		<path style="fill:#BF7330;" d="M560.905,131.457l1.424,6.865c0,0-14.923,1.492-22.384,7.163
			C539.945,145.484,550.826,132.651,560.905,131.457z"/>
		<path style="fill:#F0B895;" d="M679.177,161.452c-0.089,0.177-0.368,0.216-0.501,0.069c-0.582-0.615-0.778-1.568-0.485-2.362
			c0.292-0.795,1.059-1.393,1.9-1.485c1.057-0.115,2.089,0.541,2.675,1.428c0.586,0.888,0.795,1.97,0.886,3.03
			c0.1,1.161,0.057,2.39-0.519,3.403c-1.026,1.802-3.353,2.355-4.884,3.753c-1.649,1.505-2.228,4.068-1.386,6.135
			c-0.344-2.502-0.635-5.258,0.761-7.362c1.049-1.58,3.029-2.813,2.941-4.707c-0.04-0.852-0.567-1.665-1.329-2.049
			c-0.16-0.081-0.351-0.143-0.514-0.07c-0.164,0.073-0.228,0.34-0.072,0.428"/>
		<g>
			<path style="opacity:0.12;fill:#FFFFFF;" d="M603.478,96.218c11.463-1.905,21.462-12.752,20.237-24.307
				c-0.799-7.534-6.329-14.356-13.534-16.696c-8.159-2.65-17.242,0.316-24.238,5.28c-6.997,4.964-12.445,11.751-18.401,17.925
				c-11.584,12.008-25.36,21.893-40.445,29.022c14.774-3.615,30.258-7.604,41.333-18.029c4.655-4.382,9.575-10.256,15.906-9.362
				c4.619,0.652,8.082,5.274,8.149,9.938s-2.794,9.061-6.69,11.625c7.224-2.314,14.448-4.628,21.672-6.943"/>
		</g>
		<path style="fill:#8FADBF;" d="M602.577,317.785c0,0,12.516,18.979,31.338,5.726c0,0-2.491-23.238-7.513-22.419l-9.15,10.979
			l-0.886-11C616.366,301.071,605.412,300.829,602.577,317.785z"/>
		<g>
			<path style="opacity:0.23;fill:#3C3C3B;" d="M666.297,90c3.617,2.387,4.388,7.284,4.752,11.603
				c1.161,13.786,1.593,27.633,1.293,41.465c-0.725-3.96,2.131-7.578,4.68-10.693c6.094-7.447,11.604-15.876,12.88-25.413
				c1.276-9.537-2.744-20.332-11.457-24.414c-3.29-1.542-7.48-1.935-10.351,0.293c-2.871,2.228-3,7.59,0.329,9.047"/>
		</g>
		<path style="fill:#CDDFE8;" d="M616.366,268.296c0,0-7.582-3.393-11.357,4.665c-0.519,1.107-1.031,2.172-1.529,3.185
			c-4.224,8.595-6.602,17.978-6.97,27.548c-0.403,10.473-0.078,23.081,3.139,29.258c0,0,10.875-32.682,17.31-24.516L616.366,268.296
			z"/>
		<path style="fill:#CDDFE8;" d="M652.307,267.94c2.65,0.095,11.617,0.095,13.625,4.572s5.589,11.672,5.589,11.672l-39.113,54.294
			c0,0-0.944-38.854-11.582-30.249L652.307,267.94z"/>
		<path style="fill:#8FADBF;" d="M700.872,445.983c-3.913,4.146-7.235,7.682-9.616,10.306c-0.099,0.107-0.188,0.206-0.296,0.304
			l-2.892-23.414l8.542-10.18l25.545-30.416c2.033-3.223,1.746-7.396-0.734-10.297l-59.91-70.26
			c-1.827-2.149-2.507-5.05-1.809-7.781c0.922-3.626,2.328-8.954,3.832-13.896c1.916-6.294,9.867-8.264,14.496-3.582
			c22.116,22.34,77.71,78.892,81.918,86.932C763.423,380.361,722.835,422.73,700.872,445.983z"/>
		<g>
			<path style="opacity:0.8;fill:#3C3C3B;" d="M700.872,445.983c-3.913,4.146-7.235,7.682-9.616,10.306
				c-0.099,0.107-0.188,0.206-0.296,0.304l-2.892-23.414l8.542-10.18L700.872,445.983z"/>
		</g>
		<path style="fill:none;" d="M584.374,526.369c0,0.448,0,0.895,0,1.343"/>
		<g>
			<g>
				<path style="fill:#F44747;" d="M743.853,237.076c-9.55-2.414-17.19,6.894-11.133,15.358c3.267,4.566,9.423,7.167,14.649,8.663
					c4.663,1.334,11.289,2.72,15.909,0.612c4.118-1.879,6.363-7.651,5.829-11.984c-0.567-4.595-5.049-6.721-9.013-7.953
					c-3.792-1.178-11.019-2.585-14.367,0.389c-3.766,3.346,0.394,7.111,3.702,8.166c2.751,0.878,3.929-3.443,1.19-4.317
					c0.21-1.08,0.92-1.38,2.131-0.901c1.517,0.01,3.017,0.188,4.499,0.535c2.792,0.637,7.217,1.771,7.445,5.506
					c0.447,7.304-7.822,7.363-12.887,6.405c-4.086-0.772-8.201-2.237-11.722-4.478c-2.615-1.664-6.241-4.771-5.033-8.477
					c1.081-3.318,4.76-3.927,7.611-3.206C745.457,242.099,746.649,237.783,743.853,237.076L743.853,237.076z"/>
			</g>
		</g>
		<g>
			<g>
				<path style="fill:#F44747;" d="M791.225,310.113c-12.45,1.462-12.137,16.247-4.007,22.949
					c7.953,6.556,25.532,11.184,31.246-0.405c2.175-4.411,1.42-9.769-1.785-13.489c-4.091-4.748-11.161-5.243-17.007-5.086
					c-4.244,0.114-9.842,1.102-9.83,6.439c0.011,5.055,5.517,8.399,9.673,9.906c3.798,1.377,12.336,2.679,13.173-3.289
					c0.657-4.683-5.519-7.839-9.274-6.115c-2.615,1.201-0.343,5.061,2.26,3.866c0.829,2.071,0.411,2.774-1.255,2.11
					c-0.732-0.034-1.445-0.164-2.139-0.389c-1.671-0.423-3.304-1.135-4.741-2.096c-1.843-0.624-2.436-1.804-1.778-3.54
					c-0.55-1.854,0.096-2.628,1.938-2.321c1.067-0.365,2.825-0.12,3.948-0.099c3.269,0.062,7.239,0.188,10.053,2.098
					c3.718,2.524,4.66,7.702,1.95,11.257c-4.358,5.717-13.302,2.927-18.871,0.473c-3.128-1.378-6.075-3.31-7.81-6.36
					c-2.344-4.12-1.622-10.74,4.257-11.431C794.052,314.258,794.086,309.777,791.225,310.113L791.225,310.113z"/>
			</g>
		</g>
		<g>
			<g>
				<path style="fill:#F44747;" d="M843.333,356.121c-3.543,13.128,8.388,22.223,20.134,23.809
					c5.765,0.778,11.688,0.502,14.228-5.562c2.095-5.003,1.136-11.125-1.935-15.507c-3.036-4.332-8.634-7.377-14.006-6.036
					c-4.69,1.171-8.464,5.887-7.627,10.819c0.718,4.229,6.247,9.814,10.93,9.099c4.844-0.739,3.898-6.137,0.666-8.113
					c-2.465-1.507-4.717,2.364-2.26,3.866c0.173-0.126,0.346-0.253,0.519-0.379c-0.64-0.304-1.279-0.609-1.919-0.913
					c-1.966-1.171-2.993-2.309-3.196-4.542c-0.488-5.374,5.912-6.717,9.915-4.367c4.955,2.91,9.267,15.239,1.245,17.375
					c-4.611,1.228-11.15-0.846-15.148-3.065c-5.472-3.036-8.913-9.057-7.229-15.294
					C848.401,354.526,844.084,353.338,843.333,356.121L843.333,356.121z"/>
			</g>
		</g>
		<g>
			<g>
				<path style="fill:#F44747;" d="M865.764,289.723c-7.787,7.062-5.547,19.077,2.537,24.876c8.312,5.963,21.068,6.45,22.396-5.877
					c0.551-5.119-0.315-11.117-4.41-14.654c-3.374-2.914-8.363-3.621-11.962-0.72c-3.077,2.481-5.409,8.038-3.837,11.908
					c1.86,4.58,6.541,2.918,9.45,0.503c2.219-1.842-0.964-4.994-3.166-3.166c-1.728,1.435-2.089-0.694-1.974-1.753
					c0.147-1.354,1.743-3.872,2.929-4.467c3.834-1.925,7.306,2.278,8.16,5.479c1.501,5.625,0.35,13.415-7.124,12.238
					c-9.58-1.509-18.902-12.977-9.833-21.202C871.068,290.949,867.895,287.79,865.764,289.723L865.764,289.723z"/>
			</g>
		</g>
		<g>
			<g>
				<path style="fill:#F44747;" d="M806.099,230.046c-8.905,4.22-13.606,15.186-5.725,22.869c5.006,4.88,19.818,12.142,23.997,2.774
					c2.919-6.544,2.884-22.03-7.024-22.845c-10.343-0.851-11.489,12.249-4.931,17.54c2.222,1.793,5.409-1.356,3.166-3.166
					c-1.996-1.611-3.898-4.047-2.967-6.853c1.763-5.317,7.029-2.374,8.258,1.202c1.699,4.947,1.371,14.171-5.577,13.872
					c-4.955-0.213-12.567-4.283-14.201-9.236c-1.862-5.642,2.653-10.107,7.265-12.293
					C810.96,232.679,808.691,228.818,806.099,230.046L806.099,230.046z"/>
			</g>
		</g>
		<g>
			<g>
				<path style="fill:#F44747;" d="M778.282,271.357c-5.931-1.662-9.15,3.781-9.731,8.952c-0.725,6.448,2.52,11.12,8.292,13.781
					c12.426,5.728,28.226,4.548,31.919-10.984c3.617-15.213-17.243-16.392-25.376-8.452c-3.639,3.552-4.848,9.938,0.373,12.592
					c4.912,2.498,10.786-0.148,13.209-4.762c1.338-2.549-2.524-4.814-3.866-2.26c-0.895,1.704-2.14,2.933-4.094,3.355
					c-1.801,0.389-4.336-0.932-4.233-3.088c0.184-3.856,7.04-5.708,9.974-6.163c3.913-0.608,7.841-0.135,9.333,3.867
					c1.379,3.698-0.871,8.281-3.475,11.091c-4.764,5.14-11.976,4.145-18,2.213c-2.849-0.914-6.386-2.023-8.192-4.573
					c-1.219-1.72-3.157-12.888,2.678-11.252C779.87,276.453,781.056,272.135,778.282,271.357L778.282,271.357z"/>
			</g>
		</g>
		<g>
			<g>
				<path style="fill:#F44747;" d="M840.423,268.105c-5.274-0.506-10.798-0.139-13.699,4.961
					c-2.579,4.533-2.066,10.377,0.398,14.833c5.174,9.357,19.81,12.598,28.363,5.975c3.542-2.743,5.55-7.423,4.118-11.85
					c-1.654-5.112-6.785-6.475-11.648-6.393c-4.197,0.071-11.157,0.834-13.031,5.387c-1.838,4.466,1.894,8.255,6.272,7.963
					c2.86-0.19,2.881-4.668,0-4.477c-0.424-0.889-0.849-1.777-1.273-2.666c0.594-0.247,1.188-0.494,1.783-0.741
					c1.343-0.8,3.845-0.839,5.383-0.943c3.281-0.222,7.074,0.221,8.213,3.702c2.323,7.098-8.19,9.317-12.934,8.788
					c-5.37-0.598-10.616-3.735-12.299-9.141c-0.779-2.504-0.93-5.86,0.522-8.177c2.263-3.613,6.313-3.082,9.834-2.744
					C843.289,272.856,843.27,268.378,840.423,268.105L840.423,268.105z"/>
			</g>
		</g>
		<g>
			<g>
				<path style="fill:#F44747;" d="M842.019,313.577c-4.466-1.132-8.978,1.101-10.308,5.705c-1.507,5.221,1.578,10.184,5.562,13.287
					c6.398,4.983,22.615,11.155,28.858,3.001c7.482-9.771-5.235-18.474-14.107-18.063c-3.549,0.164-9.202,0.944-10.003,5.287
					c-0.951,5.157,4.627,6.876,8.573,7.133c2.877,0.188,2.865-4.29,0-4.477c-2.4,0.519-3.197-0.449-2.392-2.903
					c1.249-0.335,2.523-0.523,3.822-0.563c1.914-0.086,3.897,0.029,5.72,0.67c6.436,2.262,8.586,11.955-0.318,12.142
					c-3.989,0.084-8.381-1.198-12.027-2.734c-2.206-0.929-4.44-2.056-6.226-3.685c-1.367-1.155-2.378-2.588-3.032-4.301
					c-1.134-4.065,0.428-6.126,4.689-6.182C843.623,318.602,844.815,314.285,842.019,313.577L842.019,313.577z"/>
			</g>
		</g>
	</g>
	<g>
		<path style="fill:#474143;" d="M251.978,860.67c0,0,16.802,16.29,25.085,21.749c1.735,1.144,1.156,3.814-0.899,4.122
			c-3.632,0.543-9.811-0.463-19.829-6.958c-19.376-12.56-21.832-11.607-19.175-17.007
			C239.817,857.176,251.978,860.67,251.978,860.67z"/>
		<path style="fill:#474143;" d="M273.561,860.075c0,0,16.802,16.29,25.085,21.749c1.735,1.144,1.156,3.814-0.899,4.122
			c-3.632,0.543-9.811-0.463-19.829-6.958c-19.376-12.56-21.832-11.607-19.175-17.007
			C261.401,856.581,273.561,860.075,273.561,860.075z"/>
		<path style="fill:#FFE2C5;" d="M310.697,630.783c0,0,1.179,37.137,1.441,40.992s-57.92,187.747-54.682,193.808
			c3.238,6.061,16.221,15.628,16.221,15.628s-37.11-15.754-30.497-18.937s10.887-4.681,10.887-4.681s9.886-91.588,9.452-96.737
			s24.693-81.843,27.835-86.643s-7.582-71.433-7.582-71.433l30.013-3.61L310.697,630.783z"/>
		<path style="fill:#FFE2C5;" d="M331.576,629.632c0,0,1.179,37.137,1.441,40.992c0.262,3.855-57.92,187.747-54.682,193.808
			s16.221,15.628,16.221,15.628s-37.11-15.754-30.497-18.937c6.613-3.184,10.887-4.681,10.887-4.681s9.886-91.588,9.452-96.737
			c-0.434-5.149,24.693-81.843,27.835-86.643c3.142-4.799-7.582-71.433-7.582-71.433l30.013-3.61L331.576,629.632z"/>
		<g>
			<polygon style="opacity:0.8;fill:#3C3C3B;" points="289.274,636.179 290.508,651.024 332.242,649.977 331.576,629.632 			"/>
		</g>
		<path style="fill:#FFE2C5;" d="M253.893,279.273l-34.94,112.377l-35.695,77.112l-0.037-0.031c-0.05,0.165-0.112,0.324-0.173,0.484
			l-0.486,1.051c-1.621,2.921-4.96,4.766-8.218,5.858c-3.797,1.272-7.896,1.956-11.179,4.249c3.456,0.84,7.019,1.238,10.575,1.18
			c-3.465,5.58-8.612,10.101-14.592,12.817c-0.543,0.246-1.172,0.582-1.233,1.175c-0.1,0.973,1.296,1.276,2.262,1.116
			c3.995-0.663,7.739-2.753,10.4-5.807c-3.562,4.166-7.124,8.331-10.687,12.497c2.508,0.362,5.048-0.758,6.958-2.422
			c1.91-1.665,3.299-3.833,4.661-5.97c-1.812,3.554-3.397,7.224-4.744,10.979c1.202,0.504,2.354-0.771,3.041-1.879
			c1.781-2.876,3.563-5.752,5.345-8.629c-0.691,2.242-1.383,4.484-2.074,6.726c-0.245,0.796-0.244,2.003,0.585,2.089
			c0.558,0.057,0.951-0.515,1.212-1.011c2.649-5.035,5.297-10.071,7.946-15.106c2.161-4.109,4.348-8.294,5.459-12.78l0.181,0.16
			l45.74-78.425l31.21-105.363L253.893,279.273z"/>
		<path style="fill:#F56F6C;" d="M336.061,432.969c0,0,16.856,31.077,16.878,42.538c0.022,11.461-11.093,165.198-11.093,165.198
			H278.93c0,0-22.532-145.353-17.449-167.333c5.082-21.98,18.957-40.403,18.957-40.403H336.061z"/>
		<g>
			<path style="opacity:0.8;fill:#3C3C3B;" d="M277.362,435.986l-4.351,8.68c0,0,26.572,10.312,68.428-1.169l-4.678-9.575
				L277.362,435.986z"/>
		</g>
		<path style="fill:#FFE2C5;" d="M415.162,340.934c-2.202-2.763-28.828-91.62-34.691-111.242c3.128-4.276,6.882-8.168,10.348-12.202
			c5.366-6.245,10.332-13.526,10.665-21.752c0.434-10.724-7.07-20.428-7.332-31.157c-4.982,9.52-7.575,20.278-7.478,31.022
			c0.02,2.226,0.123,4.586-0.974,6.523c-0.712,1.258-1.859,2.198-2.944,3.153c-5.754,5.06-10.592,11.68-11.571,19.28
			c-0.35,2.714-0.058,5.747,1.647,7.81c5.607,21.232,24.928,94.812,23.841,96.541c-1.27,2.021-56.46-72.869-56.46-72.869
			l-0.724,32.117c0,0,59.09,61.602,63.766,62.237C407.932,351.029,417.638,344.041,415.162,340.934z"/>
		<g>
			<polygon style="opacity:0.8;fill:#3C3C3B;" points="249.931,292.016 246.312,303.654 258.263,315.842 262.489,301.577 			"/>
		</g>
		<g>
			<polygon style="opacity:0.8;fill:#3C3C3B;" points="339.778,287.49 346.794,295.727 360.421,283.205 352.166,272.084 			"/>
		</g>
		<path style="fill:#F4B9B1;" d="M351.13,316.271c-1.349-9.051-12.076-15.391-11.488-24.405l0.574,1.024l18.859-17.391
			c0,0-7.862-9.291-11.744-13.42c-3.882-4.129-7.115-6.951-7.115-6.951c-1.245-1.224-2.927-1.879-4.558-2.502
			c-15.964-6.096-33.926-12.15-49.634-5.421l0.147,0.184c-38.667,5.681-29.365,39.337-48.831,40.769
			c8.937,8.922,18.337,17.301,19.216,18.622c10.324,15.518,6.403,2.516,8.14,2.808c2.924,0.49,1.707,1.096,2.936,3.794
			c12.383,27.186,18.59,57.164,18.021,87.033c-0.084,4.406-0.319,8.85-1.467,13.105c-2.321,8.605-11.52,17.851-11.906,26.755
			c21.326,0.005,51.413-1.607,72.739-1.603c-6.988-5.703-7.107-8.325-13.698-25.397c-1.33-3.445,13.109-66.787,12.949-70.477
			C343.872,333.558,352.493,325.419,351.13,316.271z"/>
		<path style="fill:#FFE2C5;" d="M278.93,176.132c0,0.937,8.373,59.7,4.345,73.994l29.96,11.952v-11.952
			c0,0-10.482-33.043-12.388-42.727C298.941,197.716,278.93,176.132,278.93,176.132z"/>
		<g>
			<path style="opacity:0.8;fill:#3C3C3B;" d="M280.437,183.988l3.345,36.957l6.013,4.658c4.172,3.232,8.766,5.88,13.653,7.871
				l5.248,2.138l-7.507-26.617L280.437,183.988z"/>
		</g>
		<path style="fill:#FFE2C5;" d="M411.427,113.296l0,0.175c0.014,0.071,0.03,0.144,0.044,0.214
			C411.454,113.555,411.445,113.425,411.427,113.296z"/>
		<path style="fill:#FFE2C5;" d="M280.755,154.869c0.48-1.269,0.292-2.628-0.318-3.817
			C280.541,152.347,280.649,153.621,280.755,154.869z"/>
		<path style="fill:#FFE2C5;" d="M348.923,73.943c-0.243-0.001-0.482,0.007-0.727-0.004c-31.129-1.46-42.13,8.242-57.175,22.968
			c-12.86,12.587-12.081,35.541-10.584,54.146c0.61,1.189,0.799,2.548,0.318,3.817c-0.107-1.248-0.214-2.522-0.318-3.817
			c-0.837-1.63-2.471-2.938-4.306-3.239c-3.174-0.522-6.378,1.37-8.23,4c-1.852,2.63-1.275,4.794-1.735,7.977
			c-0.958,6.636-1.417,8.242,1.191,15.953c1.429,4.226,5.288,1.846,11.673-0.199c0.597,10.16,8.545,33.247,15.029,41.092
			c9.284,11.232,24.319,15.544,38.406,19.27c3.335,0.882,6.801,1.77,10.195,1.153c4.146-0.755,7.552-3.636,10.573-6.574
			c5.655-5.499,10.795-11.684,14.043-18.872c3.247-7.188,4.481-15.487,2.269-23.058c-0.386-1.323-0.88-2.657-0.804-4.033
			c0.182-3.288,3.372-5.453,6.157-7.211c10.986-6.936,20.938-15.809,27.816-26.832c0.017-0.027,0.034-0.054,0.05-0.081
			c3.107-4.997,4.375-10.928,3.823-16.786C402.729,92.655,382.218,77.607,348.923,73.943z"/>
		<g>
			<path style="fill:#F0B895;" d="M354.971,175.743c0,0-0.484,1.418-1.209,3.545c-0.342,1.055-0.723,2.278-1.05,3.592
				c-0.322,1.316-0.571,2.725-0.696,4.138c-0.061,0.732-0.076,1.402-0.07,2.103c0.031,0.693,0.049,1.38,0.143,2.037
				c0.169,1.317,0.472,2.528,0.818,3.553c0.186,0.505,0.37,0.969,0.55,1.378c0.197,0.397,0.361,0.757,0.523,1.039
				c0.31,0.573,0.514,0.9,0.514,0.9s-0.075-0.058-0.216-0.167c-0.136-0.114-0.363-0.26-0.597-0.499
				c-0.251-0.226-0.536-0.52-0.841-0.882c-0.299-0.365-0.621-0.795-0.922-1.299c-0.607-1.001-1.155-2.284-1.481-3.725
				c-0.158-0.721-0.286-1.476-0.338-2.25c-0.053-0.768-0.036-1.594,0.019-2.35c0.136-1.565,0.504-3.093,0.991-4.457
				c0.485-1.366,1.081-2.574,1.661-3.56c0.574-0.99,1.131-1.76,1.539-2.288C354.716,176.026,354.971,175.743,354.971,175.743z"/>
		</g>
		<g>
			<path style="fill:#F0B895;" d="M352.938,200.363c0,0-0.143,0.036-0.348,0.108c-0.207,0.068-0.483,0.172-0.775,0.301
				c-0.293,0.141-0.606,0.297-0.923,0.48c-0.153,0.092-0.312,0.186-0.472,0.282c-0.165,0.105-0.333,0.213-0.501,0.32
				c-0.35,0.227-0.7,0.455-1.028,0.667c-0.18,0.109-0.353,0.215-0.518,0.315c-0.185,0.117-0.316,0.156-0.432,0.222
				c-0.238,0.146-0.429,0.287-0.504,0.426c-0.086,0.15-0.003,0.311-0.009,0.303c0,0-0.035-0.006-0.1-0.018
				c-0.059-0.021-0.181-0.064-0.26-0.197c-0.18-0.263-0.188-0.722-0.024-1.142c0.079-0.225,0.221-0.45,0.319-0.615
				c0.114-0.181,0.243-0.367,0.394-0.549c0.299-0.365,0.679-0.72,1.124-1.012c0.208-0.13,0.493-0.289,0.704-0.368
				c0.262-0.112,0.511-0.183,0.768-0.232c0.508-0.099,1.006-0.079,1.41,0.029c0.406,0.091,0.711,0.273,0.902,0.418
				C352.861,200.251,352.932,200.369,352.938,200.363z"/>
		</g>
		<path style="fill:#FFFFFF;" d="M340.731,171.039c0,0,7.048-19.515-12.264-31.08c-16.945-10.147-27.704,7.639-30.087,12.153
			c-0.372,0.705-0.467,1.522-0.275,2.299C299.201,158.841,305.467,172.994,340.731,171.039z"/>
		<path style="fill:#3C3C3B;fill-opacity:0.09;" d="M299.964,149.061c2.79-0.886,5.604-1.695,8.437-2.426
			c3.118-0.804,6.384-1.514,9.527-0.818c2.069,0.458,3.957,1.501,5.813,2.531c6.357,3.528,12.784,7.107,18.104,12.086
			c0.393-2.838-1.974-5.221-4.131-7.083c-3.508-3.029-7.078-6.098-11.283-8.018c-8.49-3.877-19.155-2.293-26.18,3.889"/>
		<path style="fill:#FFFFFF;" d="M361.683,176.157c0,0,3.724-14.465,15.387-16.331c1.256-0.201,2.465,0.442,2.991,1.599
			c0.959,2.108,1.82,5.908-1.067,10.443C374.548,178.857,369.624,180.445,361.683,176.157z"/>
		
			<ellipse transform="matrix(0.3848 -0.923 0.923 0.3848 58.5019 409.5886)" style="fill:#004D62;" cx="336.523" cy="160.906" rx="6.853" ry="5.488"/>
		
			<ellipse transform="matrix(0.5 -0.866 0.866 0.5 41.1656 409.9873)" style="fill:#004D62;" cx="375.642" cy="169.343" rx="6.142" ry="4.684"/>
		<path style="fill:#3C3C3B;fill-opacity:0.09;" d="M366.222,166.866c0.357-0.119,9.011-5.196,14.749-2.955
			c0,0-3.433-4.668-5.935-3.477S366.222,166.866,366.222,166.866z"/>
		<path style="fill:#FFFFFF;" d="M338.984,222.652c0,0-0.079-6.512,3.216-7.981c0,0-21.953-4.2-28.467-14.448
			C313.734,200.223,316.472,219.912,338.984,222.652z"/>
		<path style="fill:#592202;" d="M367.413,163.531c1.422-3.884,8.476-6.748,12.223-5.079c3.183,1.417,7.82,7.775,10.765,1.174
			c0.219,1.759-1.43,3.678-3.202,3.728c0.41,0.98,1.097,1.249,2.063,0.805c-4.823,5.016-8.302-0.636-12.872-0.607
			c-1.774,0.011-4.919-0.539-10.916,4.406"/>
		<path style="fill:#592202;" d="M319.334,137.019c-7.938-1.103-13.861,2.133-21.023,7.631c-1.376-0.142-2.742-0.452-4.098-0.768
			c-1.135-0.264-2.29-0.537-3.301-1.176c-0.638-0.403-1.2-0.942-1.724-1.517c-1.133-1.246-2.101-2.681-2.864-4.243
			c-0.037,3.449,1.878,6.827,4.67,8.239c-0.902,0.424-1.928-0.002-2.811-0.472c-2.697-1.433-5.349-3.487-6.5-6.587
			c-0.278,0.643-0.011,1.407,0.29,2.037c1.657,3.461,4.344,6.126,6.974,8.712c0.638,0.627,1.57,0.856,2.136,1.494
			c2.308,2.601,18.841-5.06,18.325-4.939c11.676-2.732,23.136,2.216,33.193,13.992l0.955,2.054
			C339.065,147.014,331.603,138.723,319.334,137.019z"/>
		<path style="fill:#E57368;" d="M313.335,198.523c0.938,2.766,3.048,5.017,5.484,6.629c2.435,1.612,5.199,2.649,7.956,3.614
			c2.042,0.715,4.101,1.399,6.22,1.832c3.777,0.772,7.718,0.729,11.477-0.126c1.052-0.239,2.12-0.543,3.191-0.414
			s2.163,0.828,2.358,1.888c0.302,1.645-1.543,2.825-3.139,3.323c-4.453,1.39-9.324,1.408-13.787,0.052
			c-8.308-2.524-15.564-8.344-19.831-15.906c-0.008-0.015-0.018-0.029-0.028-0.043"/>
		<path style="fill:#E57368;" d="M313.95,201.293c2.482,7.859,5.712,11.036,10.4,14.35c2.745,1.94,5.985,3.028,9.174,4.091
			c1.977,0.659,3.954,1.318,5.931,1.977c0.922,0.307,1.956,0.718,2.293,1.63c0.374,1.013-0.383,2.169-1.377,2.592
			c-0.994,0.423-2.129,0.296-3.191,0.099c-10.858-2.019-20.943-11.996-22.853-22.874c-0.162-0.923-0.284-1.107-0.399-2.037"/>
		<path style="fill:#E57368;" d="M339.461,223.644"/>
		<path style="fill:#592202;" d="M352.938,131.132l0.895-3.791c0,0-34.067-11.217-52.887-5.023
			C300.947,122.317,325.6,122.317,352.938,131.132z"/>
		<g>
			<path style="opacity:0.8;fill:#3C3C3B;" d="M327.887,94.682c0,0,49.756,55.546,54.534,62.109c0,0-38.424-62.466-50.778-68.958
				l-4.254-3.562L327.887,94.682z"/>
		</g>
		<path style="fill:#592202;" d="M377.661,135.769c0.894-1.887,3.026-3.109,5.106-2.928c1.107,0.096,2.15,0.546,3.147,1.035
			c6.281,3.084,11.842,8.438,13.373,15.266c0.364,1.626,0.474,3.413-0.316,4.88c-1.661-6.375-7.117-10.974-12.555-14.693
			c-2.582-1.766-5.427-3.496-8.555-3.476c-0.137,0.001-0.312,0.034-0.34,0.168c-0.029,0.134,0.269,0.133,0.19,0.021"/>
		<g>
			<path style="fill:#F56F6C;" d="M331.322,91.176"/>
			<path style="fill:#F56F6C;" d="M425.997,166.242c4.15-142.711-104.201-112.283-113.436-102.371
				c-1.965,2.109-10.288,11.705-10.288,11.705s-9.866,2.956-13.476,5.051c-9.781,5.673-16.898,22.062-19.535,33.057
				c-2.637,10.995,2.859,23.214,3.25,34.514c3.994-0.821,8.07,1.503,10.484,4.789c2.414,3.286,3.486,7.34,4.509,11.287
				c-0.691-5.424-1.383-10.849-2.074-16.273c-0.532-4.171-1.061-8.371-1.323-12.57c1.393-3.84,3.894-7.377,6.817-10.274
				c4.862-4.818,10.227-9.308,16.324-12.418c22.946-11.704,25.025-19.367,21.858-23.63c0.636-0.331,46.643,47.77,58.03,88.051
				c2.04,7.218,4.596,14.468,4.191,21.958c8.452-20.191,4.169-38.121-0.907-59.413c-4.03-16.905-10.597-27.057-28.738-39.305
				c20.818,6.418,43.457,47.737,50.61,64.874c4.827,11.565,9.683,24.401,7.464,36.376
				C423.024,190.042,425.647,178.263,425.997,166.242z"/>
		</g>
		<g>
			<path style="opacity:0.12;fill:#FFFFFF;" d="M346.611,58.796c7.652-1.897,15.617,0.835,22.968,3.684
				c9.107,3.529,18.415,7.495,25.099,14.618c3.712,3.956,6.445,8.72,8.89,13.562c8.228,16.297,13.563,34.049,15.682,52.182
				c-0.054-2.972-1.4-5.751-2.753-8.397c-3.762-7.356-7.809-14.566-12.127-21.609c-5.111-8.335-10.893-16.716-19.339-21.64
				c-5.918-3.45-12.734-4.957-19.412-6.48c-6.679-1.524-13.484-3.17-19.264-6.847c-5.78-3.677-10.446-9.806-10.556-16.655
				c5.705-1.562,11.545-2.634,17.434-3.199"/>
		</g>
		<g>
			<path style="opacity:0.8;fill:#3C3C3B;" d="M277.012,160.944c0.947,0.6,2.252,0.521,3.169-0.122
				c0.917-0.643,1.431-1.791,1.387-2.91c-0.041-1.036-0.526-2.024-1.22-2.795c-2.027-2.25-5.941-2.416-8.151-0.345
				c-1.583,1.483-2.196,3.753-2.269,5.921c-0.02,0.604-0.002,1.221,0.194,1.793c0.181,0.524,0.504,0.988,0.865,1.409
				c2.089,2.442,5.536,3.75,6.804,6.703c0.257-1.579-0.118-3.251-1.024-4.569c-0.896-1.303-2.369-2.578-1.998-4.116
				c0.305-1.267,2.087-1.881,3.108-1.071"/>
		</g>
	</g>
</g>
<g id="Livello_1">
</g>
</svg>
