<?xml version="1.0" encoding="utf-8"?>
<!-- Generator: Adobe Illustrator 21.1.0, SVG Export Plug-In . SVG Version: 6.00 Build 0)  -->
<svg version="1.1" id="Слой_1" xmlns="http://www.w3.org/2000/svg" xmlns:xlink="http://www.w3.org/1999/xlink" x="0px" y="0px"
	 viewBox="0 0 1920 126" style="enable-background:new 0 0 1920 126;" xml:space="preserve">
<style type="text/css">
	.st0{fill-rule:evenodd;clip-rule:evenodd;fill:#F5F5F5;}
</style>
<g>
	<path class="st0" d="M1920,385.7V63.8c-12.5-3-25.6-5.6-43.5-4.5c-4.2-4-14.7-3.1-22.5-4.3c-6.6-2.9-12.9-4.8-20.6-5.8
		c-21.9-2.8-47.5,0.6-69.3-2.9c-9.6-1.5-17-5.3-26.2-7.2c-9.2-2.1-20.1-2.8-28.1-5.8c-28.2-0.8-49-4.9-76.7-2.9
		c-3.7-3.9-15.9-1.2-20.6-4.3c-13.7,0.4-29.4-0.7-46.8,0c-22,0.9-50.4-1.2-67.4,4.3c-5.6,1.8-18.2,7.5-28.1,8.7
		c-18.2,5.7-33.2,13.8-58,14.4c-5.3,2.7-7.8,7.5-16.9,7.2c-20.1,8.6-43.2,12.9-67.4,17.3c-23.6,4.3-49.1,10.1-76.7,10.1
		c-5.9,3.9-11.4,2.5-16.8,4.3c-11.9-0.2-26.3,8.3-39.3,8.7c-8.6,0.3-17.9-3.5-28.1-4.3c-10.6-0.9-21.9,0.6-31.8,0
		c-5.2-0.3-8.3-2.5-13.1-2.9c-11.6-1-26.7,4.4-41.2,4.3c-9.3-0.1-16.3-3.2-26.2-2.9c-3.7,0.1-5.2,1.5-7.5,1.4
		c-20.7-0.7-41-6.3-61.8,0c-5.6-0.6-9-1.3-13.1-1.4c-4.3-0.1-4.4-0.1-9.4,1.4c-11.6,2.5-23.8,2.8-37.4,5.8c-3.3,0.7-6.3,2.6-9.4,2.9
		c-11.3,1.2-23.3,0.6-35.6,1.4c-21.5,1.5-44,2.6-67.4,2.9c-17.3,0.3-30.7-1.9-46.8,0c-4.7,0.5-7.1,2-11.2,2.9
		c-2.3,0.5-5.2-0.5-7.5,0c-3.2,0.7-7.7,4.5-15,4.3c-9.1-0.3-19.9-6.6-29.9-10.1c-10.7-3.7-21.9-7.7-31.8-8.7
		c-14-1.4-28.3,3.6-43,2.9c-10.1-0.5-19.2-4.7-30-5.8c-17.2-1.7-36.2-0.6-52.4-1.4c-3.9-0.2-4.9-1.2-7.5-1.5
		c-3.1-0.2-7.1,1.5-7.5,1.5c-22.8-0.9-41.4-4.5-61.8-8.7c-15.2-3.1-30.6-2.9-44.9-7.2c-0.9-0.3-1.2-2.6-1.9-2.9
		c-10.3-3.6-28.6-0.5-37.4-8.7c-19.1,4.2-39.1,1.5-58,0c-8.9-0.7-18.8-1.9-28.1-2.9c-4-0.4-8.8-2.5-13.1-2.9c-5.4-0.5-10.7,0.8-15,0
		c-7.5-1.4-13-5-20.6-7.2c-23.8-6.8-56.2-7.8-80.5-15.9c-6.1-2-12-5.2-20.6-7.2c-3.5-0.8-7.6-0.5-11.2-1.4c-3.6-0.9-5.7-3.5-9.4-4.3
		C117.3,22.3,104,24,96.7,16C75.3,12.8,61.1,4,33.1,5.9c-6.4-1.2-12.4-4.6-18.7-5.8c-3.9-0.7-9.2,0.6-13.1,0C0.8,0,0.4-0.1,0-0.2
		v385.9H1920z"/>
</g>
</svg>
