<?xml version="1.0" encoding="iso-8859-1"?>
<!-- Generator: Adobe Illustrator 19.2.1, SVG Export Plug-In . SVG Version: 6.00 Build 0)  -->
<!DOCTYPE svg PUBLIC "-//W3C//DTD SVG 1.1//EN" "http://www.w3.org/Graphics/SVG/1.1/DTD/svg11.dtd">
<svg version="1.1" xmlns="http://www.w3.org/2000/svg" xmlns:xlink="http://www.w3.org/1999/xlink" x="0px" y="0px"
	 viewBox="0 0 965.96 965.954" style="enable-background:new 0 0 965.96 965.954;" xml:space="preserve">
<g id="January">
	<path style="fill:#8DCBF2;" d="M965.96,482.98c0,112.55-38.5,216.11-103.05,298.23C774.48,893.7,637.17,965.95,482.98,965.95
		c-99.2,0-191.41-29.91-268.11-81.19c-12.84-8.59-25.25-17.77-37.18-27.51c-5.28-4.32-10.47-8.74-15.56-13.28
		c-7.03-6.24-13.87-12.69-20.51-19.33c-16-15.98-30.87-33.07-44.51-51.16C36.14,692.64,0,592.03,0,482.98
		c0-18.71,1.06-37.18,3.14-55.34c6.43-56.42,22.59-109.89,46.76-158.69c0.59-1.21,1.19-2.41,1.81-3.61
		c7.64-15.13,16.07-29.81,25.22-43.97C162.91,88.17,312.65,0,482.98,0c156.51,0,295.63,74.45,383.89,189.86
		c25.28,33.05,46.38,69.47,62.52,108.46c0.28,0.64,0.54,1.28,0.79,1.92c21.17,51.72,33.61,107.92,35.51,166.79
		C965.87,472.33,965.96,477.64,965.96,482.98z"/>
	<path style="fill:#FFFFFF;" d="M862.91,781.214c-88.43,112.49-225.74,184.74-379.93,184.74c-157.69,0-297.73-75.57-385.87-192.47
		c1.08-0.2,2.17-0.32,3.25-0.33c9.75-0.11,18.64,5.05,27.54,9.04c8.9,3.98,19.52,6.82,28.13,2.24c2.72-1.44,5.23-3.61,8.3-3.83
		c4.71-0.33,8.27,3.93,12.22,6.53c17.76,11.65,41.94-10.98,61.79-3.38c4.59,1.76,8.43,5.01,12.74,7.38
		c33.06,18.21,74.43-20.29,110.13-8.03c6.33,2.18,12.17,5.91,18.77,7c18.2,3.01,37.26-14.53,53.76-6.28
		c12.59-14.28,35.22-18.49,52.1-9.69c4.78,2.49,9.12,5.9,14.21,7.7c5.52,1.96,11.51,1.89,17.36,1.8
		c23.66-0.37,47.32-0.74,70.97-1.11c7.77-0.12,16.02-0.12,22.66,3.91c4.36,2.64,7.87,6.94,12.83,8.11
		c9.71,2.3,17.61-8.3,27.35-10.46c12.01-2.66,24.09,7.96,36.05,5.07c5.11-1.24,9.29-4.78,13.65-7.71
		c17.07-11.45,39.72-14.1,58.97-6.9c14.35,5.37,26.91,15.83,42.08,18.02C822.48,795.534,842.68,782.684,862.91,781.214z"/>
	<g>
		<path style="fill:#E2F0FB;" d="M448.08,245.94c0,1.54-0.06,3.07-0.18,4.59c-2.34,30.28-27.66,54.14-58.55,54.14
			c-14.72,0-28.15-5.43-38.46-14.37c-5.78,4.93-12.92,8.3-20.79,9.46c0.33,2.8,0.52,5.64,0.52,8.52c0,39.81-32.27,72.08-72.07,72.08
			c-27.98,0-52.21-15.95-64.16-39.24c-15.35,16.75-37.41,27.25-61.92,27.25c-46.39,0-83.99-37.6-83.99-84
			c0-5.27,0.48-10.42,1.42-15.42c0.2-1.13,0.43-2.25,0.69-3.36c3.98-17.43,13.38-32.8,26.34-44.22
			c14.8-13.07,34.24-20.99,55.54-20.99c21.66,0,41.4,8.2,56.3,21.66c6.3-5.61,14.6-9.03,23.7-9.03c15.71,0,29.04,10.16,33.8,24.26
			c3.99-0.69,8.09-1.07,12.28-1.07c9.76,0,19.07,1.96,27.57,5.48c6.5-14.43,21-24.49,37.86-24.49c4.56,0,8.94,0.75,13.04,2.1
			c9.71-19.03,29.49-32.08,52.33-32.08C421.78,187.21,448.08,213.5,448.08,245.94z"/>
		<path style="fill:#E2F0FB;" d="M929.39,298.32c-0.74,0.71-1.5,1.39-2.28,2.06c-11.26,9.68-25.91,15.53-41.92,15.53
			c-19.22,0-36.46-8.43-48.25-21.78c-5.13,3.22-11.03,5.31-17.38,5.9c1.42,5.37,2.18,11,2.18,16.8c0,36.26-29.39,65.65-65.65,65.65
			c-36.25,0-65.65-29.39-65.65-65.65c0-3.59,0.3-7.11,0.86-10.55c-7.66,6.03-17.31,9.63-27.82,9.63c-3.17,0-6.26-0.33-9.25-0.95
			c0,0.21,0.01,0.42,0.01,0.64c0,31.42-25.47,56.9-56.89,56.9c-31.43,0-56.9-25.48-56.9-56.9c0-18.11,8.46-34.25,21.65-44.66
			c9.69-7.67,21.93-12.24,35.25-12.24c7.72,0,15.08,1.55,21.79,4.34c3.71-21.14,22.15-37.2,44.34-37.2
			c24.88,0,45.04,20.16,45.04,45.04c0,0.25-0.01,0.51-0.02,0.76c11.96-12.59,28.85-20.45,47.59-20.45c7.09,0,13.9,1.13,20.3,3.21
			c2.88-19.16,19.42-33.86,39.39-33.86c4.2,0,8.24,0.66,12.05,1.86c7.93-15.57,22.01-27.49,39.04-32.54
			C892.15,222.91,913.25,259.33,929.39,298.32z"/>
	</g>
	<path style="fill:#FFFFFF;" d="M930.18,300.24c-1.03,0.02-2.05,0.06-3.07,0.14c-6.72,0.49-13.13,2.11-19.04,4.66
		c-9.3-18.49-27.39-31.78-48.8-34.39c0.04-0.48,0.07-0.97,0.07-1.46c0-10.64-8.62-19.26-19.25-19.26s-19.26,8.62-19.26,19.26
		c0,2.86,0.65,5.56,1.76,8c-11.89,6.14-21.57,15.94-27.58,27.91c-1.37-0.28-2.79-0.43-4.25-0.43c-11.55,0-20.92,9.36-20.92,20.92
		c0,11.19,8.79,20.3,19.84,20.87c0.27,1.28,0.59,2.55,0.93,3.8c-9.67-4.42-20.41-6.91-31.74-6.91c-7.86,0-15.44,1.19-22.58,3.4
		c0.05-1.1,0.09-2.2,0.09-3.31c0-41.36-33.53-74.89-74.89-74.89c-40.82,0-73.99,32.68-74.84,73.3c-7.1-3.42-14.84-5.72-22.98-6.7
		c4.26-9.29,6.65-19.6,6.65-30.48c0-12.17-2.97-23.64-8.22-33.73c-12.19-23.45-36.71-39.47-64.97-39.47
		c-18.96,0-36.24,7.22-49.23,19.06c-5.66,5.14-10.51,11.17-14.34,17.86c-17.58-10.9-38.31-17.2-60.52-17.2
		c-50.71,0-93.75,32.82-109.05,78.38c-4.32-1.69-9.02-2.62-13.94-2.62c-7.76,0-14.98,2.31-21.02,6.26c2.13-6.08,3.3-12.6,3.3-19.41
		c0-32.41-26.28-58.69-58.69-58.69c-0.18,0-0.34,0.01-0.51,0.02c0.45-1.6,0.7-3.27,0.7-5.01c0-10.18-8.25-18.43-18.43-18.43
		s-18.43,8.25-18.43,18.43c0,5.4,2.34,10.24,6.04,13.61c-6.66,4.09-12.43,9.46-16.99,15.78c-15.39-10.33-33.9-16.35-53.82-16.35
		c-7.03,0-13.89,0.75-20.49,2.18c-0.38,0.07-0.75,0.16-1.12,0.25c-0.26,1.11-0.49,2.23-0.69,3.36
		C25.73,317.75,9.57,371.22,3.14,427.64c17.54,17.91,42,29.01,69.06,29.01c11.38,0,22.29-1.97,32.44-5.58
		c-1.52,7.42-2.32,15.11-2.32,22.98c0,63.05,51.11,114.15,114.15,114.15s114.15-51.1,114.15-114.15c0-0.31-0.01-0.62-0.01-0.93
		c13.13,5.22,27.45,8.09,42.43,8.09c49.94,0,92.44-31.83,108.33-76.31c-0.05,1.05-0.08,2.1-0.08,3.16
		c0,40.58,32.89,73.48,73.47,73.48c22.56,0,42.73-10.18,56.21-26.18c0,0.32-0.02,0.64-0.02,0.97c0,28.99,23.5,52.49,52.5,52.49
		c20.82,0,38.82-12.13,47.3-29.71c13.14,10.67,29.88,17.07,48.12,17.07c31.24,0,58.09-18.76,69.94-45.62
		c5.72,3.65,12.51,5.77,19.8,5.77c0.97,0,1.92-0.05,2.87-0.13c9.8,23.48,32.97,39.98,60,39.98c22.64,0,42.58-11.58,54.21-29.15
		C963.79,408.16,951.35,351.96,930.18,300.24z M212.34,357.91c-0.14,0.69-0.25,1.38-0.35,2.09c-0.77,0.03-1.54,0.06-2.31,0.11
		C210.59,359.4,211.47,358.67,212.34,357.91z M487.36,378.8c0.06-0.53,0.11-1.05,0.17-1.58c0.17,0.02,0.34,0.04,0.52,0.06
		C487.82,377.79,487.58,378.29,487.36,378.8z M627.54,418.04c0.34-2.47,0.55-4.99,0.64-7.54c1.83,0.91,3.7,1.75,5.61,2.51
		C631.58,414.53,629.49,416.21,627.54,418.04z"/>
	<g id="man-drinking-cofee_2_">
		<g>
			<g>
				<path style="fill:#2D2D2D;" d="M647.189,786.739c-16.638,0.82-31.41,10.553-47.499,14.871
					c-10.662,2.862-22.297,3.489-31.481,9.615c0.194,2.284,2.678,3.589,4.885,4.205c14.621,4.084,29.686-3.125,43.759-8.815
					c9.499-3.84,19.25-7.057,29.17-9.622c6.101-1.577,12.73-3.188,16.723-8.063c0.878-1.071,1.557-2.756,0.572-3.729
					c-0.418-0.413-1.027-0.556-1.606-0.657c-6.832-1.185-14.198,1.409-18.781,6.612"/>
			</g>
			<g>
				<path style="fill:#FFE2C5;" d="M533.055,183.743c0.357-1.228,0.755-2.443,1.187-3.644L533.055,183.743z"/>
			</g>
			<g>
				<path style="fill:#FFE2C5;" d="M692.579,231.268c-1.16,4.858-2.813,9.929-6.635,13.14c-3.795,3.191-10.334,3.548-13.243-0.432
					c-0.027-0.027-0.048-0.062-0.069-0.089c-0.261,22.713-9.147,45.206-24.387,62.031c-0.919,1.022-1.866,2.024-2.841,3.005
					c-5.99,6.038-12.99,11.35-21.121,13.84c-6.649,2.031-13.737,2.086-20.689,1.88c-9.833-0.302-19.646-1.091-29.396-2.374
					c-9.888-1.304-20.359-3.431-27.454-10.444c-10.972-10.849-9.696-28.628-7.356-43.882c0.604-3.959,1.235-7.973,0.741-11.946
					c-0.398-3.211-1.516-6.285-2.505-9.373c-7.15-22.226-7.987-46.448-2.402-69.113c-0.35,0.858-0.679,1.722-0.981,2.587
					l1.489-4.577c-0.172,0.659-0.343,1.317-0.508,1.976c7.85-19.563,24.511-35.517,44.547-42.194
					c22.13-7.377,47.752-3.239,66.437,10.718c15.576,11.645,26.343,30.762,24.634,50.133c7.843-3.554,17.498,1.969,21.121,9.778
					C695.578,213.75,694.576,222.897,692.579,231.268z"/>
			</g>
			<g>
				<path style="fill:#402106;" d="M646.717,637.457c-0.462,4.828-1.042,9.645-1.742,14.445c-2.725,18.699-7.247,37.157-8.68,55.999
					c-0.72,9.463-0.657,18.992-1.909,28.399c-2.354,17.677-8.318,41.74-5.275,59.311c14.643,0.693,28.18-3.416,42.086-8.054
					c-7.917-15.006-6.738-37.373-5.487-54.293c1.361-18.408,2.825-36.809,4.289-55.209c0.809-10.164,1.62-20.351,3.5-30.372
					c2.207-11.762,5.866-23.195,8.847-34.785c5.335-20.743,8.492-41.974,11.641-63.16c2.078-13.98,4.137-28.404,0.643-42.099
					c-1.316-5.158-3.607-10.374-7.927-13.483c-2.741-1.972-6.07-2.931-9.365-3.671c-26.341-5.917-54.065,0.146-79.045,10.387
					c-6.222,2.551-12.646,5.61-16.458,11.15c-6.979,10.145-6.945,16.311-9.951,33.234c-1.936,15.876-3.041,31.857-3.313,47.852
					c-0.297,17.473,0.398,34.985-1.032,52.402c-1.541,18.753-5.538,37.279-6.264,56.081c-0.494,12.789,0.528,25.66-1.094,38.355
					c-2.41,18.865-10.615,37.658-6.615,56.251c9.053,0.307,18.107,0.615,27.16,0.922c-0.82-21.908-1.627-44.021,2.268-65.596
					c3.122-17.291,9.233-34.025,11.04-51.502c1.033-9.986,0.643-20.085,1.814-30.056c1.014-8.637,3.189-17.089,5.358-25.511
					c3.444-13.373,6.888-26.745,10.332-40.118c0.552-2.143,1.172-4.406,2.776-5.931c1.446-1.375,3.468-1.93,5.416-2.359
					c6.216-1.37,12.606-1.948,18.966-1.716c1.78,0.065,3.656,0.226,5.117,1.243c2.344,1.631,2.841,4.836,3.093,7.681
					C648.506,601.277,648.439,619.446,646.717,637.457z"/>
			</g>
			<g>
				<g>
					<path style="fill:#F0B895;" d="M574.334,305.386c1.726-2.883,4.381-4.729,7.724-5.237c3.537-0.537,5.885,0.927,8.817,2.608
						c3.875,2.221,8.034,2.151,12.1,0.402c5.419-2.331,8.946-7.174,13.982-10.058c2.633-1.508,5.766-2.574,8.828-1.761
						c2.716,0.721,3.849,3.362,6.099,4.777c1.875,1.179,3.598-1.789,1.732-2.963c-2.232-1.404-3.147-3.703-5.745-4.735
						c-2.259-0.898-4.822-0.934-7.185-0.469c-6.866,1.35-10.901,7.365-16.605,10.777c-1.944,1.163-4.194,2.22-6.503,2.353
						c-3.208,0.185-5.011-1.633-7.625-2.968c-2.15-1.098-4.459-1.649-6.884-1.55c-4.929,0.202-9.196,2.916-11.696,7.093
						C570.235,305.553,573.2,307.28,574.334,305.386L574.334,305.386z"/>
				</g>
			</g>
			<g>
				<g>
					<path style="fill:#BF7330;" d="M564.996,187.305c-3.292-3.776-9.067-3.066-12.465,0.229
						c-4.745,4.603-6.575,12.673-8.951,18.622c-0.819,2.05,2.498,2.941,3.308,0.912c1.695-4.244,3.19-8.654,5.176-12.772
						c1.727-3.581,6.576-9.07,10.505-4.565C564.024,191.398,566.442,188.963,564.996,187.305L564.996,187.305z"/>
				</g>
			</g>
			<g>
				<path style="fill:#735653;" d="M739.961,512.85c-2.26,11.179-4.52,22.358-6.78,33.537c-0.111,0.549-0.212,1.16,0.084,1.636
					c0.364,0.584,1.158,0.701,1.846,0.695c6.432-0.061,11.966-6.696,10.871-13.035c-2.039,9.325,4.426,18.71,12.546,23.728
					c4.026,2.488,9.747,4.032,13.123,0.715c3.056-3.003,2.235-8.051,1.036-12.164c-4.267-14.641-10.532-28.698-18.568-41.659
					c-0.665-1.073-1.364-2.162-2.374-2.92c-2.729-2.048-6.919-0.865-9.11,1.75s-2.802,6.197-2.954,9.605"/>
			</g>
			<g>
				<g>
					<path style="fill:#BF7330;" d="M598.406,188.605c9.12-6.387,20.981-4.771,27.663,4.316c1.294,1.76,4.273,0.051,2.963-1.732
						c-7.715-10.491-21.573-13.099-32.357-5.547C594.879,186.9,596.592,189.876,598.406,188.605L598.406,188.605z"/>
				</g>
			</g>
			<g>
				<g>
					<path style="fill:#F0B895;" d="M576.855,248.803c-1.838,5.567-3.675,11.133-5.513,16.7c-1.021,3.093-2.042,6.185-3.063,9.278
						c-0.696,2.109-1.965,4.548-2.003,6.794c-0.117,6.97,15.425,5.932,19.778,5.641c2.191-0.147,2.208-3.579,0-3.431
						c-4.04,0.27-8.023,0.164-12.014-0.618c-2.76-0.541-4.021-0.6-3.678-3.762c0.228-2.097,1.479-4.481,2.144-6.494
						c2.552-7.731,5.105-15.463,7.657-23.194C580.857,247.613,577.545,246.713,576.855,248.803L576.855,248.803z"/>
				</g>
			</g>
			<g>
				<path style="fill:#735653;" d="M704.263,301.498c21.018-4.772,43.704-10.557,57.099-27.442
					c0.458,9.434-5.8,18.809-14.688,22.004c4.973,2.985,11.824,2.423,16.245-1.331c-3.687,7.627-10.54,13.663-18.571,16.357
					c11.307,5.297,25.992,2.039,34-7.541c-1.922,6.363-7.42,11.146-13.508,13.813c-6.088,2.667-12.789,3.523-19.384,4.35
					c5.585,2.08,11.811,2.401,17.58,0.906c-1.927,3.212-5.578,4.934-9.124,6.14c-18.574,6.316-40.184,2.82-55.819-9.03
					c-1.774-1.345-3.507-2.826-4.646-4.74c-2.031-3.414-1.787-8.042,0.59-11.224c2.378-3.182,6.747-4.727,10.596-3.747"/>
			</g>
			<g>
				<path style="opacity:0.8;fill:#3C3C3B;" d="M665.708,201.583c0,0-0.457-27.414-22.644-31.76c0,0,3.936-11.788,19.466-6.008
					S665.708,201.583,665.708,201.583z"/>
			</g>
			<g>
				<path style="fill:#735653;" d="M425.543,392.604c-3.431-3.431-15.363-8.895-17.516-14.261c-0.241-0.601-0.458-1.209-0.654-1.823
					c-2.255-7.05-7.976-12.47-15.125-14.393c-0.475-0.128-0.948-0.259-1.42-0.394c-3.256-0.929-7.213-2.271-10.648-4.226
					c-4.08-1.699-8.159-3.398-12.239-5.097c-6.968-2.902-15.287-5.72-21.668-1.689c-7.355,4.647-7.15,16.244-1.748,23.064
					c5.403,6.819,14.129,9.949,22.475,12.405c17.867,5.257,36.448,14.014,54.963,16.019
					C422.517,400.021,426.765,394.503,425.543,392.604z"/>
			</g>
			<g>
				<path style="opacity:0.5;fill:#3C3C3B;" d="M672.701,243.976c-2.336,45.929-25.407,61.672-35.956,65.003
					c28.278-31.883,29.744-61.016,29.383-82.747C669.764,231.743,671.955,237.658,672.701,243.976
					C672.673,243.949,672.57,243.022,672.701,243.976z"/>
			</g>
			<g>
				<path style="opacity:0.8;fill:#3C3C3B;" d="M541.407,178.678c0.671-0.101,69.406-11.253,84.731-16.459
					c0,0,18.489-11.61,10.845-15.499c-7.643-3.888-50.729,8.904-57.506,11.894C573.199,161.384,541.407,178.678,541.407,178.678z"/>
			</g>
			<g>
				<path style="fill:#590202;" d="M555.164,358.033c-5.484,19.016-11.434,37.897-17.844,56.621
					c-0.919,2.686-2.167,5.699-4.853,6.617c-1.679,0.574-3.517,0.158-5.241-0.261c-36.906-8.973-74.29-18.127-107.659-36.268
					c-2.808,5.341-4.977,11.018-6.447,16.871c38.663,15.513,77.895,29.607,117.591,42.244c3.526,1.122,7.403,2.225,10.834,0.839
					c2.946-1.19,4.897-3.962,6.678-6.593c8.258-12.195,16.515-24.39,24.773-36.585c-7.017,35.129-6.926,151.695-5.151,151.655
					c39.444-0.893,85.036-0.958,124.228-5.49c1.714-0.198,6.925-1.852,8.401-2.745c2.946-1.782-11.964-135.54-1.253-177.17
					c11.299,27.967,17.277,57.744,23.196,87.321c4.189,20.932,8.378,41.864,12.567,62.796c5.818-1.549,11.494-3.63,16.933-6.209
					c1.418-0.672,2.862-1.411,3.863-2.619c1.482-1.789,1.735-4.273,1.796-6.595c0.716-27.1-15.679-51.515-21.333-78.028
					c-1.854-8.697-2.541-17.592-3.643-26.416c-1.254-10.045-3.048-20.015-4.842-29.978c-1.968-10.934-3.936-21.868-5.905-32.802
					c-0.774-4.297-1.703-8.897-4.852-11.921c-2.593-2.491-6.254-3.469-9.772-4.214c-34.826-7.372-70.912-0.725-105.884,5.923
					c-10.748,2.043-21.784,4.197-31.034,10.038c-9.251,5.842-16.436,16.305-15.141,27.169"/>
			</g>
			<g>
				<path style="opacity:0.55;fill:#3C3C3B;" d="M679.997,194.125l-5.344,27.931c-0.231,1.208-1.016,2.238-2.119,2.782l-4.995,2.461
					L679.997,194.125z"/>
			</g>
			<g>
				<path style="fill:#805F5C;" d="M555.906,319.137c-5.299,3.869-6.481,12.298-2.451,17.475c-5.157,0.807-7.922,7.414-5.956,12.249
					c1.967,4.835,7.283,7.647,12.484,8.093c5.2,0.446,10.354-1.055,15.323-2.65c18.394-5.902,36.303-13.319,54.928-18.449
					c18.625-5.13,38.298-7.931,57.284-4.363c1.553,0.292,3.187,0.622,4.684,0.117c1.457-0.491,2.549-1.697,3.481-2.92
					c5.034-6.604,7.385-15.196,6.414-23.443c-0.525-4.46-2.131-9.021-5.559-11.922c-3.428-2.901-8.971-3.568-12.347-0.606
					c-1.711-7.919-12.734-10.117-20.044-6.623c-7.31,3.494-12.28,10.41-18.486,15.618c-10.443,8.764-24.251,12.517-37.814,13.889
					c-13.564,1.372-27.259,0.609-40.858,1.567c-5.198,0.366-11.734,2.273-12.201,7.463"/>
			</g>
			<g>
				<g>
					<path style="fill:#BF7330;" d="M679.997,196.794c-0.03-0.001-0.06-0.003-0.09-0.004c-0.098,0.058-0.189,0.118-0.289,0.175
						L679.997,196.794z"/>
				</g>
				<g>
					<path style="fill:#BF7330;" d="M699.451,145.764c0.213-2.576-13.968-19.971-14.549-22.489
						c-1.231-5.328-5.729-9.223-10.232-12.325c-10.611-7.309-22.722-12.429-35.358-14.948c-22.092-4.404-45.053-0.831-66.74,5.261
						c-9.216,2.589-18.387,5.666-26.613,10.56c-9.085,5.404-16.757,12.863-25.385,18.97c-12.322,8.721-26.619,14.633-41.502,17.161
						c10.008,7.126,22.686,10.405,34.894,9.026c-6.855,9.502-18.736,15.144-30.433,14.45c24.442,13.856,54.883,9.018,82.159,2.278
						c11.524-2.848,22.982-5.964,34.362-9.345c9.88-2.936,20.016-6.245,27.738-13.072c-3.611,6.835-8.987,12.728-15.463,16.948
						c4.618,2.373,10.343,1.63,14.999-0.667c4.656-2.297,8.467-5.968,12.197-9.58c-0.327,6.333-2.546,12.556-6.299,17.667
						c7.18-2.432,14.36-4.864,21.541-7.296c1.617-0.548,3.349-1.101,4.999-0.664c3.26,0.864,4.346,4.861,4.866,8.193
						c0.881,5.647,1.761,11.293,2.642,16.94c0.031,0.198,0.066,0.399,0.104,0.6c-1.429,4.451-3.022,8.871-4.407,13.322
						c-2.721,8.747-4.658,17.737-5.778,26.829c3.367-1.434,6.735-2.868,10.102-4.302c0.77-0.328,1.566-0.674,2.125-1.297
						c0.624-0.696,0.87-1.642,1.1-2.548c2.466-9.711,5.476-19.284,8.987-28.668c0.134,0.007,0.268,0.013,0.402,0.02
						C697.948,186.226,697.646,167.636,699.451,145.764z"/>
				</g>
			</g>
			<g>
				<path style="opacity:0.19;fill:#3C3C3B;" d="M522.524,134.369c0,0,2.124,5.648,3.66,5.328
					c1.536-0.32,96.752-20.881,141.355,4.507c0,0-30.192-47.118-129.918-24.931C537.62,119.273,526.641,116.757,522.524,134.369z"/>
			</g>
			<g>
				<path style="opacity:0.12;fill:#FFFFFF;" d="M489.13,148.55c0,0,29.506-12.426,33.852-16.849
					c4.346-4.423,9.835,9.53-1.372,12.961C510.401,148.093,489.13,148.55,489.13,148.55z"/>
			</g>
			<g>
				<path style="fill:#590202;" d="M554.545,80.69c8.867-12.731,23.016-21.097,37.921-25.404s30.628-4.879,46.138-4.517
					c18.654,0.435,37.505,2.227,55.088,8.472s33.932,17.312,43.774,33.163c9.842,15.852,12.314,36.795,3.796,53.396
					c-1.101,2.146-2.432,4.272-4.432,5.62c-3.366,2.269-7.881,1.851-11.742,0.597c-12.264-3.985-20.778-14.772-29.854-23.933
					c-23.788-24.012-56.075-39.429-89.703-42.832c-16.67-1.687-33.799-0.558-49.881-5.26"/>
			</g>
			<g>
				<path style="fill:#805F5C;" d="M523.662,92.096c-3.563,3.926-7.307,8.201-8.412,13.624c-1.105,5.423,1.909,11.994,6.716,11.643
					c-3.402,2.772-6.132,7.211-5.981,11.847c0.152,4.637,4.064,8.813,8.033,7.54c1.97-0.632,3.547-2.354,5.198-3.79
					c5.701-4.957,12.858-6.81,19.771-8.262c38.773-8.142,80.819-7.188,112.42,17.013c11.007,8.43,20.959,20.888,21.449,36.411
					c0.092,2.925-0.15,5.946,0.61,8.697s2.908,5.219,5.468,4.882c4.017-0.529,5.386-6.603,8.416-9.831
					c1.702-1.813,3.969-2.707,5.86-4.247c7.409-6.035,6.339-18.618,3.823-28.16c-4.669-17.705-11.475-34.867-22.244-48.345
					c-14.695-18.392-36.037-28.771-58.079-32.009c-22.041-3.238-44.82,0.233-66.844,6.485c-13.412,3.807-27.164,8.973-37.546,19.798
					"/>
			</g>
			<g>
				<path style="fill:#2D2D2D;" d="M560.044,793.994c-0.869-1.363-2.742-1.576-4.358-1.621c-20.188-0.565-40.225,3.119-60.084,6.789
					c0.742,2.649,3.832,3.753,6.515,4.363c23.549,5.363,48.748,3.222,71.055-6.037c2.126-0.882,4.638-2.658,3.948-4.854"/>
			</g>
			<path style="fill:#FFFFFF;" d="M636.882,224.084c-0.535,2.855-3.163,4.79-5.688,6.231c-9.545,5.428-20.682,8.015-31.647,7.328
				c-0.082,0-0.158-0.007-0.24-0.014c-2.957-0.192-6.622-1.304-6.985-4.247l-1.112-0.055c-1.544-5.62-0.178-11.528,2.786-16.64
				c1.558-2.697,3.554-5.167,5.805-7.267c4.069-3.795,9.085-6.745,14.581-7.603c5.496-0.851,11.487,0.604,15.432,4.529
				c0.027,0.027,0.048,0.048,0.069,0.075c3.314,3.335,4.893,7.98,6.286,12.475c0.364,1.153,0.714,2.354,0.796,3.554
				C636.998,222.993,636.985,223.542,636.882,224.084z"/>
			<path style="fill:#FFFFFF;" d="M568.977,233.279c-0.11,1.729-0.261,3.561-1.249,4.989l-0.089-0.048
				c-0.055,0.645-0.11,1.29-0.165,1.935c-0.24,0.076-0.487,0.144-0.727,0.213c-7.747,2.086-16.503,0.021-22.486-5.345
				c-0.721-0.645-1.414-1.359-1.777-2.258c-0.371-0.926-0.343-1.935-0.178-2.93c0.076-0.419,0.172-0.844,0.274-1.256
				c0.789-3.156,1.928-6.224,3.376-9.14c0.124-0.247,0.254-0.494,0.391-0.741c1.187-2.23,2.8-4.364,5.194-5.037
				c1.654-0.467,3.424-0.144,5.098,0.254c3.657,0.871,7.431,2.258,9.771,5.201c0.473,0.59,0.865,1.221,1.187,1.88
				C569.416,224.612,569.251,229.127,568.977,233.279z"/>
			<circle style="fill:#A68B85;" cx="597.441" cy="234.294" r="5.635"/>
			<circle style="fill:#A68B85;" cx="549.378" cy="236.952" r="5.131"/>
			<g>
				<g>
					<path style="fill:#E7E2DA;" d="M322.482,309.353c-6.554,7.157-12.247,15.488-14.263,24.981
						c-2.016,9.493,0.232,20.299,7.47,26.764c5.409,4.831,12.941,6.743,20.192,6.646s14.344-2.021,21.309-4.042
						c3.909-1.134,8.4-2.886,9.437-6.822c0.528-2.003-0.011-4.114-0.549-6.115c-1.348-5.017-2.711-10.076-5.066-14.707
						c-6.468-12.717-19.676-20.72-33.198-25.271c-1.951-0.657-5.121-3.073-4.812-1.037"/>
				</g>
				<g>
					<path style="fill:#E7E2DA;" d="M362.577,349.113c-0.033,1.387,1.481,1.891,2.765,2.23c5.393,1.425,10.122,4.144,13.747,7.905
						c0.921,0.956,1.792,2.019,2.054,3.404c0.54,2.854-1.578,6.187-3.663,9.034c-2.479,3.385-5.733,7.11-9.535,7.606
						c-1.768,0.231-3.336-0.312-4.748-0.975c-6.914-3.243-11.615-9.673-12.798-17.501c-0.224-1.485,0.45-3.905,2.061-3.958
						c0.684-0.022,1.118,0.479,1.495,0.941c2.739,3.363,6.03,6.255,9.769,8.583c0.886,0.552,1.842,1.084,3.011,1.084
						s2.607-0.693,3.185-1.842c0.719-1.429-0.159-2.706-1.01-3.659c-2.706-3.03-5.412-6.061-8.118-9.091"/>
				</g>
				<path style="fill:#8C5042;" d="M325.333,312.019c0,0,8.92,36.47,34.309,35.784C359.642,347.803,348.663,317.064,325.333,312.019
					z"/>
			</g>
			<path style="fill:#735653;" d="M394.76,370.252c-2.911-5.858-8.26-10.456-14.488-12.456c-1.806-0.58-3.873-0.924-5.526,0.005
				c-1.556,0.874-2.369,2.714-2.478,4.495c-0.216,3.525,1.947,6.857,4.772,8.977c2.824,2.121,6.251,3.248,9.609,4.341
				c2.039,0.664,4.079,1.327,6.118,1.991"/>
			<path style="fill:#8C5042;" d="M372.219,392.357c-0.041-0.117-0.082-0.24-0.124-0.357c0.158,2.999,0.261,5.997,0.295,9.003
				c0.062,4.646-0.021,9.291-0.247,13.93c-1.784-4.618-3.39-9.298-4.824-14.039c-0.796-2.628-1.544-5.284-2.23-7.946
				c-0.13,1.215-0.261,2.422-0.391,3.637v0.007c-0.391,3.651-0.789,7.294-1.18,10.945c-1.606-5.908-3.211-11.809-4.817-17.717
				l-2.738-10.066c-0.357,1.352-0.714,2.704-1.07,4.055c-0.453,1.688-0.899,3.376-1.345,5.071c-0.275-2.306-0.549-4.618-0.817-6.924
				c-0.858-7.26-1.715-14.506-2.573-21.759c-0.583-4.995-1.18-9.998-2.333-14.897c-0.46-0.089-0.796-0.81-0.522-1.276
				c0.336-0.576,1.091-0.741,1.757-0.762c5.833-0.206,10.005,5.407,12.887,10.485c6.732,11.85,12.626,24.792,13.442,38.248
				c0.13,2.017,0.137,4.055,0.021,6.093C374.024,396.378,372.94,394.437,372.219,392.357z"/>
			<g>
				<path style="fill:#A1CAF1;" d="M372.219,392.357c-0.041-0.117-0.082-0.24-0.124-0.357c0.158,2.999,0.261,5.997,0.295,9.003
					c0.062,4.646-0.021,9.291-0.247,13.93c-1.784-4.618-3.39-9.298-4.824-14.039c-0.796-2.628-1.544-5.284-2.23-7.946
					c-0.13,1.215-0.261,2.422-0.391,3.637v0.007c-0.391,3.651-0.789,7.294-1.18,10.945c-1.606-5.908-3.211-11.809-4.817-17.717
					l-2.738-10.066c-0.357,1.352-0.714,2.704-1.07,4.055c-0.453,1.688-0.899,3.376-1.345,5.071
					c-0.275-2.306-0.549-4.618-0.817-6.924c-0.858-7.26-1.715-14.506-2.573-21.759c-0.583-4.995-1.18-9.998-2.333-14.897
					c-0.46-0.089-0.796-0.81-0.522-1.276c0.336-0.576,1.091-0.741,1.757-0.762c5.833-0.206,10.005,5.407,12.887,10.485
					c6.732,11.85,12.626,24.792,13.442,38.248c0.13,2.017,0.137,4.055,0.021,6.093C374.024,396.378,372.94,394.437,372.219,392.357z
					"/>
			</g>
			<g>
				<path style="fill:#A1CAF1;" d="M374.141,383.173c-2.341,2.015-3.693,5.531-7.479,1.745c0-0.942-1.884,1.884-2.826,3.768
					c-1.884-5.652-1.884-13.188-7.536-16.014c-0.869-0.869-2.541,1.469-4.275,3.316c0.235,1.989,0.47,3.975,0.706,5.966
					c0.268,2.306,0.542,4.618,0.817,6.924c0.446-1.695,0.892-3.383,1.345-5.071c0.357-1.352,0.714-2.704,1.07-4.055l2.738,10.066
					c1.606,5.908,3.211,11.809,4.817,17.717c0.391-3.651,0.789-7.294,1.18-10.945v-0.007c0.13-1.215,0.261-2.422,0.391-3.637
					c0.686,2.662,1.434,5.318,2.23,7.946c1.434,4.742,3.04,9.421,4.824,14.039c0.226-4.639,0.309-9.284,0.247-13.93
					c-0.034-3.006-0.137-6.004-0.295-9.003c0.041,0.117,0.082,0.24,0.124,0.357c0.721,2.079,1.805,4.021,3.191,5.73
					c0.117-2.038,0.11-4.076-0.021-6.093C375.209,389.026,374.77,386.085,374.141,383.173z"/>
			</g>
			<g>
				<path style="opacity:0.8;fill:#3C3C3B;" d="M682.336,216.638c-1.302-0.164-2.449-1.201-2.741-2.481s0.288-2.712,1.389-3.426
					c1.788-1.16,4.385-0.174,5.484,1.653c1.099,1.826,0.976,4.161,0.331,6.192c-0.645,2.031-1.758,3.878-2.591,5.84
					c-0.981,2.311-1.573,4.786-1.743,7.29c-0.036,0.525,0.09,1.228,0.614,1.279c-1.767-1.781-2.557-4.477-2.031-6.93
					c0.626-2.922,2.956-5.427,2.882-8.415c-0.015-0.626-0.203-1.337-0.766-1.613c-0.563-0.276-1.405,0.36-1.077,0.894"/>
			</g>
			<g>
				<path style="opacity:0.12;fill:#FFFFFF;" d="M564.449,138.77c-16.131,14.957-36.2,25.63-57.619,30.643
					c6.249,1.836,12.913-0.126,19.128-2.076c7.413-2.327,14.825-4.654,22.238-6.981c12.288-3.857,24.746-7.746,37.612-8.327
					c1.34,1.405-0.281,3.635-1.889,4.723c-2.22,1.502-4.631,2.723-7.157,3.622c9.301-2.105,18.602-4.21,27.902-6.316
					c3.251-0.736,6.568-1.498,9.415-3.231c3.517-2.142,6.11-5.75,7.018-9.767c0.804-3.555,0.161-7.649-2.498-10.142
					c-2.325-2.18-5.695-2.769-8.87-3.05c-16.629-1.474-33.722,2.992-47.506,12.41"/>
			</g>
			<g>
				<path style="opacity:0.19;fill:#3C3C3B;" d="M673.768,105.092c0,0-71.047-48.376-132.36-8.234c0,0-5.402,7.891,2.839,8.234
					c0,0-10.877,6.368-4.577,10.904C545.969,120.531,620.756,86.565,673.768,105.092z"/>
			</g>
			<g>
				<path style="opacity:0.19;fill:#3C3C3B;" d="M677.417,72.906c11.397,5.623,20.588,15.581,25.283,27.391
					c3.728,9.38,5.064,20.391,12.53,27.184c2.916,2.653,6.987,4.467,10.797,3.456c5.385-1.43,7.944-7.717,8.148-13.285
					c0.254-6.93-1.873-13.727-4.466-20.158c-1.61-3.994-3.436-7.957-6.118-11.327c-4.526-5.687-11.24-9.322-18.235-11.298
					c-6.995-1.976-14.321-2.421-21.584-2.687c-1.781-0.065-3.942,0.086-4.774,1.663"/>
			</g>
			<g>
				<path style="opacity:0.8;fill:#3C3C3B;" d="M635.53,309.377c0.405-0.137,0.81-0.274,1.215-0.398
					c-0.247,0.405-0.508,0.803-0.768,1.194l-0.563-0.268c0.089,0.247-0.439,0.213-0.425-0.041
					C635.001,309.603,635.283,309.466,635.53,309.377z"/>
			</g>
			<path style="fill:#3C3C3B;fill-opacity:0.08;" d="M590.372,220.529c0.158-0.213,0.323-0.419,0.494-0.624
				c-0.014,0.069-0.027,0.137-0.041,0.206L590.372,220.529z"/>
			<path style="opacity:0.53;fill:#3C3C3B;fill-opacity:0.08;" d="M629.883,206.421c-3.314-0.075-6.663,0.233-9.957,0.652
				c-5.517,0.714-11.034,1.736-16.201,3.801c-3.52,1.407-6.876,3.328-9.73,5.812c1.558-2.697,3.554-5.167,5.805-7.267
				c4.069-3.795,9.085-6.745,14.581-7.603c5.496-0.851,11.487,0.604,15.432,4.529C629.841,206.373,629.862,206.394,629.883,206.421z
				"/>
			<path style="opacity:0.53;fill:#3C3C3B;fill-opacity:0.08;" d="M567.597,220.996c-2.93-1.777-6.354-2.813-9.778-3.15
				c-3.836-0.384-7.699,0.027-11.473,0.851c1.187-2.23,2.8-4.364,5.194-5.037c1.654-0.467,3.424-0.144,5.098,0.254
				c3.657,0.871,7.431,2.258,9.771,5.201C566.884,219.706,567.275,220.337,567.597,220.996z"/>
		</g>
		<path style="fill:#3C3C3B;fill-opacity:0.37;" d="M589.54,796.314l-427.41,47.66c-7.03-6.24-13.87-12.69-20.51-19.33l429.35-33.76
			L589.54,796.314z"/>
		<path style="fill:#3C3C3B;fill-opacity:0.37;" d="M655.16,790.884l-47.63,24.92l-392.66,68.96
			c-12.84-8.59-25.25-17.77-37.18-27.51L655.16,790.884z"/>
		<path style="fill:#FFB05A;" d="M323.736,452.282l5.685-84.625l-28.627,76.584c-11.461-2.946-23.475-4.513-35.855-4.513
			c-79.3,0-143.59,64.29-143.59,143.6c0,79.3,64.29,143.59,143.59,143.59c12.73,0,25.06-1.65,36.81-4.76
			c0.43-0.11,0.86-0.23,1.29-0.35c22.28-6.11,42.39-17.46,58.93-32.64c9.33-8.55,17.53-18.32,24.34-29.06
			c14.08-22.2,22.23-48.54,22.23-76.78C408.539,524.969,373.727,474.745,323.736,452.282z"/>
		<g>
			<g>
				<path style="fill:#735653;" d="M386.309,660.109c-6.81,10.74-15.01,20.51-24.34,29.06c-17.82-5.47-35.54-12.23-52.98-18.1
					c-5.6-1.88-11.18-3.68-16.72-5.31c-0.97-0.29-1.95-0.58-2.93-0.88c-1.9-0.57-3.81-1.17-5.71-1.79
					c-4.26-1.41-8.49-2.96-12.57-4.76c-0.95-0.41-1.88-0.83-2.81-1.28c-1.98-0.94-3.93-1.95-5.82-3.04
					c-6.34-3.64-12.05-8.12-16.61-13.88c-3.06-3.86-5.31-8.46-6.65-13.3c-3.58-12.85-0.78-27.4,10.26-34.37
					c1.61-1.02,3.28-1.83,5-2.44c6.72-2.43,14.17-2.02,21.6-0.29c2.01,0.47,4.03,1.03,6.02,1.66c1.16,0.37,2.32,0.76,3.47,1.17
					c0.98,0.35,1.94,0.7,2.9,1.07c0.83,0.32,1.65,0.64,2.47,0.96c1.12,0.45,2.23,0.9,3.32,1.36c3.58,1.49,7.16,2.98,10.75,4.48
					c4.85,2.01,9.7,4.03,14.55,6.05c0.98,0.56,1.99,1.1,3.01,1.61c1.74,0.88,3.53,1.69,5.33,2.44c0.02,0.01,0.03,0.02,0.05,0.03
					c4.69,1.94,9.43,3.47,13.61,4.66c0.98,0.28,1.96,0.55,2.94,0.81c14.77,3.97,26.6,15.17,31.26,29.75
					c0.4,1.26,0.85,2.52,1.35,3.76C378.479,653.089,381.979,656.659,386.309,660.109z"/>
			</g>
			<g>
				<g>
					<path style="fill:#E7E2DA;" d="M200.261,506.958c-13.545,14.792-25.311,32.009-29.478,51.628
						c-4.167,19.619,0.48,41.952,15.438,55.313c11.179,9.985,26.744,13.937,41.732,13.734s29.644-4.177,44.039-8.354
						c8.078-2.344,17.36-5.964,19.503-14.098c1.09-4.139-0.024-8.503-1.134-12.638c-2.785-10.369-5.604-20.825-10.471-30.394
						c-13.367-26.283-40.664-42.823-68.611-52.228c-4.033-1.357-10.583-6.351-9.945-2.143L200.261,506.958z"/>
				</g>
				<g>
					<path style="fill:#E7E2DA;" d="M283.126,589.13c-0.067,2.867,3.061,3.908,5.715,4.609c11.147,2.945,20.92,8.565,28.411,16.338
						c1.904,1.976,3.704,4.173,4.246,7.036c1.116,5.898-3.262,12.786-7.57,18.67c-5.123,6.996-11.848,14.693-19.707,15.719
						c-3.653,0.477-6.894-0.644-9.814-2.014c-14.288-6.703-24.005-19.99-26.45-36.169c-0.464-3.07,0.929-8.071,4.259-8.18
						c1.413-0.047,2.311,0.991,3.089,1.946c5.66,6.95,12.463,12.927,20.189,17.738c1.831,1.14,3.806,2.24,6.223,2.239
						c2.417,0,5.387-1.432,6.582-3.806c1.487-2.954-0.329-5.592-2.088-7.562c-5.593-6.263-11.185-12.526-16.778-18.789
						L283.126,589.13z"/>
				</g>
				<path style="fill:#8C5042;" d="M206.153,512.468c0,0,18.436,75.373,70.908,73.955
					C277.06,586.423,254.37,522.893,206.153,512.468z"/>
			</g>
			<path style="fill:#735653;" d="M349.637,632.819c-6.016-12.107-17.07-21.61-29.942-25.743c-3.733-1.198-8.003-1.909-11.422,0.011
				c-3.216,1.807-4.896,5.609-5.122,9.291c-0.447,7.285,4.025,14.171,9.862,18.553c5.837,4.383,12.919,6.713,19.859,8.972
				c4.215,1.372,8.429,2.743,12.644,4.115L349.637,632.819z"/>
			<path style="fill:#8C5042;" d="M303.053,678.504c-0.085-0.241-0.17-0.496-0.255-0.737c0.326,6.197,0.539,12.395,0.61,18.606
				c0.128,9.601-0.042,19.202-0.51,28.788c-3.687-9.544-7.006-19.216-9.97-29.015c-1.645-5.431-3.191-10.92-4.609-16.422
				c-0.269,2.51-0.539,5.006-0.808,7.516v0.014c-0.808,7.545-1.631,15.075-2.439,22.62c-3.318-12.21-6.637-24.406-9.955-36.617
				l-5.658-20.804c-0.737,2.794-1.475,5.587-2.212,8.381c-0.936,3.489-1.858,6.977-2.78,10.48
				c-0.567-4.765-1.134-9.544-1.688-14.309c-1.773-15.004-3.545-29.98-5.318-44.97c-1.206-10.324-2.439-20.662-4.822-30.788
				c-0.95-0.184-1.645-1.673-1.078-2.638c0.695-1.191,2.255-1.532,3.63-1.574c12.054-0.425,20.677,11.175,26.633,21.669
				c13.912,24.492,26.094,51.238,27.782,79.048c0.269,4.169,0.284,8.381,0.043,12.593
				C306.783,686.814,304.542,682.801,303.053,678.504z"/>
			<g>
				<path style="fill:#A1CAF1;" d="M303.053,678.504c-0.085-0.241-0.17-0.496-0.255-0.737c0.326,6.197,0.539,12.395,0.61,18.606
					c0.128,9.601-0.042,19.202-0.51,28.788c-3.687-9.544-7.006-19.216-9.97-29.015c-1.645-5.431-3.191-10.92-4.609-16.422
					c-0.269,2.51-0.539,5.006-0.808,7.516v0.014c-0.808,7.545-1.631,15.075-2.439,22.62c-3.318-12.21-6.637-24.406-9.955-36.617
					l-5.658-20.804c-0.737,2.794-1.475,5.587-2.212,8.381c-0.936,3.489-1.858,6.977-2.78,10.48
					c-0.567-4.765-1.134-9.544-1.688-14.309c-1.773-15.004-3.545-29.98-5.318-44.97c-1.206-10.324-2.439-20.662-4.822-30.788
					c-0.95-0.184-1.645-1.673-1.078-2.638c0.695-1.191,2.255-1.532,3.63-1.574c12.054-0.425,20.677,11.175,26.633,21.669
					c13.912,24.492,26.094,51.238,27.782,79.048c0.269,4.169,0.284,8.381,0.043,12.593
					C306.783,686.814,304.542,682.801,303.053,678.504z"/>
			</g>
			<g>
				<path style="fill:#A1CAF1;" d="M307.026,659.523c-4.838,4.165-7.633,11.43-15.457,3.607c0-1.947-3.894,3.894-5.84,7.787
					c-3.894-11.681-3.894-27.255-15.574-33.095c-1.797-1.797-5.252,3.037-8.835,6.854c0.486,4.11,0.972,8.216,1.458,12.329
					c0.553,4.765,1.12,9.544,1.688,14.309c0.922-3.503,1.844-6.992,2.779-10.48c0.737-2.794,1.475-5.588,2.212-8.381l5.659,20.804
					c3.318,12.21,6.637,24.406,9.955,36.617c0.808-7.545,1.631-15.075,2.439-22.62v-0.014c0.27-2.51,0.539-5.006,0.808-7.516
					c1.418,5.502,2.964,10.991,4.609,16.422c2.964,9.799,6.282,19.471,9.97,29.015c0.468-9.587,0.638-19.188,0.51-28.788
					c-0.071-6.212-0.284-12.409-0.61-18.606c0.085,0.241,0.17,0.496,0.255,0.737c1.489,4.297,3.73,8.31,6.594,11.842
					c0.241-4.212,0.227-8.424-0.043-12.593C309.233,671.618,308.325,665.54,307.026,659.523z"/>
			</g>
		</g>
	</g>
</g>
<g id="Livello_1">
</g>
</svg>
