<?xml version="1.0" encoding="iso-8859-1"?>
<!-- Generator: Adobe Illustrator 19.2.1, SVG Export Plug-In . SVG Version: 6.00 Build 0)  -->
<!DOCTYPE svg PUBLIC "-//W3C//DTD SVG 1.1//EN" "http://www.w3.org/Graphics/SVG/1.1/DTD/svg11.dtd">
<svg version="1.1" xmlns="http://www.w3.org/2000/svg" xmlns:xlink="http://www.w3.org/1999/xlink" x="0px" y="0px"
	 viewBox="0 0 965.96 965.954" style="enable-background:new 0 0 965.96 965.954;" xml:space="preserve">
<g id="July">
	<path style="fill:#BDF3FF;" d="M965.96,482.98c0,1.48-0.01,2.97-0.03,4.45c-0.43,45.89-7.6,90.5-20.55,132.85
		c-1.32,4.33-2.7,8.64-4.15,12.93c-10.81,32.09-24.96,62.8-42.03,91.67c-8.45,14.31-17.61,28.18-27.43,41.54
		c-15.56,21.15-32.78,41.04-51.44,59.45c-77.72,76.73-180.54,127.9-293.46,138.17c-14.48,1.32-29.12,1.97-43.89,1.91
		c-135.39-0.54-259.22-58.37-347.59-150.32c-18.21-18.94-34.91-39.33-49.9-60.97c-11.59-16.75-22.17-34.24-31.62-52.38
		c-14.97-28.74-27.12-59.12-36.06-90.77c-0.22-0.78-0.44-1.55-0.65-2.33C5.99,568.89,0,526.57,0,482.98
		c0-6.11,0.11-12.19,0.34-18.24C9.93,206.45,222.35,0,482.98,0C749.72,0,965.96,216.24,965.96,482.98z"/>
	<path style="fill:#8DCBF2;" d="M965.93,487.43c-0.43,45.89-7.6,90.5-20.55,132.85c-1.32,4.33-2.7,8.64-4.15,12.93
		c-10.81,32.09-24.96,62.8-42.03,91.67c-8.45,14.31-17.61,28.18-27.43,41.54l-266.67-3.99l-27.62-0.41c-0.01,0-0.01,0-0.01,0
		l-161.05-2.41c-0.01,0-0.01,0-0.01,0l-23.76-0.36c-0.01,0-0.02,0-0.02,0l-63.82-0.95l-11.34-0.17l-231.98-3.47
		c-11.59-16.75-22.17-34.24-31.62-52.38c-14.97-28.74-27.12-59.12-36.06-90.77c-0.22-0.78-0.44-1.55-0.65-2.33
		C5.99,568.89,0,526.57,0,482.98c0-6.11,0.11-12.19,0.34-18.24l406.39,9.55l129.53,3.04L965.93,487.43z"/>
	<path style="fill:#EFC94C;" d="M945.38,620.28c-1.32,4.33-2.7,8.64-4.15,12.93c-10.81,32.09-24.96,62.8-42.03,91.67
		c-8.45,14.31-17.61,28.18-27.43,41.54c-15.56,21.15-32.78,41.04-51.44,59.45c-43.65,43.09-95.22,78.13-152.05,102.38
		c-22.16,9.46-45.12,17.28-68.72,23.29c-0.22,0.06-0.43,0.11-0.65,0.17c-23.43,5.94-47.5,10.1-72.04,12.33
		c-14.48,1.32-29.12,1.97-43.89,1.91c-12.58-0.05-25.05-0.59-37.41-1.61c-1.16-0.1-2.33-0.2-3.49-0.31
		c-24.61-2.21-48.74-6.31-72.23-12.15c-90.41-22.47-171.45-70.69-234.46-136.25c-18.21-18.94-34.91-39.33-49.9-60.97
		c-11.59-16.75-22.17-34.24-31.62-52.38c-14.97-28.74-27.12-59.12-36.06-90.77c-0.22-0.78-0.44-1.55-0.65-2.33
		C323.25,655.19,635.19,619.22,945.38,620.28z"/>
	<ellipse style="fill:#3C3C3B;fill-opacity:0.2;" cx="474.517" cy="515.528" rx="93.5" ry="5.639"/>
	<circle style="fill:#EFC94C;" cx="499.077" cy="200.84" r="74.996"/>
	
		<ellipse transform="matrix(0.9829 -0.1839 0.1839 0.9829 -129.4056 94.1713)" style="fill:#3C3C3B;fill-opacity:0.2;" cx="443.077" cy="744.852" rx="123.909" ry="18.241"/>
	<g>
		<path style="fill:#D34A4A;" d="M320.229,761.08c0,0-1.373,17.285,35.678,12.881c37.051-4.404,190.208-53.081,192.632-56.984
			c2.424-3.903,4.512-18.357,1.528-24.03C547.082,687.274,320.229,761.08,320.229,761.08z"/>
		<g>
			<path style="fill:#FFFFFF;" d="M345.351,766.155c14.838-0.985,29.604-3.06,44.139-6.205c16.383-3.544,32.44-8.436,48.474-13.322
				c28.129-8.572,56.258-17.143,84.388-25.715c8.848-2.696,18.013-5.559,24.024-13.16c2.633-3.329,4.241-7.435,4.025-11.674
				c-0.584-11.49-12.235-16.289-22.482-18.028l-14.218-2.414c-3.6-0.611-7.298-0.26-10.718,1.018l0,0
				c-43.449,16.229-88.825,27.292-134.867,32.884c-18.659,2.266-38.911,4.225-50.68,21.106c-5.56,7.975-6.077,18.663-0.562,26.669
				c6.469,9.39,17.493,9.535,27.479,8.906C344.685,766.199,345.018,766.178,345.351,766.155z"/>
			<path style="fill:#D34A4A;" d="M456.351,701.977c0,0-44.544-15.332-81.882-2.506c-37.338,12.826-31.902,40.527-31.902,40.527
				l9.137-1.793c0,0,1.895-33.324,26.754-35.587c24.859-2.263,69.969,1.961,71.775,5.791L456.351,701.977z"/>
			<path style="fill:#D34A4A;" d="M342.567,739.998c0,0,31.453-22.387,55.706-25.054c24.253-2.667,33.417-9.696,76.245,4.391
				l-14.213,2.789c0,0-16.56-8.919-53.754-2.609s-49.994,21.923-49.994,21.923L342.567,739.998z"/>
		</g>
	</g>
	
		<ellipse transform="matrix(0.9943 -0.1069 0.1069 0.9943 -83.9875 60.8193)" style="fill:#3C3C3B;fill-opacity:0.2;" cx="525.381" cy="813.917" rx="137.089" ry="19.972"/>
	<g>
		<path style="fill:#D34A4A;" d="M395.112,822c0,0-3.417,16.999,33.895,17.028c37.311,0.029,195.167-30.107,198.037-33.695
			c2.87-3.588,6.661-17.691,4.372-23.678C629.127,775.667,395.112,822,395.112,822z"/>
		<g>
			<path style="fill:#FFFFFF;" d="M419.454,830.023c14.85,0.785,29.758,0.479,44.564-0.917c16.688-1.573,33.212-4.522,49.714-7.469
				c28.948-5.169,57.897-10.338,86.845-15.507c9.106-1.626,18.545-3.379,25.417-10.213c3.009-2.993,5.094-6.878,5.384-11.113
				c0.785-11.478-10.214-17.627-20.181-20.571l-13.831-4.086c-3.502-1.035-7.215-1.125-10.763-0.263l0,0
				c-45.069,10.952-91.438,16.546-137.819,16.628c-18.796,0.033-39.138-0.427-52.829,14.936c-6.468,7.258-8.252,17.808-3.726,26.413
				c5.308,10.092,16.236,11.546,26.226,12.107C418.787,829.988,419.12,830.006,419.454,830.023z"/>
			<path style="fill:#D34A4A;" d="M537.292,779.487c0,0-42.407-20.515-81.004-12.216s-36.491,36.45-36.491,36.45l9.285-0.695
				c0,0,5.841-32.863,30.793-32.157c24.952,0.706,69.241,10.26,70.579,14.277L537.292,779.487z"/>
			<path style="fill:#D34A4A;" d="M419.797,803.721c0,0,33.89-18.492,58.288-18.259s34.332-5.657,75.183,13.418l-14.444,1.081
				c0,0-15.383-10.823-53.064-8.976s-52.245,15.828-52.245,15.828L419.797,803.721z"/>
		</g>
	</g>
	<path style="fill:#B2B2B2;" d="M391.39,513.573c0,0,47.722-157.847,157.424-178.396c0,0-39.739,152.243,8.829,178.396H391.39z"/>
</g>
<g id="Livello_1">
</g>
</svg>
