<?xml version="1.0" encoding="iso-8859-1"?>
<!-- Generator: Adobe Illustrator 19.2.1, SVG Export Plug-In . SVG Version: 6.00 Build 0)  -->
<!DOCTYPE svg PUBLIC "-//W3C//DTD SVG 1.1//EN" "http://www.w3.org/Graphics/SVG/1.1/DTD/svg11.dtd">
<svg version="1.1" xmlns="http://www.w3.org/2000/svg" xmlns:xlink="http://www.w3.org/1999/xlink" x="0px" y="0px"
	 viewBox="0 0 965.343 956.559" style="enable-background:new 0 0 965.343 956.559;" xml:space="preserve">
<g id="June">
	<path style="fill:#BDF3FF;" d="M965.343,482.615c0,328.54-302.27,509.3-571.14,468.16h-0.01c-13.52-2.07-26.96-4.7-40.27-7.91
		c-26.1-6.27-51.7-14.74-76.49-25.47c-3.41-1.48-6.8-3-10.18-4.56c-3.54-1.63-7.07-3.31-10.57-5.06
		c-7.44-3.67-14.79-7.56-22.05-11.66c-25.84-14.61-50.5-31.96-73.56-52.14c-3.74-3.27-7.44-6.62-11.1-10.04
		c-1.37-1.29-2.74-2.58-4.09-3.9c-1.66-1.58-3.31-3.18-4.94-4.81c-6.78-6.7-13.39-13.68-19.82-20.93c-1.46-1.64-2.91-3.3-4.34-4.97
		c-8.37-9.7-16.43-19.88-24.16-30.53c-6.65-9.16-13.05-18.68-19.18-28.55c-0.44-0.7-0.88-1.41-1.3-2.12
		c-5.65-9.18-11.07-18.66-16.24-28.46c-4.04-7.66-7.94-15.52-11.68-23.56c-58.4-125.5-57.79-269.9-5.08-393.94
		c22.3-52.53,53.96-101.4,94.43-143.64c127.13-132.68,323.95-182.2,498.76-125.15c35.26,11.51,68.59,27.02,99.54,45.92
		c79.9,48.8,143.99,120.2,184.65,203.63l0.06,0.12c5,10.25,9.64,20.69,13.91,31.28c0.49,1.22,0.98,2.44,1.45,3.66
		C953.573,362.835,965.343,421.945,965.343,482.615z"/>
	<path style="fill:#A4D770;" d="M931.943,307.985c-57.53,40.29-112.96,83.8-171.91,122.02c-134.43,87.17-285.01,145.54-429.8,214.11
		c-80.86,38.29-160.15,79.9-237.61,124.68c-6.65-9.16-13.05-18.68-19.18-28.55c-10.56-16.98-20.33-35.02-29.22-54.14
		c-58.4-125.5-57.79-269.9-5.08-393.94c84.53-33.78,183.06-30.81,275.99-30.46c17.81,0.06,35.87-0.05,53.06-4.69
		c13.59-3.66,26.27-10.05,38.77-16.5c33.1-17.08,65.8-34.93,98.06-53.54c73.73-42.54,147.27-89.83,226.85-117.68
		c89.76,54.82,159.56,138.16,198.62,235.03C930.983,305.545,931.473,306.765,931.943,307.985z"/>
	<path style="fill:#9C8679;" d="M930.493,304.325l-858.35,433.8c-5.65-9.18-11.07-18.66-16.24-28.46l860.62-436.74l0.06,0.12
		L930.493,304.325z"/>
	<path style="fill:#D6C9C3;" d="M965.343,482.615c0,482.04-650.7,645.95-891.9,257.63l857.05-435.92
		C953.043,360.205,965.343,420.595,965.343,482.615z"/>
	<path style="opacity:0.2;fill:#3C3C3B;" d="M553.473,598.385l-412.53,226.84c-6.78-6.7-13.39-13.68-19.82-20.93l357.48-187.86
		l46.17-24.27l1.28,0.28L553.473,598.385z"/>
	<path style="opacity:0.1;fill:#3C3C3B;" d="M256.683,907.775c-7.44-3.67-14.79-7.56-22.05-11.66l523.43-275.07l24.18,1.81
		l-318.51,179.35l-196.48,110.63L256.683,907.775z"/>
	<path style="opacity:0.1;fill:#3C3C3B;" d="M894.533,446.125l-636.42,331.49l-108.14,56.32c-1.37-1.29-2.74-2.58-4.09-3.9
		c-1.66-1.58-3.31-3.18-4.94-4.81c-6.78-6.7-13.39-13.68-19.82-20.93c-1.46-1.64-2.91-3.3-4.34-4.97l361.82-182.89l47.45-23.99
		l289.45-146.32H894.533z"/>
	<g>
		<polygon style="fill:#9B734C;" points="474.643,713.288 778.69,534.621 778.643,525.698 475.309,702.621 		"/>
		<path style="fill:#CA9E67;" d="M247.309,500.621c2,0.667,427.333-136.7,427.333-136.7V497.04L257.976,675.955L247.309,500.621z"/>
		<polygon style="fill:#9B734C;" points="237.309,497.04 668.643,359.773 674.643,363.922 247.309,500.621 		"/>
		<path style="fill:#9B734C;" d="M778.69,534.621c-2.483,1.459,0,90.667,0,90.667h-20.048l4.667-85.333L778.69,534.621z"/>
		<path style="fill:#BC9162;" d="M257.976,675.955l217.333,26.667c0,0,300.667-177.181,303.333-176.924
			c2.667,0.257-107.333-25.076-107.333-25.076L257.976,675.955z"/>
		<path style="opacity:0.08;fill:#3C3C3B;" d="M512.198,584.434c-2.222,1.521-199.31,97.469-199.31,97.469l111.305,14.447
			l199.12-80.725L512.198,584.434z"/>
		<g>
			<path style="fill:#FFE2C5;" d="M416.114,186.545c12.756,14.909,19.914,34.497,19.778,54.117
				c-0.029,4.195-0.329,8.625,1.617,12.341c1.487,2.839,4.099,4.88,6.455,7.052c16.48,15.194,21.876,38.636,26.451,60.58
				c0.595,2.853,1.192,5.79,0.686,8.66c-0.617,3.506-2.818,6.529-5.27,9.111c-10.722,11.287-27.726,16.174-42.805,12.302
				c-7.846-2.015-14.964-6.145-21.843-10.422c-12.847-7.987-25.268-16.659-37.193-25.967c-8.942,4.726-20.564,5.484-28.822-0.356
				c-8.258-5.84-10.999-19.12-4.022-26.442c1.49-1.564,3.327-2.817,4.541-4.603c3.293-4.845,0.906-11.296-0.381-17.01
				c-4.274-18.971-11.169-42.669,3.337-55.62c14.506-12.952,39.643-23.138,58.667-27.175
				C405.228,181.433,413.542,180.191,416.114,186.545"/>
			<path style="fill:#432918;" d="M336.982,230.071c16.8,2.887,21.692-4.193,38.045-9.007c-2.628-0.468-5.255-0.937-7.883-1.405
				c17.654,4.07,36.078-0.255,53.476-5.307c6.561-1.905,13.091-3.917,19.588-6.033c4.48-1.459,9.351-3.299,11.59-7.445
				c-2.927,0.686-6.021,0.644-8.928-0.12c15.174-7.84,25.213-24.717,24.862-41.793c-1.297,8.378-11.01,13.014-19.476,12.571
				c-8.466-0.443-16.307-4.37-24.503-6.533c-6.667-1.76-13.579-2.35-20.452-2.901c-7.837-0.628-15.728-1.213-23.547-0.39
				c-20.297,2.137-38.712,13.758-52.535,28.772c-9.07,9.852-16.824,23.048-13.577,36.04c2.352,9.41,10.077,16.774,12.428,26.184
				c1.628,6.518,0.586,13.706,3.528,19.746c2.544,5.223,7.689,8.742,10.595,13.773c1.576,2.727,2.436,5.802,3.739,8.669
				c1.303,2.868,3.205,5.666,6.073,6.969s6.829,0.543,8.239-2.274c-3.918,0.365-6.803-3.474-8.703-6.92
				c-7.38-13.383-15.202-53.565-11.231-58.046C342.407,229.998,334.102,231.662,336.982,230.071"/>
			<path style="fill:none;stroke:#F0B895;stroke-width:2.1594;stroke-miterlimit:10;" d="M415.728,265.595
				c4.576,14.08,13.72,26.635,25.718,35.31c-2.933,3.774-7.852,5.907-12.612,5.469"/>
			<g>
				<path style="fill:#F0B895;" d="M397.621,263.747c0,0-0.122-0.058-0.352-0.166c-0.225-0.117-0.575-0.253-0.996-0.438
					c-0.859-0.356-2.112-0.779-3.633-1.071c-1.524-0.269-3.319-0.405-5.191-0.169c-0.467,0.06-0.938,0.139-1.408,0.242
					c-0.434,0.109-1.007,0.25-1.428,0.382c-0.926,0.279-1.882,0.663-2.792,1.109c-0.926,0.425-1.829,0.926-2.7,1.459
					c-0.865,0.543-1.735,1.068-2.55,1.626c-1.638,1.107-3.177,2.185-4.532,3.058c-2.691,1.771-4.602,2.799-4.602,2.799
					s1.465-1.602,3.84-3.777c1.183-1.093,2.574-2.351,4.173-3.617c0.807-0.621,1.643-1.277,2.562-1.856
					c0.912-0.587,1.87-1.153,2.881-1.641c1.023-0.471,2.068-0.866,3.167-1.169c1.087-0.309,2.156-0.448,3.236-0.506
					c2.135-0.103,4.105,0.299,5.673,0.87c1.576,0.572,2.756,1.312,3.517,1.89c0.387,0.29,0.664,0.538,0.848,0.711
					C397.521,263.656,397.621,263.747,397.621,263.747z"/>
			</g>
			<g>
				<path style="fill:#F0B895;" d="M419.009,258c0,0-0.086-1.145,0.349-2.786c0.207-0.82,0.563-1.754,1.053-2.695
					c0.511-0.956,1.186-1.913,2.055-2.739c0.438-0.405,0.912-0.784,1.427-1.092c0.255-0.158,0.519-0.297,0.788-0.418
					c0.183-0.086,0.258-0.108,0.392-0.165c0.123-0.05,0.289-0.101,0.429-0.148c1.117-0.334,2.206-0.354,3.092-0.165
					c0.889,0.183,1.552,0.557,1.946,0.873c0.398,0.317,0.562,0.551,0.562,0.551s-0.279-0.081-0.739-0.16
					c-0.461-0.081-1.11-0.108-1.839-0.027c-0.729,0.104-1.553,0.319-2.328,0.712l-0.277,0.146c-0.098,0.056-0.26,0.138-0.307,0.174
					c-0.189,0.125-0.38,0.252-0.573,0.38c-0.374,0.273-0.745,0.573-1.091,0.908c-0.702,0.657-1.348,1.429-1.918,2.181
					c-0.593,0.769-1.096,1.522-1.543,2.183C419.601,257.085,419.009,258,419.009,258z"/>
			</g>
			<path style="fill:#432918;" d="M390.314,240.038c0,0-30.838-4.577-34.838,17.962c0,0,4.75-15.212,33.75-14.712L390.314,240.038z"
				/>
			<path style="fill:#432918;" d="M410.476,239.656v-5.368c0,0,3.501-3.632,20.625,2.684
				C431.102,236.972,415.726,235.024,410.476,239.656z"/>
			<path style="fill:#FFFFFF;" d="M402.536,314.559c6.654,5.313,15.403,7.927,23.881,7.135c3.854-0.36,7.648-1.4,11.129-3.095
				c3.112-1.515,6.035-3.618,7.901-6.533c0.668,3.65,1.284,7.645-0.522,10.886c-1.706,3.062-5.139,6.659-8.352,8.062
				c-4.153,1.813-8.677,1.664-13.084,0.612c-2.846-0.68-5.264-2.498-7.59-4.273c-1.678-1.28-3.357-2.56-5.035-3.84
				c-3.425-2.612-7.004-5.422-8.591-9.427"/>
			<path style="fill:#FFE2C5;" d="M581.666,284.057c-0.191-0.863-0.661-1.633-1.124-2.386c-1.896-3.087-3.792-6.174-5.687-9.261
				c-0.913-1.486-2.076-3.135-3.813-3.283c-0.979-0.084-1.922,0.347-2.799,0.791c-2.483,1.256-4.857,2.72-7.123,4.336
				c-1.46,2.18-3.632,2.329-6.155,3.285c-2.055,0.778-4.177,2.18-6.291,2.438c-0.727,0.089-1.424,0.342-1.979,0.819l-0.104,0.09
				c-1.589,1.363-3.404,2.689-4.063,4.676c-0.655,1.974,0.016,4.169,1.111,5.937c1.095,1.768,2.588,3.253,3.81,4.937
				c5.696,7.854-12.137,114.854-12.137,114.854l-31-20.25l-21.333-0.25l2.793,12.167c0,0,51.207,26.667,58.874,26
				c7.227-0.628,14.935-121.658,15.586-124.279c0.2-0.806,0.409-1.633,0.884-2.315c0.577-0.83,1.485-1.359,2.378-1.831
				c4.969-2.63,10.414-4.343,14.6-8.44c0.985-0.965,1.82-2.08,2.486-3.287C581.341,287.416,582.026,285.684,581.666,284.057z"/>
			<path style="fill:#3C3C3B;" d="M600.643,515.622l109.21-82.345c9.164-6.909,21.784-6.955,30.998-0.113L883.31,538.955l-10,11.333
				l-144-70.667l-116.667,81.333c0,0,115.333,19.333,114.667,18.667c-0.667-0.667,106.667,119.333,106.667,119.333l-18.667,9.333
				l-108.546-84.84c-4.841-3.784-10.77-5.913-16.912-6.075l-117.369-3.085c0,0-39.718-6-46.779-29.333l66.273-64.667
				L600.643,515.622z"/>
			<g>
				<path style="fill:#FFE2C5;" d="M432.437,512.797"/>
				<path style="fill:#FFE2C5;" d="M451.448,535.556c1.565,2.918,5.023,5.587,7.961,4.06c-2.21-2.233-4.115-4.768-5.646-7.512
					c-2.099-3.761-3.51-7.927-6.102-11.366c-3.562-4.725-9.324-7.683-15.225-7.94c-1.891,0.749-3.922,1.127-5.959,1.139l0,0
					l-104.502-38.649l26.986-39.245c-8.64-5.704-8.182-7.974-16.464-14.088c-21.031,24.207-42.268,56.506-40.188,60.666
					c3.333,6.667,129.103,35.099,129.103,35.099l0,0c0.832,0.9,1.591,1.991,2.347,2.891c2.983,3.551,8.014,4.933,10.836,8.613
					c1.847,2.409,2.505,5.488,3.45,8.373c0.945,2.885,2.416,5.873,5.136,7.222c-1.368-3.296-2.481-6.699-3.325-10.167
					c3.509,2.43,3,8.683,6.893,10.434c0.383-4.482-4.298-8.487-3.237-12.858c2.167,5.036,4.873,10.592,10.059,12.371
					c-2.901-5.602-5.298-11.465-7.152-17.494C449.038,529.132,449.883,532.638,451.448,535.556z"/>
			</g>
			<path style="fill:#F9B233;" d="M561.309,504.621l-72.667-107.333l25.622-4.417l-12.907-8.681
				c-4.125-15.92-24.51-22.981-40.542-19.322l-19.369,4.42l-34.443,16.897l1.473-7.866l-47,12.649c0,0-25.49,16.396-38.167,30.988
				c8.282,6.114,26.36,19.961,35,25.666l14.586-26.333h0h0c0,0,116.414,138,123.081,144.667
				c6.667,6.667,29.728,34.667,29.728,34.667l74.939-85.001L561.309,504.621z"/>
			<path style="fill:#FFE2C5;" d="M441.466,372.752l0.251-1.708l0,0l0,0l-42.725-66.756l-30.556,11.873l41.723,74.808l28.567-2.93
				C438.726,388.038,440.745,377.061,441.466,372.752z"/>
			<path style="fill:#F26B76;" d="M431.161,332.244c2.189-5.114,6.938-9.055,12.369-10.262c2-0.444,4.217-0.503,5.97,0.556
				c1.754,1.06,2.747,3.529,1.656,5.264c-0.785,1.248-2.329,1.761-3.773,2.06c-1.68,0.348-3.395,0.527-5.111,0.536
				c-1.27,0.006-2.551-0.08-3.804,0.132c-2.5,0.423-4.824,2.019-7.345,1.751c0.37,0.069,0.74,0.139,1.111,0.208"/>
			<path style="opacity:0.25;fill:#F0B895;" d="M370.267,319.125c0,0,27.81,22.779,47.26,29.804l-34.999-5.974L370.267,319.125z"/>
			<g>
				<path style="fill:#F0B895;" d="M342.382,299.803c0,0-0.026-0.097-0.074-0.28c-0.061-0.173-0.172-0.415-0.354-0.683
					c-0.357-0.522-1.15-1.13-2.09-1.153c-0.46-0.001-0.931,0.155-1.361,0.443c-0.426,0.293-0.769,0.748-0.963,1.229
					c-0.04,0.109-0.087,0.276-0.096,0.34c-0.013,0.084-0.039,0.204-0.041,0.261l-0.004,0.166c0,0.269,0.041,0.543,0.11,0.817
					c0.145,0.546,0.472,1.071,0.902,1.426l0.078,0.069c-0.058-0.04,0.052,0.04,0.07,0.054l0.237,0.177
					c0.119,0.061,0.198,0.129,0.353,0.199c0.273,0.146,0.586,0.254,0.91,0.353c0.657,0.178,1.375,0.343,2.112,0.481
					c0.735,0.136,1.481,0.325,2.183,0.597c0.688,0.251,1.331,0.644,1.823,1.016c1.016,0.759,1.664,1.545,2.113,2.087
					c0.441,0.551,0.67,0.884,0.67,0.884s-0.354-0.2-0.952-0.561c-0.599-0.354-1.443-0.881-2.462-1.343
					c-0.528-0.228-1.046-0.407-1.662-0.541c-0.597-0.127-1.267-0.177-1.996-0.259c-0.726-0.083-1.53-0.123-2.375-0.349
					c-0.423-0.113-0.859-0.247-1.29-0.455c-0.207-0.085-0.456-0.24-0.68-0.373l-0.243-0.169c-0.061-0.045-0.035-0.019-0.168-0.123
					l-0.146-0.125c-0.761-0.685-1.273-1.584-1.499-2.546c-0.117-0.481-0.146-0.983-0.087-1.475c0.009-0.118,0.041-0.269,0.064-0.399
					c0.026-0.131,0.05-0.193,0.075-0.293c0.086-0.301,0.169-0.484,0.279-0.714c0.433-0.865,1.147-1.478,1.909-1.838
					c0.76-0.371,1.62-0.438,2.33-0.255c0.718,0.178,1.249,0.58,1.613,0.986c0.37,0.409,0.57,0.845,0.671,1.207
					c0.107,0.363,0.09,0.663,0.082,0.854C342.397,299.703,342.382,299.803,342.382,299.803z"/>
			</g>
			<g>
				<path style="fill:#CA9E67;" d="M566.925,298.36L566.925,298.36c-1.433,0.485-3.002-0.29-3.487-1.723l-13.273-39.214
					c-0.485-1.433,0.29-3.002,1.723-3.487l0,0c1.433-0.485,3.002,0.29,3.487,1.723l13.273,39.214
					C569.133,296.306,568.358,297.875,566.925,298.36z"/>
				<path style="fill:#E71D73;" d="M567.664,270.133l-18.471,6.252c-2.605,0.882-5.457-0.528-6.339-3.133l-13.386-39.546
					c-2.601-7.684,1.558-16.099,9.242-18.7h0c7.684-2.601,16.099,1.558,18.7,9.242l13.386,39.546
					C571.679,266.398,570.269,269.251,567.664,270.133z"/>
				
					<rect x="556.254" y="273.164" transform="matrix(0.9472 -0.3206 0.3206 0.9472 -58.645 193.7408)" style="opacity:0.3;fill:#CA9E67;" width="5.5" height="3.583"/>
			</g>
			<path style="opacity:0.3;fill:#CA9E67;" d="M555.09,282.242c-0.666,0.791-1.357,1.787-1.051,2.775
				c0.291,0.939,1.416,1.405,2.39,1.282c0.975-0.123,1.83-0.685,2.647-1.232c3.266-2.189,6.532-4.378,9.798-6.567
				c-4.189,2.866-8.1,6.137-11.663,9.752c-0.449,0.455-0.928,1.049-0.749,1.662c0.291,0.992,1.755,0.788,2.686,0.34
				c3.88-1.867,7.488-4.298,10.676-7.192c-2.594,2.28-5.067,4.698-7.406,7.24c-0.959,1.042-1.961,2.452-1.4,3.752
				c4.428,0.138,8.276-2.825,11.7-5.636c-2.583,1.745-4.835,3.978-6.601,6.546c-0.219,0.318-0.439,0.671-0.42,1.057
				c0.029,0.587,0.628,1.014,1.213,1.064c0.585,0.05,1.154-0.18,1.696-0.405c2.162-0.898,4.347-1.809,6.243-3.183
				c1.896-1.374,3.504-3.277,4.067-5.55c0.916-3.699-1.037-7.44-2.923-10.752c-0.94-1.651-1.88-3.302-2.82-4.953
				c-0.541-0.951-1.106-1.929-1.98-2.586"/>
			<path style="fill:#FFE2C5;" d="M570.048,269.366c-5.169,3.682-9.871,8.02-13.958,12.877c-0.666,0.791-1.357,1.787-1.051,2.775
				c0.291,0.939,1.416,1.405,2.39,1.282c0.975-0.123,1.83-0.685,2.647-1.232c3.266-2.189,6.532-4.378,9.798-6.567
				c-4.189,2.866-8.1,6.137-11.663,9.752c-0.449,0.455-0.928,1.049-0.749,1.662c0.291,0.992,1.755,0.788,2.686,0.34
				c3.88-1.867,7.488-4.298,10.676-7.192c-2.594,2.28-5.067,4.698-7.406,7.24c-0.959,1.042-1.961,2.452-1.4,3.752
				c4.428,0.138,8.276-2.825,11.7-5.636c-2.583,1.745-4.834,3.978-6.601,6.546c-0.219,0.318-0.439,0.671-0.42,1.057
				c0.029,0.587,0.628,1.014,1.213,1.064c0.585,0.05,1.154-0.18,1.696-0.405c2.162-0.898,4.347-1.809,6.243-3.183
				c1.896-1.374,3.504-3.277,4.067-5.55c0.916-3.699-1.037-7.44-2.923-10.752c-0.94-1.651-1.88-3.302-2.82-4.953
				c-0.541-0.951-1.106-1.929-1.98-2.586c-0.874-0.658-2.147-0.915-3.063-0.317c-0.022,0.326-0.043,0.652-0.065,0.978"/>
			<path style="fill:#FFE2C5;" d="M542.668,288.084c-0.268-7.783-1.958-15.514-4.962-22.699c-0.374-0.895-0.772-1.795-1.089-2.714
				c-0.546-1.58,1.142-3.034,2.581-2.183c0.01,0.006,0.02,0.012,0.029,0.017c3.961,2.36,6.164,6.855,7.312,11.321
				c1.147,4.466,1.458,9.125,2.771,13.545c0.062,0.21,0.127,0.437,0.054,0.644c-0.118,0.337-0.526,0.453-0.876,0.523
				c-1.543,0.305-3.086,0.61-4.63,0.916c-0.497,0.098-1.146,0.513-0.869,0.938"/>
			<path style="fill:#3C3C3B;" d="M884.189,540.77c6.273-8.926,12.843-17.643,19.695-26.133c5.685-7.044,11.96-14.215,20.465-17.313
				c0.478-0.174,0.983-0.337,1.487-0.269c1.931,0.261,1.894,3.081,1.229,4.913c-7.311,20.145-23.783,35.351-39.68,49.724
				c-1.039,0.94-2.113,1.901-3.428,2.386c-3.722,1.373-8.191-2.603-7.26-6.46c1.316-5.45,9.17-5.801,13.007-9.888"/>
			<path style="fill:#3C3C3B;" d="M833.633,697.565c4.147-3.711,9.739-5.267,15.127-6.661c12.139-3.142,24.339-6.044,36.592-8.704
				c2.197-0.477,5.109-0.616,6.041,1.43c0.695,1.525-0.276,3.286-1.402,4.528c-3.421,3.773-8.371,5.716-13.178,7.401
				c-16.818,5.893-34.207,10.155-51.844,12.707c-2.585,0.374-6.156,0.029-6.53-2.557c-0.237-1.636,1.128-3.049,2.493-3.982
				c4.938-3.373,11.117-4.226,17.049-4.988"/>
			<path style="opacity:0.25;fill:#F0B895;" d="M328.925,426.143c-0.687,0.821-6.727,8.267-6.727,8.267l18.447,13.728l6.025-8.762
				L328.925,426.143z"/>
			<polygon style="opacity:0.25;fill:#F0B895;" points="494.07,405.305 517.194,399.455 508.608,393.846 487.976,397.038 			"/>
			<polygon style="opacity:0.25;fill:#F0B895;" points="531.045,594.563 537.589,600.621 600.643,515.621 			"/>
		</g>
		<polygon style="fill:#9B734C;" points="257.976,675.955 257.976,686.621 474.643,713.288 475.309,702.621 		"/>
		<polygon style="fill:#9B734C;" points="247.309,500.621 237.309,497.04 253.309,687.288 257.976,686.621 		"/>
		<polygon style="fill:#9B734C;" points="253.309,687.288 247.643,775.288 277.976,782.621 270.615,688.177 		"/>
		<polygon style="fill:#9B734C;" points="474.643,713.288 475.309,803.955 451.612,799.955 463.461,713.288 		"/>
	</g>
	<polygon style="fill:#687681;" points="860.193,183.315 860.193,397.075 847.113,397.075 847.113,167.435 	"/>
	<polygon style="fill:#687681;" points="847.117,384.953 815.507,446.123 894.532,446.123 860.197,384.953 	"/>
	<path style="opacity:0.1;fill:#3C3C3B;" d="M824.973,708.265l-430.77,242.51h-0.01c-13.52-2.07-26.96-4.7-40.27-7.91l454.14-240.24
		L824.973,708.265z"/>
	<path style="fill:#3C3C3B;" d="M247.643,775.288"/>
	<path style="opacity:0.1;fill:#3C3C3B;" d="M273.053,780.936l-111.98,63.04c-3.74-3.27-7.44-6.62-11.1-10.04
		c-1.37-1.29-2.74-2.58-4.09-3.9l101.76-54.75l10.47,2.33L273.053,780.936z"/>
	<path style="opacity:0.1;fill:#3C3C3B;" d="M256.683,907.775l197.58-106.3l9.47,0.73l11.94,0.91l-198.24,114.28
		c-3.41-1.48-6.8-3-10.18-4.56L256.683,907.775z"/>
</g>
<g id="Livello_1">
</g>
</svg>
