<?xml version="1.0" encoding="iso-8859-1"?>
<!-- Generator: Adobe Illustrator 19.2.1, SVG Export Plug-In . SVG Version: 6.00 Build 0)  -->
<!DOCTYPE svg PUBLIC "-//W3C//DTD SVG 1.1//EN" "http://www.w3.org/Graphics/SVG/1.1/DTD/svg11.dtd">
<svg version="1.1" xmlns="http://www.w3.org/2000/svg" xmlns:xlink="http://www.w3.org/1999/xlink" x="0px" y="0px"
	 viewBox="0 0 965.206 965.271" style="enable-background:new 0 0 965.206 965.271;" xml:space="preserve">
<g id="March">
	<path style="fill:#E7FFFF;" d="M965.206,482.622c0,104.96-35.25,204.86-95.38,286.25c-64.87,87.8-158.69,154.06-268.45,181.91
		c-213.56,54.19-442.57-47.38-545.91-241.82c-22.34-42.03-37.82-86.65-46.63-132.26c-21.98-113.59-2.66-233.3,54.67-334.28
		c16.68-29.38,36.58-57.17,59.61-82.76c19.94-22.15,41.76-42.17,65.1-59.94c123.35-93.97,288.8-125.22,439.2-77.88
		C826.276,84.442,965.206,274.262,965.206,482.622z"/>
	<path style="fill:#95C11F;" d="M869.826,768.872c-16.69,22.59-35.3,43.76-55.61,63.21c-33.67,32.26-72,59.81-114,81.33
		c-31.08,15.94-64.16,28.57-98.84,37.37c-213.56,54.19-442.57-47.38-545.91-241.82c-22.34-42.03-37.82-86.65-46.63-132.26
		c17.46,1.4,34.87,5.18,46.92,17.34c6.81,6.89,11.14,15.81,17.28,23.3c11.32,13.8,27.98,21.9,44.23,29.26
		c109.92,49.81,226.39,85.14,345.46,104.79c15.83,2.61,31.83,4.95,47.86,4.14c18.97-0.97,37.54-6.34,56.52-6.98
		c20.9-0.71,41.48,4.34,62.25,7.02h0.02c3.89,0.51,7.8,0.93,11.71,1.21c24.44,1.76,48.9-1.84,73.38-2.97
		c52.07-2.41,103.93,6.33,155.32,15.05C869.796,768.862,869.816,768.862,869.826,768.872z"/>
	<path style="fill:#3C3C3B;fill-opacity:0.2;" d="M814.216,832.082c-33.67,32.26-72,59.81-114,81.33l-239.81-115.46l168.95-42.38
		h0.02L814.216,832.082z"/>
	<g>
		<path style="fill:#875533;" d="M554.254,436.14c2.071,15.469,4.049,31.763-1.808,46.23c-1.658,4.096-3.986,8.023-7.389,10.841
			c-4.151,3.437-9.576,4.962-14.925,5.608c-5.619,0.679-11.494,0.451-16.68-1.817c-5.186-2.268-9.58-6.836-10.582-12.407
			c-1.504-8.361,4.691-16.209,11.593-21.163c-7.181-1.72-14.043,3.568-19.155,8.896c-4.415,4.601-8.655,9.807-9.887,16.063
			c-1.71,8.682,2.991,17.751,10.05,23.087c7.059,5.336,16.071,7.45,24.898,8.073c6.687,0.472,13.511,0.151,19.903-1.867
			c7.733-2.442,14.472-7.232,21.068-11.95c6.607-4.726,13.251-9.483,18.947-15.275c2.236-2.273,4.347-4.745,5.648-7.656
			c2.151-4.814,1.886-10.337,1.216-15.567c-1.09-8.501-3.408-17.357-9.534-23.35c-5.432-5.314-13.051-7.607-20.351-9.72
			c-0.946-0.274-2.001-0.539-2.881-0.096s-1.173,1.944-0.277,2.353"/>
		<path style="fill:#875533;" d="M469.253,378.16c-0.342,5.093-0.515,10.356,1.258,15.143c2.363,6.382,7.807,11.007,12.326,16.096
			c6.935,7.808,12.002,17.263,14.664,27.361c1.218,4.621,1.908,9.672,0.044,14.073s-7.071,7.666-11.516,5.912
			c2.505,4.705,8.378,6.892,13.675,6.298c5.297-0.594,10.07-3.483,14.216-6.834c6.919-5.593,12.711-12.848,15.42-21.322
			c1.725-5.395,2.164-11.13,2.014-16.793c-0.398-14.986-5.031-30.041-14.257-41.857c-4.701-6.021-10.842-11.311-18.265-13.119
			c-5.053-1.231-11.059-1.098-14.405-5.079c-2.139-2.544-2.517-6.145-2.195-9.453c-7.249,9.96-11.733,21.912-12.824,34.183"/>
		<path style="fill:#A0653D;" d="M514.922,430.125c6.476,8.003,11.096,17.779,11.646,28.059c0.55,10.281-3.351,21.02-11.35,27.502
			c-7.999,6.482-20.173,7.89-28.794,2.262c-2.916-1.904-5.444-4.665-6.256-8.051c-0.812-3.386,0.474-7.392,3.54-9.042
			c-5.823-1.217-11.221,4.886-11.166,10.834c0.055,5.948,3.974,11.191,8.444,15.115c10.192,8.948,24.331,13.308,37.757,11.388
			c13.426-1.92,25.862-10.168,32.624-21.925c3.356-5.835,5.353-12.564,4.955-19.284c-0.356-6.011-2.584-11.756-5.232-17.164
			c-3.299-6.739-7.445-13.303-13.508-17.723c-6.064-4.419-14.374-6.338-21.237-3.304c-0.412,0.182-0.871,0.454-0.917,0.902
			c-0.046,0.448,0.73,0.758,0.838,0.321"/>
		<path style="fill:#875533;" d="M573.799,442.58c3.841,8.352,7.706,16.773,9.804,25.723c2.098,8.95,2.332,18.576-1.007,27.141
			c-1.966,5.042-5.097,9.55-8.526,13.737c-3.212,3.921-6.796,7.672-11.259,10.075s-9.954,3.311-14.653,1.409
			c4.37,6.65,12.499,10.072,20.437,10.622c7.938,0.55,15.82-1.383,23.509-3.431c5.706-1.52,11.454-3.137,16.619-6
			c13.616-7.547,21.354-22.811,24.468-38.064c2.613-12.799,2.436-26.508-2.823-38.465c-1.58-3.591-3.634-7.031-6.476-9.735
			c-5.109-4.86-12.273-6.913-19.26-7.86c-5.959-0.808-12.155-0.914-17.847,1.025c-5.692,1.939-10.832,6.193-12.659,11.921
			c-0.271,0.848-0.217,2.12,0.667,2.229"/>
		<path style="fill:#875533;" d="M574.341,261.309c18.131-1.431,36.268,6.439,49.279,18.873s21.258,29.043,25.899,46.247
			c4.641,17.204,5.884,35.1,6.501,52.884c0.535,15.426,1.226,32.42,12.01,43.687c8.215,8.583,21.561,11.941,33.101,8.655
			s20.859-12.921,23.95-24.283c1.739-6.394,1.54-13.508-1.758-19.285c-3.298-5.777-10.052-9.848-16.758-8.979
			c-6.705,0.869-12.432,7.433-11.233,13.944c0.431-3.23-1.605-6.301-1.788-9.554c-0.332-5.882,5.398-10.47,11.135-12.264
			c14.202-4.441,30.625,2.63,38.762,14.851c8.138,12.221,8.596,28.393,3.328,42.038c-6.419,16.627-21.104,29.981-38.523,35.033
			c-25.462,7.384-53.813-3.207-72.645-21.525c-4.665-4.538-8.887-9.547-12.196-15.11c-9.712-16.325-10.917-36.143-9.908-55.005
			c1.009-18.862,3.977-37.796,1.667-56.548c-2.31-18.752-10.987-37.971-27.675-47.473c-3.862-2.199-8.044-3.819-12.309-5.121"/>
		<path style="fill:#FFE2C5;" d="M470.78,320.99c-9.789,21.18-2.604,46.178,7.051,67.419c2.137,4.702,4.46,9.449,8.127,13.086
			c5.191,5.148,12.815,7.813,16.707,14.001c2.2,3.497,2.91,7.693,4.222,11.611c4.015,11.991,13.847,21.402,25.096,27.178
			c11.249,5.776,23.88,8.284,36.424,9.878c4.451,0.565,8.975,1.023,13.409,0.339c4.643-0.716,9.015-2.662,13.091-4.998
			c22.751-13.034,37.037-39.571,35.391-65.739c-0.205-3.266-0.623-6.646,0.469-9.73c0.747-2.108,2.147-3.91,3.25-5.855
			c4.105-7.236,3.942-16.117,2.655-24.337c-1.085-6.923-3.139-14.165-8.39-18.806c-5.25-4.641-14.526-5.234-18.668,0.418
			c0.805-2.581-0.916-5.206-2.545-7.363c-5.012-6.639-10.025-13.278-15.037-19.916c-2.06-2.729-4.135-5.474-6.649-7.791
			c-5.634-5.192-13.118-7.909-20.587-9.616c-33.494-7.651-70.705,4-93.854,29.388c-1.326,1.455-2.661,3.626-1.505,5.22"/>
		<path style="fill:#FFFFFF;" d="M582.295,408.669c0,0-4.366,24.5-11.16,29.167c0,0,5.206-0.667,7.539,2.167
			c0,0,9.149-10.167,8.158-14.667S582.295,408.669,582.295,408.669z"/>
		<g>
			<path style="fill:#F0B895;" d="M544.054,399.172c0,0,0.43,1.71,0.712,4.307c0.15,1.297,0.264,2.815,0.315,4.443
				c0.015,0.813,0.055,1.655,0.035,2.51c-0.021,0.854-0.042,1.722-0.062,2.59c-0.059,0.866-0.117,1.732-0.175,2.585
				c-0.051,0.853-0.173,1.688-0.262,2.496c-0.199,1.622-0.444,3.106-0.727,4.407c-0.271,1.311-0.753,2.404-1.258,3.025
				c-0.237,0.322-0.491,0.515-0.646,0.65c-0.168,0.121-0.258,0.185-0.258,0.185s0.059-0.091,0.17-0.263
				c0.099-0.178,0.235-0.439,0.359-0.782c0.258-0.688,0.388-1.704,0.402-2.965c-0.001-1.272,0.016-2.796,0.062-4.401
				c0.034-0.804,0.027-1.637,0.077-2.48c0.033-0.844,0.067-1.701,0.1-2.557c0.046-0.856,0.091-1.713,0.136-2.556
				c0.029-0.844,0.11-1.673,0.151-2.477c0.102-1.607,0.219-3.109,0.347-4.4c0.113-1.292,0.246-2.368,0.345-3.126
				C543.977,399.606,544.054,399.172,544.054,399.172z"/>
		</g>
		<path style="fill:#F0B895;fill-opacity:0.2;" d="M550.527,370.676c0,0-20.086-18.548-3.191-28.923s39.496-6.333,39.496-6.333
			l-10.241,10.875C576.591,346.294,569.964,362.932,550.527,370.676z"/>
		<g>
			<path style="fill:#F0B895;" d="M547.336,427.997c0,0,0.37-0.379,1.03-0.588c0.645-0.245,1.548-0.274,2.386-0.028
				c0.837,0.25,1.579,0.767,1.984,1.326c0.428,0.53,0.539,1.058,0.539,1.058s-0.135,0.021-0.343,0.032
				c-0.207,0.009-0.49,0.018-0.794-0.003c-0.624-0.02-1.329-0.143-2.002-0.343c-0.672-0.203-1.33-0.486-1.864-0.81
				c-0.27-0.149-0.484-0.31-0.665-0.43C547.435,428.087,547.336,427.997,547.336,427.997z"/>
		</g>
		<path style="fill:#BC6C6F;" d="M578.456,400.555c1.952,6.441,1.609,13.553-0.953,19.777c-2.576,6.259-7.207,11.402-12.47,15.732
			c-1.425,1.172-2.955,2.296-4.716,2.845c-1.487,0.464-1.676,2.954,0.155,4.607c0.532,0.48,1.204,0.782,1.896,0.97
			c2.684,0.728,5.655,0.169,7.922-1.419c1.646-1.153,2.886-2.791,4.004-4.461c4.1-6.128,6.932-13.1,8.265-20.351
			c1.164-6.332,0.824-13.75-4.004-18.008"/>
		<path style="fill:#FFE2C5;" d="M596.331,778.223c8.318-0.233,16.804,0.305,24.35,1.546c2.366,0.389,4.672,0.854,6.504,1.504
			c3.892,1.382,5.155,3.401,5.937,5.316c0.6,1.469,0.956,3.059-1.15,4.349c-2.773,1.698-8.859,2.325-14.414,2.604
			c-7.648,0.384-15.702,0.38-22.802-0.681s-13.043-3.353-13.61-6.035c-0.376-1.777,1.559-3.515,3.924-5.094
			c1.433-0.957,3.092-1.906,5.529-2.573s5.804-1.011,8.712-0.636"/>
		<path style="fill:#FFE2C5;" d="M398.614,635.377c-5.458,1.755-11.538,3.485-16.748,1.091c-1.677-0.771-3.144-1.929-4.752-2.836
			c-8.647-4.875-20.563-2.15-28.208-8.482c-0.159,3.361,2.816,6.02,5.791,7.591c2.976,1.571,6.368,2.723,8.428,5.383
			c-8.518,3.214-17.76,4.494-26.831,3.716c-1.155-0.099-2.414-0.206-3.379,0.435c-0.965,0.642-1.199,2.372-0.143,2.848
			c0.355,0.16,0.76,0.141,1.149,0.124c5.433-0.233,10.909,0.592,16.032,2.416c-0.888,1.324-2.775,1.392-4.367,1.32
			c-5.987-0.271-11.973-0.542-17.96-0.813c0.335,1.842,1.951,3.24,3.719,3.856c1.768,0.616,3.685,0.592,5.557,0.561
			c3.364-0.056,6.727-0.112,10.091-0.168c1.047-0.017,2.54,0.921,1.763,1.624c-3.757,0.444-7.514,0.889-11.271,1.333
			c-1.244,0.147-2.89,0.826-2.592,2.043c5.184,0.303,10.395,0.15,15.552-0.458c0.621,1.4-1.626,2.138-3.153,2.247
			c-2.902,0.207-5.71,1.53-7.716,3.636c4.599,1.353,9.338-1.095,13.743-2.987c4.821-2.072,9.9-3.544,15.082-4.374
			c4.877-0.781,10.424-1.297,13.481-5.177c0.785-0.997,1.349-2.165,2.22-3.088c3.363-3.565,9.263-1.997,14.014-3.2
			c0.812-0.206,1.699-0.593,1.967-1.387c0.236-0.7-0.098-1.451-0.424-2.114c-0.584-1.185-1.168-2.37-1.752-3.554"/>
		<path style="fill:#BC6C6F;" d="M584.706,414.702c0.98,5.734,0.021,11.783-2.687,16.932c-2.195,4.175-5.539,7.881-6.46,12.508
			c-0.084,0.424-0.137,0.9,0.108,1.255c0.164,0.237,0.435,0.377,0.705,0.477c1.822,0.67,3.924-0.164,5.29-1.544
			s2.152-3.215,2.908-5.003c0.767-1.816,1.534-3.632,2.301-5.449c0.786-1.86,1.576-3.737,1.957-5.72
			c1.113-5.797-1.376-11.614-3.807-16.994c-0.372,1.821-0.264,3.737,0.31,5.505"/>
		<path style="fill:#F0B895;fill-opacity:0.2;" d="M526.691,390.195c0,0-11.787-22.477-30.287-12.588c0,0,2.517,22.271-3.648,24.729
			c0,0,3.891-1.292,15.176-5.667C519.216,392.294,526.691,390.195,526.691,390.195z"/>
		<path style="fill:#FFFFFF;" d="M583.312,341.325c3.612,6.542,2.461,15.036-1.697,21.245c-4.158,6.209-10.896,10.33-17.987,12.686
			c-3.002,0.997-6.898,0.91-10.06,0.926c-0.084-0.167-1.059-1.804-1.08-1.989c-1.019-9.069,2.645-19.04,10.528-23.639
			c2.902-1.693,6.185-2.592,9.294-3.865c5.19-2.127,9.878-5.292,14.523-8.435"/>
		<path style="fill:#FFE2C5;" d="M704.069,762.363c-1.309,7.278-6.847,13.636-13.877,15.931c-2.546,0.831-5.589,1.415-6.823,3.792
			c2.134,0.835,4.315,1.68,6.604,1.783c2.289,0.103,4.745-0.668,6.098-2.516c1.001,3.135,0.181,6.624-1.457,9.479
			c-1.638,2.855-4.024,5.193-6.379,7.492c-1.936,1.89-3.872,3.779-5.809,5.669c2.873,2.692,6.373-0.935,8.734-3.09
			c2.36-2.154,4.014-4.956,5.631-7.712c-1,5.468-4.087,10.528-8.491,13.921c-1.625,1.252-3.639,2.719-3.428,4.759
			c3.08,1.699,8.27-3.551,10.202-6.491c1.931-2.94,2.136-2.486,4.459-5.944c0.258,5.094-4.065,9.211-5.493,13.23
			c2.556,0.788,6.206-2.806,7.288-5.253s3.009-5.297,5.022-7.058c-0.513,1.881-1.031,3.843-0.663,5.758s0.526,3.757,2.476,3.783
			c2.858-13.132,4.867-26.45,6.01-39.841c0.263-3.08,0.427-6.397-1.197-9.027c-1.349-2.186-3.894-3.868-3.984-6.435
			c-2.914,3.106-5.676,7.586-5.019,11.794"/>
		<path style="fill:#EA8500;" d="M611.841,500.919l-102.118,95.75l-119.382,37l6,16c0,0,117.5-28.5,122-32.5s87-74.5,87-74.5
			S609.841,498.669,611.841,500.919z"/>
		<path style="fill:#FFFFFF;" d="M494.961,402.652c2.214-0.682,4.204-2.072,5.607-3.915c2.404-3.159,3.113-7.557,6.167-10.094
			c3.369-2.798,8.312-2.316,12.601-1.425c2.866,0.595,5.966,1.475,7.622,3.889c0.872,1.271,0.259,4.434-0.339,5.854
			c-0.502,1.191-1.335,2.214-2.253,3.123c-3.271,3.24-7.781,5.195-12.382,5.367s-9.244-1.44-12.748-4.426"/>
		<path style="fill:#683C11;" d="M536.358,327.913c-0.688-3.218,37.099-14.776,46.864-1.883
			c-12.561-4.562-32.916-6.527-46.137,4.998"/>
		<path style="fill:#F39200;" d="M704.154,480.383c-2.78-2.592-4.74-2.986-6.082-1.86c-14.779-4.229-30.123-6.483-45.494-6.671
			c7.464-2.051-18.036,0.515-17.238,1.319c-3.087,1.855-6.734,2.933-10.19,3.946c-2.93,0.859-5.973,1.408-8.744,2.69
			c-0.911,0.422-1.879,1.041-2.069,2.027l0.6-0.15c-4.845,13.877-11.815,27.011-20.59,38.803
			c-6.355,8.539-13.992,17.219-14.548,27.849c-0.936,17.91,18.367,31.024,20.762,48.798c0.943,6.995-0.857,14.049-2.888,20.81
			c-6.04,20.106-23.746,67.891-33.972,86.227c25.205,0.769,50.979,7.36,75.895,11.245c-2.993-8.887,9.117-51.133,12.34-59.939
			c3.318-9.067,22.173-62.554,23.374-68.81c1.771-9.228,4.604-18.213,7.432-27.174c3.305-10.476,6.61-20.952,9.915-31.428
			c2.101,0.259,27.682,121.606,27.682,121.606l-20.643,116.5h15.322c0,0,25.821-111.6,26.821-120.3
			C742.841,637.169,720.467,495.596,704.154,480.383z"/>
		<path style="fill:#EFEFEF;" d="M553.567,376.181c0,0-2.81-14.429,13.107-22.512c15.917-8.083,15.502-10.113,15.621-11.917
			c0,0-11.548,6.294-20.704,10.789c-1.191,0.585-5.469,3.065-7.281,8.534c-0.823,2.482-1.15,6.302-1.34,8.91
			c-0.073,0.999-0.139,1.999-0.198,3c-0.068,1.16,0.024,2.592,1.072,3.094"/>
		<path style="fill:#683C11;" d="M497.72,349.6c-7.599,8.072-15.063,17.383-15.954,28.433c-0.222,2.756,0.082,5.788,1.973,7.805
			c-1.58-6.023,1.652-12.198,5.165-17.339c3.916-5.731,8.574-11.308,14.904-14.156"/>
		<path style="fill:#EFEFEF;" d="M525.429,390.422c0,0-13.588-3.253-19.421,2.914c0,0,0.083-4.5,4.333-5.833
			C514.591,386.169,520.933,388.009,525.429,390.422z"/>
		<circle style="fill:#683C11;" cx="558.098" cy="369.472" r="6.302"/>
		<path style="fill:#3C3C3B;" d="M553.567,376.181c0,0-7.69-8.512-1.291-18.637s17.75-9.711,23.94-13.375
			c7.704-4.561,10.358-8.125,10.616-8.75c0,0-2.241,10.375-19.366,16.5S553.567,376.181,553.567,376.181z"/>
		<path style="fill:#FFE2C5;" d="M651.942,478.551c1.845,0.16,3.684,0.378,5.515,0.661c-11.742-26.253-20.326-53.917-25.508-82.205
			l-0.867-5.758c0.562,4.183-1.17,8.388-3.645,11.807c-2.475,3.419-5.672,6.237-8.572,9.304c-3.32,3.511-6.26,7.359-9.192,11.199
			c-0.28,0.366-0.569,0.755-0.631,1.211c-0.068,0.499,0.146,0.988,0.349,1.449c1.483,3.374,2.595,6.911,3.311,10.526
			c1.007,5.088,1.225,10.294,1.441,15.476c0.432,10.389,0.864,20.779,1.296,31.168c0.561-0.206,1.127-0.396,1.693-0.59l4.376,18.121
			L651.942,478.551z"/>
		<circle style="fill:#683C11;" cx="507.931" cy="399.172" r="6.302"/>
		<path style="fill:#1D1D1B;" d="M526.957,391.106c0,0-8.95-9.603-18.2-4.582c-8.509,4.619-5.75,9.063-9.25,11.979
			s-6.67,3.833-6.752,3.833s5.888,1.993,8.721-2.091c2.833-4.083,6.271-9.717,9.739-11.326
			C512.565,388.293,515.591,385.838,526.957,391.106z"/>
		<path style="fill:#936037;" d="M605.809,340.821c0.329-5.969-2.628-11.628-6.098-16.495
			c-15.583-21.855-43.632-33.788-70.319-30.921s-51.183,19.989-64.018,43.563c0.323-11.013,1.3-22.196,5.326-32.452
			c9.529-24.27,34.636-39.242,59.96-45.448c21.887-5.364,47.168-4.758,64.321,9.857c4.057,3.457,7.5,7.566,10.921,11.653
			c4.55,5.436,9.1,10.872,13.65,16.309c10.726,12.814,21.748,26.185,26.067,42.327c3.755,14.034,2.083,28.861,2.603,43.379
			c0.404,11.289,2.157,22.528,5.209,33.404c3.205,11.421,8.416,23.143,18.449,29.472c5.694,3.591,12.49,5.113,19.212,5.473
			c11.788,0.63,24.693-2.83,31.59-12.411s4.237-25.812-6.891-29.753c-4.963-1.758-11.881,0.285-12.683,5.489
			c-2.185-4.072-0.63-9.454,2.789-12.563c3.42-3.109,8.268-4.229,12.888-4.109c13.658,0.356,25.882,11.2,29.468,24.383
			c3.586,13.184-0.781,27.822-9.736,38.14c-5.662,6.523-12.938,11.448-20.47,15.678c-8.009,4.498-16.59,8.35-25.722,9.339
			c-18.008,1.95-35.96-7.903-46.948-22.302c-10.988-14.399-15.776-32.712-17.081-50.778c-0.36-4.988-0.463-10.093,0.958-14.887
			c1.444-4.871,4.379-9.151,6.371-13.825c3.226-7.566,3.902-15.985,3.64-24.206c-0.217-6.79-1.12-13.785-4.573-19.635
			c-3.454-5.85-9.976-10.306-16.731-9.582c-2.311,0.248-4.67,1.17-6.06,3.034c-1.098,1.472-1.473,3.351-1.699,5.173
			c-0.936,7.561,0.238,15.373,3.355,22.325c-2.765-6.901-5.431-13.843-7.996-20.821"/>
		<path style="fill:#875533;" d="M514.037,297.363c-3.768,3.369-8.1,6.108-12.096,9.231c-5.991,4.682-11.225,10.266-17.135,15.051
			c-7.904,6.399-16.912,11.285-25.156,17.24c-8.244,5.955-15.943,13.312-19.652,22.781c-4.452,11.365-2.495,24.537,3.093,35.389
			c5.587,10.852,14.478,19.661,24.012,27.281c-3.668-5.281-3.831-12.21-3.181-18.607c1.474-14.505,6.484-28.637,14.474-40.832
			c7.322-11.176,16.988-20.595,25.236-31.106c4.98-6.346,9.437-13.083,13.863-19.827c3.257-4.963,6.511-9.953,9.195-15.242
			C522.432,298.713,518.19,298.281,514.037,297.363z"/>
		<path style="fill:#A0653D;" d="M551.816,277.722c-5.819,12.337-14.253,15.151-24.618,24.019
			c-4.56,3.902-9.158,7.814-14.331,10.857c-5.874,3.455-12.356,5.71-18.674,8.264c-10.844,4.383-21.379,9.739-30.613,16.919
			c-9.234,7.18-17.151,16.266-21.941,26.937c-2.393,5.332-4.005,11.21-3.225,17.002c-1.13-6.937-5.492-12.864-8.03-19.418
			c-4.286-11.068-3.183-23.631,0.565-34.892c1.686-5.067,3.909-9.998,7.07-14.302c6.656-9.062,17.15-14.793,28.094-17.373
			c10.943-2.58,22.373-2.252,33.548-1.015c7.421,0.822,10.714,1.652,17.942-0.222c3.721-0.965,11.504-2.341,14.934-4.077
			c3.973-2.011,7.947-4.022,11.92-6.033c2.968-1.502,6.113-3.173,7.684-6.105c0.164-0.306,0.291-0.729,0.035-0.964
			C551.919,277.083,551.474,277.66,551.816,277.722"/>
		<path style="fill:#A0653D;" d="M528.46,278.886c1.406,12.34,10.87,23.37,22.853,26.635c5.165,1.407,10.6,1.468,15.846,2.532
			c8.076,1.637,15.474,5.596,22.606,9.724c6.215,3.597,12.634,7.678,15.895,14.075c2.741,5.378,2.866,11.698,2.367,17.713
			c-0.309,3.724-0.885,7.569-2.929,10.697s-5.925,5.337-9.532,4.364c4.212,2.163,9.634,3.459,13.456,0.664
			c2.344-1.714,3.512-4.582,4.388-7.351c4.313-13.636,4.188-28.637-0.354-42.198c-1.813-5.414-4.309-10.597-7.375-15.413
			c-3.617-5.681-8.158-10.96-14.042-14.237c-7.468-4.159-16.426-4.735-24.943-4.007s-16.909,2.656-25.444,3.138
			c-4.513,0.255-10.061-0.551-11.734-4.75"/>
		<path style="opacity:0.1;fill:#3C3C3B;" d="M613.644,443.611c0,0,10.427-9.132,14.651-31.555c0,0,6.72,47.887-13.454,43.239
			C613.212,454.919,614.506,446.794,613.644,443.611z"/>
		<path style="fill:#EA8500;" d="M410.939,771.357c-15.182,4.15,22.527,21.154,17.998,18.874c18.246,9.188,50.993,9,71.13,10.008
			c16.697,0.835,86.43,4.541,90.96-12.544c16.512-62.276-170.672-3.602-180.405-14.483"/>
		<path style="fill:#F39200;" d="M634.635,713.639c-53.798-8.632-104.507-18.237-157.102,2.771
			c-17.938,7.165-104.117,52.102-57.168,68.362c18.4,6.372,58.574-15.966,77.724-17.982c35.401-3.728,62.937,13.349,96.005,15.252
			c16.232,0.934,42.177,5.049,53.441-13.7c8.613-14.338,3.667-53.705-18.214-55.716"/>
	</g>
	<path style="fill:#F8F8F8;" d="M596.118,92.981c-14.004-25.355-44.856-37.252-72.75-26.721
		c-30.612,11.557-46.06,45.742-34.503,76.354c11.557,30.612,45.742,46.06,76.354,34.503c3.701-1.397,7.175-3.132,10.412-5.144
		c12.542,11.804,31.173,16.165,48.372,9.672c24.051-9.08,36.188-35.938,27.109-59.989C642.655,99.258,618.783,87.203,596.118,92.981
		z"/>
	<g>
		<g>
			<path style="fill:#88AA1D;" d="M262.514,643.373c0,0-0.382,0.406-1.098,1.167c-0.711,0.763-1.799,1.851-3.002,3.377
				c-1.265,1.468-2.66,3.376-4.176,5.605c-1.479,2.257-3.062,4.856-4.531,7.825c-1.54,2.931-2.887,6.264-4.235,9.796
				c-1.263,3.572-2.451,7.383-3.451,11.39c-0.982,4.011-1.839,8.192-2.538,12.472c-0.323,2.146-0.663,4.304-0.923,6.486
				l-0.209,1.634l-0.175,1.626l-0.349,3.323c-0.348,4.337-0.638,8.722-0.632,13.016c-0.031,1.074,0.004,2.141,0.028,3.201
				c0.031,1.061,0.031,2.117,0.087,3.162c0.148,2.086,0.21,4.153,0.467,6.158c0.353,4.034,1.091,7.851,1.863,11.421
				c0.453,1.767,0.902,3.48,1.396,5.11c0.274,0.804,0.543,1.595,0.808,2.371c0.258,0.777,0.512,1.539,0.836,2.251
				c1.153,2.914,2.432,5.459,3.674,7.632c0.652,1.064,1.263,2.06,1.827,2.981c0.637,0.865,1.222,1.659,1.75,2.377
				c0.262,0.359,0.51,0.698,0.743,1.018c0.261,0.296,0.506,0.575,0.734,0.833c0.454,0.517,0.84,0.956,1.153,1.312
				c0.622,0.713,0.954,1.093,0.954,1.093l-7.474,6.644c0,0-0.37-0.484-1.064-1.393c-0.345-0.454-0.771-1.014-1.271-1.672
				c-0.248-0.33-0.515-0.684-0.8-1.062c-0.253-0.399-0.522-0.823-0.807-1.271c-0.564-0.896-1.189-1.888-1.869-2.969
				c-0.587-1.126-1.222-2.344-1.9-3.646c-1.271-2.634-2.533-5.676-3.605-9.064c-0.306-0.837-0.534-1.711-0.764-2.602
				c-0.234-0.889-0.472-1.794-0.714-2.715c-0.423-1.85-0.787-3.774-1.144-5.747c-0.576-3.961-1.07-8.141-1.148-12.453
				c-0.12-2.156-0.037-4.34-0.036-6.548c0.019-1.104,0.095-2.209,0.141-3.321c0.053-1.112,0.096-2.229,0.206-3.344
				c0.31-4.473,0.922-8.958,1.608-13.468l0.581-3.291l0.3-1.675l0.33-1.652c0.42-2.203,0.922-4.385,1.406-6.548
				c1.02-4.32,2.196-8.532,3.487-12.557c1.309-4.021,2.798-7.834,4.342-11.384c1.631-3.515,3.24-6.805,5.016-9.679
				c1.705-2.912,3.497-5.437,5.151-7.61c1.692-2.146,3.228-3.964,4.609-5.358c1.319-1.451,2.474-2.454,3.239-3.167
				C262.105,643.751,262.514,643.373,262.514,643.373z"/>
		</g>
		<path style="fill:#DC4B84;" d="M258.472,618.509c-4.608-4.067-9.394-8.237-15.241-10.129c-5.848-1.892-13.09-0.902-16.824,3.98
			c-4.406,5.759-1.972,14.765,3.71,19.269s13.513,5.303,20.713,4.445c-6.967-0.077-15.392,0.983-18.294,7.318
			c-2.985,6.514,2.967,14.481,10.037,15.643c7.07,1.161,14.086-2.663,19.303-7.574c-4.328,3.131-7.945,7.56-9.042,12.788
			c-1.097,5.228,0.774,11.238,5.281,14.105c5.893,3.748,14.327,0.837,18.326-4.888c4-5.725,4.343-13.304,3.045-20.166
			c2.566,4.788,5.264,9.732,9.607,12.994c4.343,3.263,10.832,4.343,15.125,1.015c1.456-1.128,2.554-2.671,3.339-4.338
			c2.441-5.185,1.719-11.712-1.796-16.239c-3.515-4.526-9.661-6.842-15.288-5.76c2.457,0.372,4.915,0.743,7.372,1.115
			c6.912,1.045,15.394,1.461,19.359-4.297c4.136-6.004-0.528-14.986-7.404-17.411c-6.876-2.426-14.54-0.018-20.93,3.492
			c4.891,1.439,10.297-0.924,13.72-4.703c3.423-3.779,5.208-8.742,6.575-13.654c0.95-3.415,1.607-7.477-0.702-10.166
			c-1.23-1.432-3.087-2.163-4.923-2.603c-12.094-2.893-25.613,6.689-26.89,19.058c1.129-6.35,1.616-13.065-0.658-19.101
			c-2.274-6.036-7.93-11.18-14.379-11.083c-8.586,0.129-14.732,9.558-14.207,18.129c0.525,8.571,5.837,16.07,11.571,22.463"/>
		<path style="fill:#88AA1D;" d="M234.104,721.118c-7.208,0.01-10.991-3.222-17.379-7.346
			c-10.274-6.633-19.447-15.379-24.976-26.288c-5.529-10.909-7.097-24.133-2.607-35.509c14.494,1.221,25.68,13.8,31.305,27.214
			c5.625,13.414,7.252,28.159,11.925,41.934"/>
		<path style="fill:#88AA1D;" d="M239.238,739.832c-0.686-1.015-0.047-2.375,0.629-3.396c8.463-12.778,23.562-20.884,38.888-20.877
			c0.472,4.657,0.101,9.656-2.557,13.509c-1.685,2.442-4.149,4.224-6.619,5.867c-3.089,2.054-6.299,3.986-9.804,5.2
			c-4.58,1.586-9.488,1.891-14.326,2.182c-1.574,0.095-3.246,0.168-4.623-0.6c-1.376-0.769-2.212-2.718-1.262-3.976
			c0.582-0.016,1.164-0.033,1.746-0.049"/>
	</g>
	<polygon style="fill:#3C3C3B;fill-opacity:0.2;" points="253.514,772.57 503.931,964.691 497.09,964.691 246.306,778.567 	"/>
	<path style="fill:#F7E034;" d="M243.896,188.332c0,54.29-44.01,98.3-98.3,98.3c-34.31,0-64.51-17.57-82.09-44.21
		c16.68-29.38,36.58-57.17,59.61-82.76c19.94-22.15,41.76-42.17,65.1-59.94C221.156,115.592,243.896,149.312,243.896,188.332z"/>
	<path style="fill:#FFFFFF;" d="M551.051,118.043c0.479-3.048,0.744-6.156,0.744-9.32c0-37.063-33.945-67.108-75.817-67.108
		s-75.817,30.045-75.817,67.108c0,0.171,0.013,0.34,0.014,0.511c-3.714-0.462-7.541-0.713-11.46-0.713
		c-33.739,0-61.09,17.909-61.09,40.002c0,22.092,27.351,40.002,61.09,40.002c15.958,0,30.482-4.011,41.364-10.572
		c8.082,11.788,24.061,19.817,42.461,19.817c15.343,0,28.997-5.587,37.8-14.276c8.26,5.194,18.776,8.311,30.233,8.311
		c26.554,0,48.08-16.714,48.08-37.331C588.654,136.652,572.564,121.757,551.051,118.043z"/>
	<path style="fill:#FFFFFF;" d="M303.806,387.793c0-25.427-34.698-46.04-77.501-46.04s-77.5,20.613-77.5,46.04
		c0,3.039,0.509,6.007,1.455,8.882c-12.232,5.68-20.111,14.547-20.111,24.518c0,17.146,23.271,31.046,51.977,31.046
		c21.2,0,39.423-7.585,47.51-18.456C270.893,432.746,303.806,412.557,303.806,387.793z"/>
</g>
<g id="Livello_1">
</g>
</svg>
