<?xml version="1.0" encoding="iso-8859-1"?>
<!-- Generator: Adobe Illustrator 19.2.1, SVG Export Plug-In . SVG Version: 6.00 Build 0)  -->
<!DOCTYPE svg PUBLIC "-//W3C//DTD SVG 1.1//EN" "http://www.w3.org/Graphics/SVG/1.1/DTD/svg11.dtd">
<svg version="1.1" xmlns="http://www.w3.org/2000/svg" xmlns:xlink="http://www.w3.org/1999/xlink" x="0px" y="0px"
	 viewBox="0 0 965.704 953.427" style="enable-background:new 0 0 965.704 953.427;" xml:space="preserve">
<g id="November">
	<path style="fill:#5B83A6;" d="M965.704,471.149c0,292.371-268.01,520.528-555.746,476.917
		C135.252,906.429-51.125,631.482,12.5,360.407C139.751-181.75,965.704-85.763,965.704,471.149z"/>
	<g>
		<path style="fill:#72655C;" d="M529.935,903.841c-8.596-2.842-17.565-4.554-26.604-5.077c-4.184-0.242-8.534-0.201-12.356,1.518
			c-3.823,1.719-6.992,5.509-6.78,9.695c0.203,4.014,3.437,7.366,7.141,8.924c3.704,1.558,7.833,1.674,11.851,1.753
			c12.773,0.253,25.654,0.366,38.198-2.055c3.532-0.682,7.158-1.628,9.923-3.929s4.413-6.305,2.986-9.606
			c-1.217-2.816-4.261-4.395-7.234-5.151c-6.494-1.65-13.689-0.291-19.134,3.614"/>
		<path style="fill:#FFE2C5;" d="M396.087,433.777c-2.202-10.617-2.263-21.674-0.181-32.315c0.332-1.696,0.718-3.446,0.348-5.135
			c-0.396-1.808-1.605-3.307-2.656-4.83c-3.23-4.684-5.219-10.217-5.71-15.886c-0.21-2.418-0.634-5.503-2.989-6.093
			c-1.636-0.41-3.322,0.841-3.979,2.394c-0.657,1.553-0.536,3.312-0.371,4.99c0.605,6.124,1.657,12.204,3.147,18.175
			c-4.636,1.612-9.232,3.753-12.634,7.29c-3.403,3.537-5.429,8.709-4.174,13.454c2.579,9.758,16.198,12.157,20.969,21.051
			c1.038,1.934,2.059,4.462,4.249,4.613c2.969,0.204,3.889-3.927,3.726-6.898c-0.051-0.927-0.239-2.051-1.108-2.377"/>
		<path style="fill:#AE988B;" d="M595.682,894.067c0.09-0.1,0.19-0.2,0.28-0.29c0.58,0.06,1.17,0.13,1.75,0.2L595.682,894.067z"/>
		<path style="fill:#AE988B;" d="M622.792,896.207c0.45-2.02-33.803,13.462-37.733,13.512l-18.867-147.672l-9.72-85.36l-9.55,79.14
			c0,0,11.2,107.49,16.49,140.03c0.86,5.28,1.57,8.59,2.04,9.15c1.19,1.4-4.05,2.8-11.37,4.02c-13.59,2.29-34.32,3.98-34.32,3.98
			l-3.58-161.59l7.15-112.3l40.02-18.84l26.2,5.75c9.71,2.14,16.18,11.34,14.91,21.2l-14,108.6l34.25,139.85L622.792,896.207z"/>
		<path style="fill:#72655C;" d="M597.712,893.977l-2.03,0.09c0.09-0.1,0.19-0.2,0.28-0.29
			C596.542,893.837,597.132,893.907,597.712,893.977z"/>
		<path style="fill:#72655C;" d="M622.792,896.207c-0.33,1.51-1.03,2.97-1.99,4.17c-2.26,2.81-5.63,4.45-8.95,5.81
			c-11.82,4.85-24.47,7.28-37.05,9.55c-3.95,0.72-8.02,1.42-11.96,0.62c-3.94-0.79-7.76-3.44-8.76-7.33v-0.01
			c-1.03-4.06,1.32-8.4,4.73-10.84c1.42-1.01,2.97-1.75,4.6-2.32c2.32-0.81,4.79-1.26,7.22-1.6c4.49-0.64,8.02-0.98,12.55-1.02
			l2.8,13.1L622.792,896.207z"/>
		<path style="fill:#72655C;" d="M518.524,461.262c-1.234,1.052-11.546,0.8-18.301,11.022
			c-6.756,10.222-56.975,75.552-56.975,74.218s-40.442-112.883-40.442-112.883l-12.888,6.222c0,0,42.358,139.104,49.622,137.771
			c7.264-1.333,76.755-84.885,76.755-84.885L518.524,461.262z"/>
		<path style="fill:#5ECFB9;" d="M593.172,642.581c-18.726,5.797-57.612,17.487-79.429,21.545
			c-5.008-25.48-8.71-64.589-12.986-128.586c-1.193-17.851,4.635-49.036,6.916-65.877c4.039-10.268,4.214-7.009,10.959-12.062
			c6.748-5.055,15.263-7.193,23.653-8.028c10.414-1.037,21.229-0.179,30.753,4.159c9.525,4.338,17.615,12.479,20.333,22.586
			c2.493,9.27,0.381,19.082,0.579,28.679c0.196,9.518,2.677,18.851,3.324,28.349c0.935,13.732-1.979,27.48-1.418,41.232
			c0.732,17.946,7.971,64.661,7.971,64.661S599.741,640.547,593.172,642.581z"/>
		<polygon style="fill:#FFE2C5;" points="534.081,435.397 528.023,478.951 563.344,469.632 565.453,403.991 		"/>
		<g>
			<path style="opacity:0.5;fill:#3C3C3B;" d="M533.927,437.175l-1.307,15.085l3.882-1.165c8.582-2.576,16.426-7.164,22.879-13.381
				l5.148-4.96l0.924-28.763L533.927,437.175z"/>
		</g>
		<g>
			<path style="fill:#FFE2C5;" d="M455.539,317.167c0.317-1.092,0.671-2.171,1.055-3.239L455.539,317.167z"/>
		</g>
		<g>
			<path style="fill:#FFE2C5;" d="M597.332,359.41c-1.031,4.318-2.501,8.825-5.898,11.68c-3.373,2.836-9.185,3.153-11.771-0.384
				c-0.024-0.024-0.043-0.055-0.061-0.079c-0.232,20.188-8.13,40.181-21.676,55.136c-0.817,0.909-1.659,1.799-2.525,2.671
				c-5.325,5.367-11.546,10.088-18.773,12.302c-5.91,1.805-12.21,1.854-18.389,1.671c-8.74-0.268-17.462-0.97-26.129-2.11
				c-8.789-1.159-18.096-3.05-24.403-9.283c-9.753-9.643-8.618-25.446-6.538-39.004c0.537-3.519,1.098-7.087,0.659-10.619
				c-0.354-2.854-1.348-5.587-2.226-8.331c-6.355-19.755-7.099-41.285-2.135-61.43c-0.311,0.762-0.604,1.531-0.872,2.299
				l1.324-4.068c-0.152,0.586-0.305,1.171-0.451,1.757c6.977-17.389,21.786-31.569,39.596-37.504
				c19.67-6.557,42.444-2.879,59.052,9.527c13.845,10.35,23.415,27.342,21.896,44.56c6.971-3.159,15.553,1.75,18.773,8.691
				C599.997,343.839,599.107,351.969,597.332,359.41z"/>
		</g>
		<g>
			<g>
				<path style="fill:#BF7330;" d="M483.93,320.333c-2.926-3.356-8.059-2.725-11.079,0.204c-4.217,4.091-5.844,11.264-7.956,16.552
					c-0.728,1.822,2.22,2.614,2.941,0.811c1.507-3.773,2.836-7.692,4.601-11.352c1.535-3.183,5.845-8.062,9.337-4.058
					C483.066,323.971,485.215,321.807,483.93,320.333L483.93,320.333z"/>
			</g>
		</g>
		<g>
			<g>
				<path style="fill:#BF7330;" d="M513.626,321.489c8.151-5.662,18.581-4.267,24.588,3.836c1.156,1.559,3.804,0.04,2.633-1.539
					c-6.905-9.314-19.133-11.618-28.761-4.93C510.486,319.968,512.009,322.613,513.626,321.489L513.626,321.489z"/>
			</g>
		</g>
		<g>
			<g>
				<path style="fill:#F0B895;" d="M494.471,374.995c-1.645,4.984-3.291,9.969-4.936,14.953c-1.369,4.146-4.491,9.805-4.466,14.175
					c0.036,6.176,13.625,5.268,17.579,5.014c1.949-0.125,1.963-3.176,0-3.05c-3.773,0.243-7.445,0.12-11.164-0.659
					c-2.416-0.506-3.086-0.767-2.712-3.454c0.242-1.739,1.3-3.938,1.851-5.608c2.263-6.854,4.525-13.707,6.788-20.561
					C498.028,373.938,495.084,373.138,494.471,374.995L494.471,374.995z"/>
			</g>
		</g>
		<g>
			<path style="opacity:0.8;fill:#3C3C3B;" d="M573.448,333.024c0,0-0.407-24.367-20.127-28.23c0,0,3.499-10.477,17.302-5.34
				C584.426,304.591,573.448,333.024,573.448,333.024z"/>
		</g>
		<g>
			<path style="opacity:0.8;fill:#3C3C3B;" d="M462.963,312.666c0.597-0.089,61.691-10.002,75.312-14.629
				c0,0,16.433-10.32,9.64-13.776s-45.09,7.914-51.114,10.572C491.221,297.294,462.963,312.666,462.963,312.666z"/>
		</g>
		<g>
			<path style="opacity:0.55;fill:#3C3C3B;" d="M586.148,326.395l-4.75,24.826c-0.205,1.074-0.903,1.989-1.884,2.472l-4.44,2.188
				L586.148,326.395z"/>
		</g>
		<g>
			<g>
				<path style="fill:#BF7330;" d="M586.148,328.768c-0.027-0.001-0.054-0.003-0.08-0.004c-0.087,0.051-0.168,0.105-0.257,0.156
					L586.148,328.768z"/>
			</g>
			<g>
				<path style="fill:#BF7330;" d="M590.507,263.421c-1.606-4.588-5.092-8.198-9.095-10.955
					c-9.431-6.496-20.196-11.047-31.428-13.286c-19.636-3.914-40.045-0.738-59.321,4.676c-8.191,2.301-16.343,5.036-23.655,9.386
					c-8.075,4.803-14.894,11.433-22.563,16.861c-10.952,7.752-23.661,13.007-36.889,15.253c8.896,6.334,20.164,9.249,31.015,8.023
					c-6.093,8.446-16.654,13.461-27.05,12.844c21.725,12.316,48.783,8.016,73.027,2.025c10.243-2.531,20.428-5.301,30.542-8.306
					c8.782-2.609,17.791-5.551,24.655-11.619c-3.209,6.075-7.988,11.313-13.745,15.064c4.105,2.109,9.193,1.449,13.332-0.593
					s7.526-5.304,10.842-8.515c-0.29,5.629-2.263,11.161-5.599,15.704c6.382-2.162,12.764-4.323,19.146-6.485
					c1.437-0.487,2.977-0.978,4.443-0.59c2.898,0.768,3.863,4.32,4.325,7.282c0.783,5.019,1.566,10.038,2.349,15.057
					c0.027,0.176,0.058,0.355,0.093,0.533c-1.27,3.957-2.686,7.885-3.917,11.842c-2.419,7.774-4.14,15.766-5.136,23.847
					c2.993-1.275,5.986-2.549,8.979-3.824c0.684-0.291,1.392-0.599,1.889-1.153c0.555-0.618,0.773-1.459,0.978-2.265
					c2.192-8.632,4.867-17.14,7.988-25.481c0.119,0.006,0.238,0.012,0.357,0.018C602.103,319.375,596.882,281.627,590.507,263.421z"
					/>
			</g>
		</g>
		<g>
			<path style="opacity:0.12;fill:#FFFFFF;" d="M416.496,285.887c0,0,26.226-11.045,30.089-14.976s8.742,8.47-1.22,11.52
				S416.496,285.887,416.496,285.887z"/>
		</g>
		<path style="fill:#FFFFFF;" d="M547.825,353.024c-0.476,2.537-2.812,4.257-5.056,5.538c-8.484,4.824-18.383,7.124-28.129,6.514
			c-0.073,0-0.14-0.006-0.214-0.012c-2.629-0.171-5.886-1.159-6.209-3.775l-0.988-0.049c-1.372-4.995-0.159-10.247,2.476-14.79
			c1.385-2.397,3.159-4.593,5.16-6.459c3.617-3.373,8.075-5.995,12.961-6.758c4.885-0.756,10.21,0.537,13.717,4.025
			c0.024,0.024,0.043,0.043,0.061,0.067c2.946,2.964,4.349,7.093,5.587,11.088c0.323,1.025,0.634,2.092,0.707,3.159
			C547.929,352.054,547.917,352.542,547.825,353.024z"/>
		<path style="fill:#FFFFFF;" d="M487.468,361.197c-0.098,1.537-0.232,3.165-1.11,4.434l-0.079-0.043
			c-0.049,0.573-0.098,1.147-0.146,1.72c-0.213,0.067-0.433,0.128-0.647,0.189c-6.886,1.854-14.668,0.018-19.987-4.751
			c-0.64-0.573-1.256-1.208-1.58-2.007c-0.329-0.823-0.305-1.72-0.159-2.604c0.067-0.372,0.152-0.75,0.244-1.116
			c0.701-2.806,1.714-5.532,3.001-8.124c0.11-0.22,0.226-0.439,0.348-0.659c1.055-1.982,2.488-3.879,4.617-4.477
			c1.47-0.415,3.043-0.128,4.532,0.226c3.251,0.775,6.605,2.007,8.685,4.623c0.421,0.525,0.768,1.086,1.055,1.671
			C487.858,353.494,487.712,357.507,487.468,361.197z"/>
		<circle style="fill:#A68B85;" cx="510.626" cy="355.882" r="5.008"/>
		<circle style="fill:#A68B85;" cx="467.812" cy="359.901" r="4.561"/>
		<g>
			<path style="opacity:0.8;fill:#3C3C3B;" d="M588.227,346.406c-1.157-0.146-2.176-1.068-2.437-2.205
				c-0.26-1.137,0.256-2.411,1.235-3.045c1.589-1.031,3.898-0.154,4.874,1.469s0.867,3.698,0.294,5.504s-1.562,3.447-2.303,5.191
				c-0.872,2.054-1.398,4.254-1.549,6.48c-0.032,0.466,0.08,1.091,0.545,1.137c-1.57-1.583-2.273-3.979-1.805-6.16
				c0.557-2.597,2.627-4.824,2.562-7.479c-0.014-0.557-0.181-1.188-0.681-1.433c-0.5-0.245-1.249,0.32-0.957,0.794"/>
		</g>
		<g>
			<path style="opacity:0.12;fill:#FFFFFF;" d="M483.443,277.193c-14.338,13.295-32.176,22.781-51.215,27.237
				c5.555,1.632,11.478-0.112,17.001-1.846c6.589-2.068,13.177-4.136,19.766-6.205c10.922-3.429,21.995-6.885,33.431-7.401
				c1.191,1.249-0.25,3.231-1.679,4.198c-1.974,1.335-4.117,2.42-6.361,3.22c8.267-1.871,16.534-3.742,24.801-5.614
				c2.89-0.654,5.837-1.331,8.368-2.872c3.126-1.904,5.431-5.111,6.238-8.681c0.714-3.16,0.143-6.799-2.22-9.014
				c-2.067-1.938-5.062-2.461-7.884-2.711c-14.78-1.31-29.974,2.659-42.225,11.031"/>
		</g>
		<g>
			<path style="opacity:0.8;fill:#3C3C3B;" d="M546.624,428.836c0.36-0.122,0.72-0.244,1.08-0.354
				c-0.22,0.36-0.451,0.714-0.683,1.061l-0.5-0.238c0.079,0.22-0.39,0.189-0.378-0.037
				C546.154,429.038,546.404,428.916,546.624,428.836z"/>
		</g>
		<path style="fill:#3C3C3B;fill-opacity:0.08;" d="M506.485,349.865c0.14-0.189,0.287-0.372,0.439-0.555
			c-0.012,0.061-0.024,0.122-0.037,0.183L506.485,349.865z"/>
		<path style="fill:#EACFB7;" d="M506.485,352.735c0,0,7.388-25.615,23.387-23.804c15.999,1.811,19.69,22.933,19.69,22.933
			L506.485,352.735z"/>
		<path style="fill:#EACFB7;" d="M462.759,357.651c0,0,4.417-17.291,13.984-16.068c9.567,1.223,11.773,15.48,11.773,15.48
			L462.759,357.651z"/>
		<path style="fill:#FFE2C5;" d="M587.18,643.567c-0.343,1.755-0.686,3.511-1.029,5.266c-0.595,3.044-1.192,6.121-1.078,9.221
			c0.027,0.731,0.162,1.576,0.797,1.941c0.434,0.249,0.972,0.19,1.468,0.123c4.701-0.635,9.401-1.269,14.101-1.904
			c-0.283-5.563-2.099-10.92-3.898-16.192c-0.229-0.672-0.464-1.355-0.887-1.926c-1.502-2.028-4.916-1.702-6.628,0.153"/>
		<path style="fill:none;stroke:#F0B895;stroke-width:3.5554;stroke-linecap:round;stroke-miterlimit:10;" d="M495.272,420.854
			c17.224-4.157,34.749-7.061,52.393-8.681"/>
		<path style="fill:#A99C94;" d="M531.384,477.605l17.653,25.345c0,0,28.39-41.776,31.574-43.553
			c3.184-1.778-15.158-7.136-15.158-7.136S556.183,473.617,531.384,477.605z"/>
		<path style="fill:#A99C94;" d="M531.384,477.605l-13.808,20.011l-10.652-27.258c0,0-1.847-14.838,25.696-18.098
			C532.62,452.26,529.675,470.763,531.384,477.605z"/>
		<path style="fill:#72655C;" d="M580.317,631.141c-0.536-4.17-0.901-8.362-1.093-12.562c-0.529-11.582-1.784-67.541-4.151-78.891
			c-1.686-8.087-11.405-63.437-8.387-73.37c1.535-5.05,4.146-10.201,8.839-12.618s9.399-1.516,14.195,3.034v0
			c5.084,4.823,7.898,11.568,7.748,18.574l-0.131,6.134c-0.236,11.027-0.392,136.394,4.367,163.135l-18.753,1.318
			C581.833,641.024,580.955,636.098,580.317,631.141z"/>
		<path style="fill:none;" d="M592.475,461.4c-2.648-0.594-5.558,0.132-7.617,1.899c2.382-0.073,4.744-0.733,6.82-1.904
			c-1.607,0.574-3.11,1.437-4.416,2.536c1.301-0.951,2.602-1.901,3.903-2.852c-1.169,0.923-2.339,1.846-3.508,2.769
			c0.958-0.886,1.916-1.773,2.873-2.659c-1.243-0.095-2.518,0.376-3.399,1.258c1.002-0.259,1.962-0.683,2.828-1.249
			c-1.472,0.825-2.864,1.791-4.151,2.882c1.872-1.072,3.744-2.145,5.615-3.217c-1.442,0.43-2.822,1.066-4.086,1.882
			c0.005,0.859,0.01,1.718,0.015,2.577"/>
		<rect x="582.462" y="657.608" style="fill:#9E897E;" width="19.242" height="4"/>
		<path style="fill:#A6774E;" d="M313.407,211.972c0,0,73.478,178.405,62.219,193.494c-11.259,15.088-27.85-0.103-27.85-0.103
			s-2.963,1.8-2.963,3.755c0,1.956,15.999,15.148,29.628,4.997c13.629-10.152,10.556-30.299,10.556-30.299l-66.098-177.98
			L313.407,211.972z"/>
		<g>
			<path style="opacity:0.8;fill:#3C3C3B;" d="M380.3,412.068c-1.34-2.277-3.006-4.368-4.939-6.185
				c3.455,2.196,4.869,6.88,8.627,8.522c1.35,0.59,3.085,0.697,3.993-1.026c0.543-1.031,0.472-2.272-0.011-3.331
				c-1.654-3.631-4.52-6.705-8.035-8.66c2.424,1.456,4.308,3.634,6.576,5.316s5.259,2.875,7.929,1.924
				c-0.194-4.374-2.604-8.423-5.755-11.51c-2.344-2.296-5.085-4.136-7.909-5.846c-2.081-1.26-4.706-1.247-6.792,0.004
				c-3.012,1.807-6.099,3.629-8.549,6.144c-2.225,2.283-3.89,5.259-3.929,8.424c-0.024,1.929,0.551,3.818,1.254,5.619
				c1.625,4.159,3.97,8.045,6.908,11.435c0.952,1.098,2.521,1.591,3.866,1.016c2.405-1.027,1.704-3.906,0.795-5.968
				c-1.11-2.518-2.28-5.221-1.759-7.918c0.928,2.166,1.855,4.331,2.783,6.497c0.789,1.842,1.677,3.805,3.643,4.624
				c1.119,0.466,2.47,0.329,3.306-0.539c1.017-1.056,0.687-2.449,0.265-3.658C381.974,415.256,381.212,413.619,380.3,412.068z"/>
		</g>
		<path style="fill:#FFE2C5;" d="M378.522,410.29c-1.34-2.277-3.006-4.368-4.939-6.185c3.455,2.196,4.869,6.88,8.627,8.522
			c1.35,0.59,3.085,0.697,3.993-1.026c0.543-1.031,0.472-2.272-0.011-3.331c-1.654-3.631-4.52-6.705-8.035-8.66
			c2.424,1.456,4.308,3.634,6.576,5.316s5.259,2.875,7.928,1.924c-0.194-4.374-2.604-8.423-5.755-11.51
			c-2.344-2.296-5.085-4.136-7.909-5.846c-2.081-1.259-4.706-1.247-6.792,0.004c-3.012,1.807-6.099,3.629-8.549,6.144
			c-2.225,2.283-3.89,5.259-3.929,8.424c-0.024,1.929,0.551,3.818,1.254,5.619c1.625,4.159,3.97,8.045,6.908,11.435
			c0.952,1.098,2.521,1.591,3.866,1.016c2.405-1.027,1.704-3.906,0.795-5.968c-1.11-2.518-2.28-5.221-1.759-7.918
			c0.928,2.166,1.855,4.331,2.783,6.497c0.789,1.842,1.677,3.805,3.643,4.624c1.119,0.466,2.47,0.329,3.306-0.539
			c1.017-1.056,0.687-2.449,0.265-3.658C380.196,413.478,379.434,411.841,378.522,410.29z"/>
		<path style="fill:#E26666;" d="M161.947,326.135c9.969-5.474,22.481-3.424,32.905,1.123c-0.932-9.265,4.36-18.845,12.7-22.987
			c8.34-4.142,19.171-2.571,25.99,3.77c-1.037-7.298,3.334-15.025,10.123-17.897c6.788-2.872,15.378-0.626,19.893,5.2
			c-1.683-8.968,3.95-18.743,12.553-21.782c8.603-3.039,19.127,1.027,23.451,9.062c0.042-11.466,5.027-23.547,15.009-29.188
			c9.982-5.641,24.916-2.248,29.208,8.384c1.002-10.101,3.495-21.083,11.61-27.183c8.114-6.099,25.714-3.723,30.531,4.699
			c-0.587-10.608,3.188-21.001,13.782-27.335c10.595-6.335,27.103-3.846,31.634,7.637c-1.608-8.327,3.619-17.438,11.619-20.254
			c8-2.816,17.781,1.014,21.742,8.513c1.331-8.063,3.089-16.886,9.484-21.974c8.714-6.933,25.59-2.386,28.228,8.433
			c1.965-11.089,4.749-21.996,14.272-28.008c9.523-6.012,21.279-1.582,32.276,5.483c-3.076-7.625-3.523-19.425,6.292-26.02
			c10.265-6.897,17.257-3.194,21.712-3.811c-37.688-43.712-157.149-80.853-265.429-37.177
			c-120.615,48.652-181.659,179.159-161.779,228.445c0.73,1.81,1.576,3.48,2.509,5.044
			C153.859,333.289,157.329,328.671,161.947,326.135z"/>
		<path style="fill:#F56F6C;" d="M153.156,320.658c9.969-5.474,22.481-3.424,32.905,1.123c-0.932-9.265,4.36-18.845,12.7-22.987
			c8.34-4.142,19.171-2.571,25.99,3.77c-1.037-7.298,3.334-15.025,10.123-17.897c6.788-2.872,15.378-0.626,19.893,5.2
			c-1.683-8.968,3.95-18.743,12.553-21.782c8.603-3.039,19.127,1.027,23.451,9.062c0.042-11.466,5.027-23.547,15.009-29.188
			c9.982-5.641,24.916-2.248,29.208,8.384c1.002-10.101,3.495-21.083,11.61-27.183c8.114-6.099,25.714-3.723,30.531,4.699
			c-0.587-10.608,3.188-21.001,13.782-27.335c10.595-6.335,27.103-3.846,31.634,7.637c-1.608-8.327,3.619-17.438,11.619-20.254
			c8-2.816,17.781,1.014,21.742,8.513c1.331-8.063,3.089-16.886,9.484-21.974c8.714-6.933,25.59-2.386,28.228,8.433
			c1.965-11.089,4.749-21.996,14.272-28.008c9.523-6.012,21.279-1.582,32.276,5.483c-3.076-7.625-3.523-19.425,6.292-26.02
			c10.265-6.897,17.257-3.194,21.712-3.811C530.48,92.813,411.019,55.671,302.74,99.347C182.125,148,121.08,278.506,140.961,327.792
			c0.73,1.81,1.576,3.48,2.509,5.044C145.067,327.812,148.537,323.194,153.156,320.658z"/>
	</g>
	<path style="fill:#BDF3FF;" d="M134.768,410.373c0,7.612-6.171,13.782-13.782,13.782s-13.782-6.171-13.782-13.782
		s13.782-18.094,13.782-18.094S134.768,402.761,134.768,410.373z"/>
	<path style="fill:#BDF3FF;" d="M638.495,138.373c0,7.612-6.171,13.782-13.782,13.782c-7.612,0-13.782-6.171-13.782-13.782
		c0-7.612,13.782-18.094,13.782-18.094S638.495,130.761,638.495,138.373z"/>
	<path style="fill:#BDF3FF;" d="M79.888,574.745c0,7.612-6.171,13.782-13.782,13.782s-13.782-6.171-13.782-13.782
		s13.782-18.094,13.782-18.094S79.888,567.133,79.888,574.745z"/>
	<path style="fill:#BDF3FF;" d="M278.148,744.443c0,7.612-6.171,13.782-13.782,13.782s-13.782-6.171-13.782-13.782
		s13.782-18.094,13.782-18.094S278.148,736.831,278.148,744.443z"/>
	<path style="fill:#BDF3FF;" d="M769.452,301.61c0,7.612-6.171,13.782-13.782,13.782s-13.782-6.171-13.782-13.782
		s13.782-18.094,13.782-18.094S769.452,293.998,769.452,301.61z"/>
	<path style="fill:#BDF3FF;" d="M745.888,558.807c0,7.612-6.171,13.782-13.782,13.782s-13.782-6.171-13.782-13.782
		s13.782-18.094,13.782-18.094S745.888,551.195,745.888,558.807z"/>
	<path style="fill:#BDF3FF;" d="M268.888,528.215c0,7.612-6.171,13.782-13.782,13.782c-7.612,0-13.782-6.171-13.782-13.782
		s13.782-18.094,13.782-18.094S268.888,520.603,268.888,528.215z"/>
	<path style="fill:#BDF3FF;" d="M828.888,459.105c0,7.612-6.171,13.782-13.782,13.782s-13.782-6.171-13.782-13.782
		s13.782-18.094,13.782-18.094S828.888,451.493,828.888,459.105z"/>
	<path style="fill:#BDF3FF;" d="M684.888,728.504c0,7.612-6.171,13.782-13.782,13.782s-13.782-6.171-13.782-13.782
		s13.782-18.094,13.782-18.094S684.888,720.893,684.888,728.504z"/>
	<path style="fill:#BDF3FF;" d="M763.888,208.479c0,7.612-6.171,13.782-13.782,13.782s-13.782-6.171-13.782-13.782
		c0-7.612,13.782-18.094,13.782-18.094S763.888,200.867,763.888,208.479z"/>
	<path style="fill:#BDF3FF;" d="M823.888,622.432c0,7.612-6.171,13.782-13.782,13.782s-13.782-6.171-13.782-13.782
		s13.782-18.094,13.782-18.094S823.888,614.821,823.888,622.432z"/>
	<path style="fill:#BDF3FF;" d="M709.647,394.435c0,7.612-6.171,13.782-13.782,13.782s-13.782-6.171-13.782-13.782
		s13.782-18.094,13.782-18.094S709.647,386.823,709.647,394.435z"/>
	<path style="fill:#BDF3FF;" d="M851.452,351.254c0,7.612-6.171,13.782-13.782,13.782s-13.782-6.171-13.782-13.782
		c0-7.612,13.782-18.094,13.782-18.094S851.452,343.642,851.452,351.254z"/>
	<path style="fill:#BDF3FF;" d="M421.338,705.443c0,7.612-6.171,13.782-13.782,13.782s-13.782-6.171-13.782-13.782
		s13.782-18.094,13.782-18.094S421.338,697.831,421.338,705.443z"/>
	<path style="fill:#BDF3FF;" d="M327.189,622.432c0,7.612-6.171,13.782-13.782,13.782s-13.782-6.171-13.782-13.782
		s13.782-18.094,13.782-18.094S327.189,614.821,327.189,622.432z"/>
	<path style="fill:#BDF3FF;" d="M175.874,651.599c0,7.612-6.171,13.782-13.782,13.782c-7.612,0-13.782-6.171-13.782-13.782
		s13.782-18.094,13.782-18.094S175.874,643.988,175.874,651.599z"/>
	<path style="fill:#BDF3FF;" d="M403.699,850.443c0,7.612-6.171,13.782-13.782,13.782c-7.612,0-13.782-6.171-13.782-13.782
		s13.782-18.094,13.782-18.094S403.699,842.831,403.699,850.443z"/>
	<path style="fill:#BDF3FF;" d="M300.631,387.788c0,7.612-6.171,13.782-13.782,13.782s-13.782-6.171-13.782-13.782
		s13.782-18.094,13.782-18.094S300.631,380.176,300.631,387.788z"/>
	<path style="fill:#BDF3FF;" d="M783.235,768.797c0,7.612-6.171,13.782-13.782,13.782s-13.782-6.171-13.782-13.782
		s13.782-18.094,13.782-18.094S783.235,761.186,783.235,768.797z"/>
	<path style="fill:#BDF3FF;" d="M695.864,628.443c0,7.612-6.171,13.782-13.782,13.782c-7.612,0-13.782-6.171-13.782-13.782
		s13.782-18.094,13.782-18.094S695.864,620.831,695.864,628.443z"/>
	<path style="fill:#BDF3FF;" d="M894.888,521.043c0,7.612-6.171,13.782-13.782,13.782s-13.782-6.171-13.782-13.782
		s13.782-18.094,13.782-18.094S894.888,513.431,894.888,521.043z"/>
	<path style="fill:#BDF3FF;" d="M666.059,264.235c0,7.612-6.171,13.782-13.782,13.782s-13.782-6.171-13.782-13.782
		s13.782-18.094,13.782-18.094S666.059,256.623,666.059,264.235z"/>
	<path style="fill:#BDF3FF;" d="M671.105,507.776c0,7.612-6.171,13.782-13.782,13.782s-13.782-6.171-13.782-13.782
		c0-7.612,13.782-18.094,13.782-18.094S671.105,500.164,671.105,507.776z"/>
	<path style="fill:#BDF3FF;" d="M220.435,224.417c0,7.612-6.171,13.782-13.782,13.782c-7.612,0-13.782-6.171-13.782-13.782
		c0-7.612,13.782-18.094,13.782-18.094S220.435,216.805,220.435,224.417z"/>
	<path style="fill:#BDF3FF;" d="M410.188,145.237c0,7.612-6.171,13.782-13.782,13.782s-13.782-6.171-13.782-13.782
		s13.782-18.094,13.782-18.094S410.188,137.625,410.188,145.237z"/>
	<path style="fill:#BDF3FF;" d="M319.103,88.843c-4.241-0.596-8.761-1.155-12.642,0.656c-0.903,0.421-1.858,1.16-1.803,2.154
		c0.062,1.113,1.318,1.72,2.406,1.962c1.821,0.404,3.72,0.453,5.559,0.141c0.87-0.147,1.759-0.374,2.622-0.19
		c0.863,0.184,1.686,0.951,1.565,1.825c-0.062,0.446-0.351,0.827-0.666,1.148c-1.444,1.473-3.526,2.091-5.281,3.175
		c-1.755,1.084-3.31,3.127-2.633,5.075c0.388,1.116,1.437,1.897,2.557,2.274c2.593,0.875,5.723-0.304,7.096-2.672
		c0.734-1.266,1.021-2.821,2.071-3.84c1.029-0.998,2.574-1.251,4.006-1.189c3.072,0.133,5.945,1.463,8.903,2.306
		c2.958,0.843,6.37,1.132,8.902-0.613c1.125-0.775,2.032-2.246,1.428-3.472c-0.245-0.497-0.699-0.859-1.166-1.157
		c-2.609-1.664-5.87-1.806-8.961-1.954c-0.385-0.019-0.789-0.043-1.117-0.246c-0.902-0.559-0.558-2.066,0.323-2.657
		c0.881-0.591,2.013-0.591,3.062-0.75c3.317-0.502,6.276-2.914,7.436-6.062c0.552-1.499,0.588-3.456-0.694-4.41
		c-0.827-0.615-1.961-0.615-2.974-0.422c-5.535,1.057-9.495,6.851-15.124,7.124c-0.209-1.225-0.419-2.449-0.628-3.674
		c-0.064-0.374-0.131-0.756-0.311-1.09c-0.732-1.352-2.701-1.163-4.191-0.783c-0.024,2.747-0.089,5.493-0.193,8.238"/>
	<path style="fill:#BDF3FF;" d="M304.35,159.188c-1.56-0.44-3.544,0.01-4.408,0.999c-1.621,1.856,0.727,4.583-1.233,6.28
		c-1.297,1.123-3.825,1.125-5.807,0.66s-3.797-1.289-5.868-1.506c-2.071-0.217-4.616,0.497-4.886,1.914
		c-0.176,0.922,0.703,1.819,1.846,2.326c1.143,0.507,2.515,0.704,3.851,0.891c1.618,0.226,3.237,0.453,4.855,0.679
		c1.096,0.153,2.304,0.356,2.924,0.991c1.646,1.685-2.592,3.776-1.651,5.696c0.612,1.25,2.982,1.556,4.913,1.512
		c1.219-0.028,2.474-0.119,3.542-0.52c1.79-0.672,2.685-2.049,3.816-3.209c1.131-1.16,3.047-2.261,5.013-1.879
		c2.019,0.392,2.768,2.054,4.287,3.042c1.97,1.282,5.334,1.26,7.505,0.14c2.172-1.12,3.14-3.128,2.762-4.967
		c-0.095-0.465-0.284-0.943-0.75-1.289c-0.737-0.547-1.945-0.619-2.924-0.945c-0.979-0.326-1.729-1.295-0.89-1.769
		c2.186-0.096,4.256-1.016,5.268-2.34c1.063-1.391,0.872-3.235-0.673-4.397s-4.423-1.435-6.236-0.47
		c-2.377,1.265-3.052,4.279-6.067,4.23c-0.546-1.114,0.64-2.3,0.479-3.469c-0.224-1.626-3.611-2.544-5.411-1.468
		c-0.782,0.307-1.124,1.044-0.745,1.602c-1.042,0.332-1.867-0.646-2.28-1.378c-0.413-0.732-1.933-1.457-2.487-0.77"/>
	<path style="fill:#BDF3FF;" d="M494.718,86.674c0.829-0.3,1.885,0.007,2.344,0.68c0.862,1.264-0.387,3.122,0.656,4.278
		c0.689,0.765,2.034,0.766,3.088,0.449c1.054-0.317,2.019-0.878,3.12-1.026c1.102-0.148,2.455,0.338,2.598,1.304
		c0.093,0.628-0.374,1.239-0.982,1.584c-0.608,0.345-1.337,0.479-2.048,0.607c-0.861,0.154-1.721,0.308-2.582,0.463
		c-0.583,0.104-1.225,0.243-1.555,0.675c-0.875,1.148,1.378,2.572,0.878,3.88c-0.325,0.851-1.586,1.06-2.613,1.03
		c-0.648-0.019-1.316-0.081-1.884-0.354c-0.952-0.458-1.428-1.395-2.029-2.186c-0.602-0.79-1.621-1.54-2.666-1.28
		c-1.074,0.267-1.472,1.399-2.28,2.072c-1.047,0.873-2.837,0.858-3.991,0.095c-1.155-0.763-1.67-2.131-1.469-3.383
		c0.051-0.317,0.151-0.642,0.399-0.878c0.392-0.372,1.034-0.422,1.555-0.644c0.52-0.222,0.92-0.882,0.473-1.205
		c-1.162-0.066-2.263-0.692-2.802-1.594c-0.566-0.948-0.464-2.203,0.358-2.995c0.822-0.792,2.352-0.977,3.316-0.32
		c1.264,0.862,1.623,2.914,3.226,2.881c0.29-0.759-0.34-1.566-0.255-2.363c0.119-1.107,1.92-1.733,2.878-1
		c0.416,0.209,0.598,0.711,0.396,1.091c0.554,0.226,0.993-0.44,1.212-0.939s1.028-0.993,1.323-0.525"/>
</g>
<g id="Livello_1">
</g>
</svg>
